<svg xmlns="http://www.w3.org/2000/svg" width="2048" height="2048" viewBox="0 0 1000 1000"><defs><linearGradient x1="-767.097" y1="671.252" x2="-767.097" y2="1008.418" id="A" href="#G"><stop offset="0"/><stop offset="1" stop-color="#fff" stop-opacity="0"/></linearGradient><linearGradient x1="363.7" y1="673.513" x2="363.7" y2="1009.657" id="B" href="#G"><stop offset="0"/><stop offset="1" stop-color="#fff" stop-opacity="0"/></linearGradient><linearGradient x1="465.261" y1="673.267" x2="465.261" y2="1008.685" id="C" href="#G"><stop offset="0"/><stop offset="1" stop-color="#fff" stop-opacity="0"/></linearGradient><linearGradient x1="-767.098" y1="671.252" x2="-767.098" y2="1008.418" id="D" href="#G"><stop offset="0"/><stop offset="1" stop-color="#fff" stop-opacity="0"/></linearGradient><linearGradient x1="-666.963" y1="673.513" x2="-666.963" y2="1009.657" id="E" href="#G"><stop offset="0"/><stop offset="1" stop-color="#fff" stop-opacity="0"/></linearGradient><linearGradient x1="-565.402" y1="673.267" x2="-565.402" y2="1008.684" id="F" href="#G"><stop offset="0"/><stop offset="1" stop-color="#fff" stop-opacity="0"/></linearGradient><linearGradient id="G" gradientUnits="userSpaceOnUse"/><path id="H" d="M-794.03 671.252h53.867v337.166h-53.867z"/></defs><g transform="matrix(.908637 0 0 .903759 31.805417 36.45068)"><g transform="translate(-.06)" fill-opacity=".35"><g transform="scale(-1 1)"><use href="#H" fill="url(#D)"/><path d="M-691.1 673.513h48.264v336.144H-691.1z" paint-order="fill" fill="url(#E)"/><path d="M-589.39 673.267h47.97v335.418h-47.97z" paint-order="fill" fill="url(#F)"/></g><use href="#H" transform="translate(1030.662)" fill="url(#A)"/><path d="M339.568 673.513h48.264v336.144h-48.264z" paint-order="fill" fill="url(#B)"/><path d="M441.276 673.267h47.97v335.418h-47.97z" paint-order="fill" fill="url(#C)"/></g><path d="M340.033 187.579H690.51v485.613H340.033z"/><path d="M441.111 16.552h148.321v654.809H441.111z"/><path d="M387.825 106.887h53.835v606.468h-53.835zm101.627-90.761h53.835v697.596h-53.835zm153.265 90.761h-53.835v606.468h53.835z" fill="#c3e1ec" stroke="#011422"/><g fill="#011422"><path d="M237.079 327.721h52.736v343.885h-52.736zm556.381 0h-52.736v343.885h52.736z" stroke="#000"/><ellipse cx="150.395" cy="735.067" rx="21.225" ry="22.778"/><path d="M150.654 712.108h730.649v45.743H150.654z"/><ellipse cx="-880.15" cy="735.067" rx="21.225" ry="22.778" transform="scale(-1 1)"/><ellipse cx="149.669" cy="818.237" rx="21.225" ry="22.778"/><path d="M149.928 795.278h730.649v45.743H149.928z"/><ellipse cx="-880.87" cy="818.237" rx="21.225" ry="22.778" transform="scale(-1 1)"/><ellipse cx="149.108" cy="903.034" rx="21.225" ry="22.778"/><path d="M149.367 880.075h730.649v45.743H149.367z"/><ellipse cx="-881.44" cy="903.034" rx="21.225" ry="22.778" transform="scale(-1 1)"/><ellipse cx="149.669" cy="986.584" rx="21.225" ry="22.778"/><path d="M149.928 963.625h730.649v45.745H149.928v-45.745z"/><ellipse cx="-880.87" cy="986.584" rx="21.225" ry="22.778" transform="scale(-1 1)"/></g></g></svg>
