<svg xmlns="http://www.w3.org/2000/svg" width="170.667" height="170.667" viewBox="0 0 128 128" xmlns:v="https://vecta.io/nano"><path d="M54.87 2.69l6.04-.37.01 81.52-5.21.53L55.6 89l5.29.05 6.39.02.09-86.77 6.14.53.43 10.2 6.36.67.5 9.13 5.15 1c.77 19.91.45 39.87.17 59.79l-5.34.96-.15 4.2c4.11.14 8.23.29 12.35.25l4.72-.06c5.07-.17 10.17-.04 15.15.97l-.02 4.06a74.55 74.55 0 0 1-12.84.93c-2.32 0-4.65-.01-6.97-.02l-7-.02-44.03-.06-5.97.05-7 .04c-3.91.01-7.82-.09-11.72-.27l-1.47-2.63 1.42-2.73c4.25-.25 8.5-.38 12.76-.31l5.96.07c3.94.03 7.88-.09 11.81-.22l.69-3.99c.1 1.42.24 2.83.37 4.25l5.96-.01-.06-75.28c-.06-3.7.02-7.41.13-11.11m18.87 11.06l.02 75.33h6.21l.01-75.32-6.24-.01m-5.87 70.29l-.1 4.98 5.54.03-.09-5.08-5.35.07zM42.28 23.85l6.04-.03.1 60.12-6.14.12V23.85zM29.86 41.03l6.22-.02c.33 14.33.19 28.68-.05 43.01l-6.19.03c-.27-14.34-.31-28.69.02-43.02zM92.78 41h6.19c.13 14.33.34 28.68-.12 43.02l-6.03.05c-.36-14.35-.43-28.72-.04-43.07zm-76.71 62.66c-.06-6.74 9.67-3.55 14.02-4.33l5.94.05 7.1.03L86 99.39l7.01-.02 5.91-.05c4.44.83 13.86-2.51 13.96 4.33-4.03 2.74-9.3 1.37-13.88 1.71-2.45-.01-4.89-.01-7.33.02l-4.61.06-7.15.04c-6.28-.04-12.55-.08-18.83 0l-6.03.05-7.1.01-6.03-.04-5.81-.01-5.75.06c-4.73-.36-10.08.77-14.29-1.89zm-.73 21.23c1.49-6.74 9.61-4.01 14.59-4.58l6.1.04h7.04l5.86-.02 6.05-.01 6.04.02 6.99.03 4.98.02 8.03-.01 4.94-.02 7.02-.02 6.06-.06c4.94.55 13.06-2.12 14.49 4.62-32.43 2.24-65.77 2.29-98.19-.01z" fill="#011422"/><path d="M60.91 2.32l6.46-.02-.09 86.77c-2.13 0-4.26 0-6.39-.02l.03-5.21-.01-81.52zM48.34 13.73l6.4.07.06 75.28-5.96.01-.37-4.25-.05-.9-.1-60.12.02-10.09zm25.4.02l6.24.01-.01 75.32h-6.21l-.02-75.33z" fill="#c3e1ec"/><path opacity=".14" d="M29.84 84.05l6.19-.03-.06 5.03-5.96-.07-.17-4.93zm12.08 21.45l6.03.04.03 4.49-4.92.03-1.14-4.56z" fill="#01060a"/><path fill="#000306" opacity=".07" d="M55.71 84.37l5.21-.53-.03 5.21L55.6 89l.11-4.63z"/><path fill="#000204" opacity=".05" d="M67.87 84.04l5.35-.07.09 5.08-5.54-.03.1-4.98z"/><path opacity=".15" d="M92.82 84.07l6.03-.05-1.15 4.95-4.72.06-.16-4.96zm-63.34 21.51l.88-.03 5.75-.06-1.16 4.59-5-.07-.47-4.43z" fill="#01060a"/><path fill="#01070c" opacity=".16" d="M29.02 94.92l7-.04.01 4.5-5.94-.05-1.07-4.41z"/><path fill="#01070a" opacity=".13" d="M41.99 94.83l44.03.06-.02 4.5-42.87.02-1.14-4.58z"/><path fill="#01070c" opacity=".16" d="M93.02 94.91l6.97.02-1.07 4.39-5.91.05.01-4.46z"/><path fill="#01080d" opacity=".18" d="M91.67 105.38l7.33-.02.03 4.56-5.9.1-1.46-4.64z"/><path fill="#01070b" opacity=".15" d="M55.05 105.53l6.03-.05-1.16 4.55-4.9-.01.03-4.49z"/><path fill="#01060a" opacity=".13" d="M79.91 105.48l7.15-.04-1.17 4.63h-4.84l-1.14-4.59z"/><path fill="#011422" d="M15.87 110.95c4.62-1.01 9.37-1.14 14.08-.94l5 .07 8.11-.02 4.92-.03 7.04-.01 4.9.01 21.13.04h4.84l7.24-.05 5.9-.1c4.87-.16 9.79-.01 14.53 1.24-1.56 6.66-9.56 4.1-14.51 4.61l-6.07-.04-7.01-.01h-6.05l-6.93-.01h-6.07l-5.93.02c-2 0-4 0-6-.01l-6.07-.03-6.94-.02-5.94.03-6.11.06c-4.41.06-8.81-.13-13.2-.45l-.86-4.36z"/><path fill="#01080d" opacity=".18" d="M29.93 115.76l6.11-.06-.01 4.65-6.1-.04v-4.55z"/><g fill="#01070c"><path opacity=".16" d="M41.98 115.67l6.94.02.01 4.64-5.86.02-1.09-4.68zm37.94.05h6.05l-.01 4.64-4.94.02-1.1-4.66z"/><path opacity=".17" d="M54.99 115.72l6 .01.03 4.61-6.04-.02.01-4.6z"/></g><path fill="#00060a" opacity=".13" d="M66.92 115.71h6.07v4.68l-4.98-.02-1.09-4.66z"/><path fill="#000103" opacity=".04" d="M85.97 115.72l7.01.01v4.61l-7.02.02.01-4.64z"/><path fill="#01080e" opacity=".19" d="M92.98 115.73l6.07.04-.01 4.51-6.06.06v-4.61z"/></svg>