<?xml version="1.0" encoding="utf-8"?>
<svg xmlns="http://www.w3.org/2000/svg" width="2048" height="2048" viewBox="0 0 1000 1000">
	<style>.B{fill:#011422}.C{fill-opacity:.35}</style>
	<defs>
		<linearGradient x1="500" y1="0" x2="500" y2="1000" id="A" href="#J">
			<stop offset="0" stop-color="rgb(7.0588% 23.922% 36.471%)"/>
			<stop offset="1" stop-color="rgb(0% 15.694% 27.463%)"/>
		</linearGradient>
		<linearGradient x1="-767.097" y1="671.252" x2="-767.097" y2="1008.418" id="B" href="#J">
			<stop offset="0"/>
			<stop offset="1" stop-color="#fff" stop-opacity="0"/>
		</linearGradient>
		<linearGradient x1="363.7" y1="673.513" x2="363.7" y2="1009.657" id="C" href="#J">
			<stop offset="0"/>
			<stop offset="1" stop-color="#fff" stop-opacity="0"/>
		</linearGradient>
		<linearGradient x1="465.261" y1="673.267" x2="465.261" y2="1008.685" id="D" href="#J">
			<stop offset="0"/>
			<stop offset="1" stop-color="#fff" stop-opacity="0"/>
		</linearGradient>
		<linearGradient x1="-767.098" y1="671.252" x2="-767.098" y2="1008.418" id="E" href="#J">
			<stop offset="0"/>
			<stop offset="1" stop-color="#fff" stop-opacity="0"/>
		</linearGradient>
		<linearGradient x1="-666.963" y1="673.513" x2="-666.963" y2="1009.657" id="F" href="#J">
			<stop offset="0"/>
			<stop offset="1" stop-color="#fff" stop-opacity="0"/>
		</linearGradient>
		<linearGradient x1="-565.402" y1="673.267" x2="-565.402" y2="1008.684" id="G" href="#J">
			<stop offset="0"/>
			<stop offset="1" stop-color="#fff" stop-opacity="0"/>
		</linearGradient>
		<path id="H" d="M-794.03 671.252h53.867v337.166h-53.867z"/>
		<path id="I" d="M149.928 795.278h730.649v45.743H149.928z"/>
		<linearGradient id="J" gradientUnits="userSpaceOnUse"/>
	</defs>
	<path d="M0 0h1000v1000H0z" stroke="#000" fill="url(#A)">
		<title>back</title>
	</path>
	<g fill="#3c6380">
		<title>tree</title>
		<path d="M34.15 1.51c9.46 18.98 30.57 28.66 39.79 47.66 11.09 19.16 7.98 54.25-16.9 59.86 22.85-8.69 27.81-42.37 13.16-60.21-14.21-13.16-29.52-25.7-35.8-44.78-15.42 27.61-14.72 66.91 8.44 90.14 4.8 4.27 13.28 10.9 19.05 4.73 5.34-7.56-.73-16.45-6.15-22.01 1.85 5.1 4.54 9.84 6.29 14.98-10.22-19.64-21.7-39.85-21.49-62.73 4.65 9.76 2.79 21.49 8.21 31.12 4.11 11.51 15.05 19.57 17.26 31.79.99 9.32-10.62 14.21-17.42 8.43C17.48 79.36 15.26 31.5 34.15 1.51m7.57 14.39c6.55 12.99 19.19 21.3 29.47 31.12-7.7-12.13-19.3-21.16-29.47-31.12zm38.26 86.13c17.93-15.68 42.64-26.85 66.74-23.21-26.74.85-56.14 9.99-72.1 32.72-5.68 12.54 11.11 12.14 18.45 8.46 24.3-11.01 47.89-25.85 75.44-26.84-21.05 6.26-43.65 10.25-62.11 23.32-12.42 8.51-34.85 12.62-43.78-2.22l8.94 6c-.61-7.26 2.76-13.85 8.42-18.23zm67.31-23.1c16.81-3.53 33.26 11.78 48.84 5-11.61 14.33-30.96 19.15-42.87 33.34-18.23 23.83-59.37 32.89-80.6 8.48 20.1 12.51 49.06 17.47 68.43.36 14.71-13.79 29.67-27.65 47.93-36.68-13.15-6.06-27.81-7.21-41.73-10.5z"/>
		<path d="M14.42 105.4c23.04.65 46.21 10.07 62.4 26.79 31.12 24.81 73.59 8.87 108.79 14.48-34.71-1.07-73.88 10.33-105.04-9.68 2.96 18.11 20.13 32.73 37.58 36.86 34.07 3.74 62.58-19.51 93.2-30.03-2.37 2.27-5.16 4.04-8.11 5.45 3.68 6.16 6.35 12.88 7.06 20.07 6.14-5.74 7.14-14.23 9.42-21.84.93 8.17-2.42 16.34-7.94 22.27-6.88 7.12-5.29 17.92-9.26 26.47-.6-1.21-1.17-2.43-1.7-3.66-.43 3.78-.66 7.59-.76 11.41l-1.99-.07c1.74-17.27 18.35-36.9 3.65-53.81-14.68 4.05-23.73 17.31-37.43 23.19-12.06 5.23-25.68 7.32-38.69 5.04 20.33.17 42.41-3.93 56.73-19.59-21.82 9.19-44.64 21.67-69.21 16.44 6.18 12.77 2.47 26.95 2.07 40.39 18.21 5.68 34.65 15.94 49.41 27.89 3.93 3.05 4.88 8.14 5.96 12.7 6.54-33.81 35.16-60.79 68.28-68.4 18.73-4.03 40.58-13.54 58.67-3.98-20.17-4.77-40.85.79-60.15 6.7-18.61 5.04-35.67 15.94-47.47 31.27 26.1-24.79 63.87-27.64 96.86-37.36-31.24 14.54-72.23 12.67-95.96 41.41-8.93 12.25-14.28 27.24-16.87 42.12 32.62-25.88 64.99-52.84 101.41-73.18-35.48 23.85-69.76 49.77-103.2 76.42-.5-3.99-1.16-8.01-2.89-11.67 2.68 11.73-2.24 22.29-4.71 33.39 3.95 12.85-.28 25.71-4.73 37.8-5.02 12.92 2.2 25.81 3.28 38.7-13.2-19.27-3.75-41.41.76-61.56-4.94 8.36-6.8 17.99-8.71 27.38-2.14-14.26 10.96-25.72 8.03-39.71-9.62 1.21-19.29-1.99-28.85-.11-20.07 7.2-35.04 27.26-57.37 28.05 15.27 5.4 32.21 6.37 46.36 14.65-27.47-11.37-58.41-12.78-85.7-23.12 9.22 1.5 18.08 4.95 27.5 5.37-.15-6.29-.91-12.57-.51-18.86-15.95-1.68-26.75-16.3-42.65-18.14-5.82-.34-11.25-2.55-16.3-5.32 17.01-3.41 31.76-13.82 48.57-16.84-14.36 5.02-27.4 13.08-42.4 16.37 17.52 2.86 31.74 13.92 47.28 21.33 8.32 4.37 11.32-6.04 15.78-10.79-8.06-7.09-25.37-10.5-20.73-24.74 5.18-13.3 21.98-20.23 22.37-35.9 6.66-12.97 24.73-13.68 37.52-11.66.26-15.69 6.98-39.15-11.91-46.65 6.87 13.58-.76 30.3 2.31 45.18-3.94-11.68-.52-24.31-1.45-36.39-14.71-.21-25.5 12.48-39.99 13.25-26.63-.52-50.17-22.87-53.12-49.19-.94-11.85-8.65-28.99 4.55-36.59m-.64 2.54c3.35 1.96 6.9 3.55 10.59 4.76-1.43-4.86-6.16-5.62-10.59-4.76m10.08.14c14.61 22.51 31.1 47.29 56.68 58.05-24.78-5.23-38.57-31.42-54.01-49.68-4.16-3.61-12.03-8.33-16.74-3.64-3.4 18.64 4.59 37.3 15 52.43 7.66 10.99 21.29 19.76 35.08 15.66 12.11-3.51 24.61-7.51 37.24-3.88-7.79-15.94-19.1-29.88-25.83-46.38-11.1-14.45-30.01-20.32-47.42-22.56m53.13 28.91c.72 2.17 1.67 4.26 2.9 6.2-.77-2.15-1.73-4.23-2.9-6.2m-64.05 12.16c5.25 17.94 19.32 33.22 37.55 38.26 14.36 6.46 28.51-2.97 40.83-9.58-16.42-4.28-31.79 9.76-48.14 3.97-15.07-4.97-23-19.69-30.24-32.65m79 13.71c1.87 4.7 4.24 9.16 6.42 13.72l2.97.07c-1.02-5.75-4.71-10.47-9.39-13.79M77.7 228.47c.06 15.5-16.97 22.2-21.59 35.6-5.05 13.42 13.01 15.59 19.93 22.85 17.62-8.78 38.21-9.71 57.5-8.43-18.55 2.78-39.29-.23-56.19 9.88-4.74 5.76-12.63 12.08-11.08 20.27 3.21 4.68 6.38 13.15 13.45 11.09 16.65-2.71 30.5-12.8 44.32-21.72 4.65-3.49 11.9-3.8 14.49-9.62l-6.72-.68c4.37-6.75 2.22-14.81 3.63-22.2 4.37-10.53 15.29-16.06 24.57-21.65 2.36 2.05 4.74 4.09 7.24 5.98-15.32-16.99-37.88-30.63-61.2-32.85-10.09-.43-23.76 1.04-28.35 11.48m58.99 38.97c-.78 6.2.47 12.62-1.75 18.66l3.74.76c-1.15-13.67 12.39-22.54 24.72-17.28-5.28.51-10.69.41-15.77 2.13 6.52.52 13.04-.24 19.56-.17-.58-8.76.45-19.31-6.95-25.63-9.35 5.03-19.79 10.96-23.55 21.53m4.19 18.38c8.58-1.74 18.42-3.94 23.63-11.68-9.59-1.62-24.92-2.21-23.63 11.68m-1.3 1.88l-.6 3.24c9.89-1.2 26.04 2.37 27.16-11.81-8.15 4.7-17.09 8.01-26.56 8.57m4.29 4.7c6.05.02 14.48 4.62 18.61-1.7-6.09 1.51-12.36 1.83-18.61 1.7m-77.99 19.43c-.85 5.48 2.7 9.28 7.85 10.28-2.44-3.56-4.99-7.04-7.85-10.28z"/>
		<path d="M155.64 117.58c14.97-10.7 36.18 2.04 45.05 15.77 4.7 8.63 16.08 7.66 22.4 13.59 2.7 11.9-5.82 22.84-8.29 34.21 4.48-.39 7.64 2.86 10.56 5.73 4.85-11.86 17.75-16.15 27.98-22.1-6.65 9.17-20.78 9.84-25.41 21.1-2.86 7.04-6.95-2.47-11.28-3.14-1.54 1.84-3.02 3.74-4.62 5.52 1.48-12.6 9.02-23.63 10.08-36.26.92-7.25-8.14-6.82-12.6-9.42-11.91-7.1-23.07-15.45-33.78-24.26-5.79-4.97-13.56-2.32-20.09-.74m21.41-.56c6.67 5.82 13.44 11.67 21.06 16.22-4.75-7.72-12.63-13.18-21.06-16.22zm82.6 99.56c9.04 1.22 14.35 9.65 19.64 16.18 7.67 11.11 17.28 22.07 19.77 35.68-1.91-2.98-3.51-6.14-5.04-9.33 17.11 37.74 14.62 87.61-12.31 120.21 23.42-33.99 28.45-80.34 10.95-118-5.09-17.44-16.76-33.23-34.32-39.47l-8.98 75.39c-.53-21.9 5.76-43.36 5.4-65.31-7.78 7.92-13.44 17.66-21.43 25.4-15.08 15.62-39.22 22.08-59.93 17.99 22.28.55 46.54-4.26 61.4-22.42 7.79-10.54 18.98-19.36 22.47-32.41 6.62.58 11.11 5.94 16.75 8.8-3.48-5.58-9.1-9.06-14.37-12.71zM59.69 251.04c2.13-3.86 5.34-6.96 9.13-9.17-2.63 3.44-5.68 6.55-9.13 9.17zm198.88-6.23c8.79-1.52 7.84 10.03 10.15 15.6 15.76 36.36 2.33 76.19 4.96 114.14-6.96-35.62 9.2-73.49-4.89-108.39-2.6-7.54-9.44-13.13-10.22-21.35m1.62.83c.94 4.03 3 7.68 5.82 10.7-.83-4.04-1.67-8.75-5.82-10.7zm-88.48 57.04c-3.6-9.75 1.67-23.53 13.36-23.67 25.3-2.59 43.81 17.79 62.91 30.81-.01-4.03.14-8.06.61-12.06.73 6.52-1.49 14.47 4.35 19.22l-3.99.41c4.9 24.02 13.5 47.93 30.09 66.19-6.8-5.65-12.42-12.61-18.94-18.61-10.94-12.72-13.1-30.58-12.3-46.77-7.57 2.71-17.01 1.97-23.55 6.11-6.89 25.11-9.48 52.58-4.33 78.27-6.32-7.31-3.68-17.76-4.26-26.59.01-17.49-.3-35.84 7.18-52.08-17.16 6.3-35.95 12.38-53.72 4.56 1.98.02 3.96.14 5.94.23-.86-7.59-4.01-14.77-4.61-22.34 2.51-7.92 12.98-8.16 19.9-9.24-5.66 3.76-13.36 3.28-18.3 8.22 1.28 7.76 2.26 16.71 6.17 23.4 24.03 6.69 46.3-11.05 70.12-13.01-2.3-8.01-10.98-10.65-17.91-13.28-15.23-6.79-28.54-18.92-45.42-21.4-11.4-.28-13.71 12.79-13.3 21.63m18.11-22.62c15.93 5.13 29.05 16.02 44.44 22.14-12.1-11.16-27.64-21.12-44.44-22.14m59.37 45.85c.69 14.31 3.51 30.56 14.94 40.39-6.51-12.89-10.89-26.59-14.94-40.39zm59.67 23.55c19.5-39.06 66.53-58.83 108.62-51.81-37.19-1.44-79.35 8.91-100.45 42.33 21.61-2.31 39.36-15.3 57.44-25.96-14.59 14.73-34.65 23.96-55.1 27.31-4.99.32-7.32 5.03-10.51 8.13z"/>
		<path d="M409.54 301.48l3.37.78c-23.31 26.41-53.09 48.52-88.17 55.67-8.37 1.4-19.23-1.04-25.15 6.58-5.98 8.5-12.12 16.98-16.74 26.32 31.89-26.26 85.92-31.25 115.95.35 4.3 4.85 13.3 19.32 1.21 19.08-25.26-3.44-51.83 2.14-72.65 17.15-10.78 8.32-25.76 8.62-37.91 3.27-12.38-6.23-26.03-.49-39.1-1.32-8.5 12.05-17.26 23.89-27.85 34.18-31.4 45.98-32.96 104.58-24.06 157.79-12.52-53.24-8.5-114.21 24.09-159.88 5.42-6.48 12.24-11.8 16.54-19.19-12.66 1.29-25.19-.37-36.12-7.16 1.29 3.32 2.75 6.57 4.34 9.76l3.41-5.38a189.46 189.46 0 0 0-.9 9.82c1.73-2.59 3.43-5.2 5.26-7.72-.89 4.83-3.61 8.94-6.74 12.62-3.1-17.83-19.63-29.56-21.97-47.76-3.99-9.1 2.49-17.03 5.19-25.21-12.59-13.2-3.58-33.57-15.61-47.48 11.15 8.3 8.34 22.81 10.65 34.58 8-12.66-.55-25.77-8.51-35.72 10.44 7.19 16.88 22.14 10.55 34.07-3.4 5.59 2.31 10.37 5.56 14.33-12.07 17.45-3.46 47.54 16.49 54.9 1.97-2.57 4.09-5.02 6.41-7.28-1.4 3.14-2.97 6.2-4.62 9.21l2.01.64c3.25-5.71 6.16-11.68 10.52-16.66-7.86-.56-16.12.04-23.42-3.45 10.19-2.9 20.87-3.26 31.4-3.23 6.78-.84 14.28-4.97 20.61-.29-7.86-1.1-16.53-.33-22.86 4.92 7.66-.74 15.28-2.01 23.01-1.9 4.39-5.86 10.98-9.49 15.4-15.3-23.6-7.79-48.61-.75-67.51 14.45 17.3-18.58 45.57-23.55 69.26-15.53 10.98-10.27 16.81-24.27 25.15-36.46 7.9-10.81 22.75-6.47 33.88-10.25 30.98-8.89 60.55-27.39 79.63-53.3m-113.16 82.01c-5.41 3.35-13.33 6.91-11.74 14.68 31.25-1.58 62.49-5.14 93.84-4.06-31.08 3.41-62.99 3.38-94.33 5.79l-1.48-8.09c-1.63 1.62-3.13 3.36-4.7 5.04 4.98 15.4 25.24 1.9 37.2 4.34-10.72 2.59-21.74 3.21-32.64 4.57 4.37 3.65 9.03 6.97 12.91 11.16-4.56 3.52-9.59 6.35-14.68 9.01 14.64 5.8 33.16 10.51 46.57-.63 22.21-16.97 51.01-19.01 77.88-17.52-2.18-11.48-10.76-20.64-20.66-26.26-26.71-16.35-61.44-11.93-88.17 1.97m-24.42 19.21a238.39 238.39 0 0 0 8.02 2.34c-1.06-2.08-2.16-4.13-3.26-6.17-1.61 1.24-3.18 2.55-4.76 3.83m-20.11 25.21c14.41.28 29.77-1.38 41.08-11.26-6.16-5.64-13.35-10.95-21.79-12.22-7.97 6.26-12.75 15.79-19.29 23.48m-42.32-8.89c7.02.19 17.13 4.09 21.86-2.76-7.35.1-14.81.51-21.86 2.76m9.11 16.21c11.34-2.81 28.24-1.44 33.46-14.08-12.76-.87-30.32-2.25-33.46 14.08m-3.28 3.78c10.43 2.87 27.1 5.71 30.81-7.98-10.29 2.45-21.06 4.09-30.81 7.98zM34.99 314.63c12.87 15.14 16.51 36.28 30.72 50.69 14.77 20.39 41.44 23.59 64.41 27.46 15.29 1.88 30.48 10.41 45.96 4.88-2.36-7.46-6.9-13.9-10.28-20.9 10.37 11.97 15.84 27.29 18.99 42.61 5.01 20.31 14.63 39.24 18.08 59.99 1.34-5.16 1.45-10.5.99-15.78.84 3.44 2.2 7 1.37 10.58-11.03 32.12-21.77 65.41-20.28 99.84-1.65 21.77 9.68 41.42 13.15 62.31-20.32-41.92-19.48-90.89-4.18-134.28 5.82-14.74 8.59-31.25.97-45.96-7.9-18.33-11.75-37.9-17.3-56.97-6.26 1.02-12.65 2.69-19 1.42-25.94-6.53-52.95-8.6-77.99-18.51 15.08 12.19 33.22 20.55 52.56 22.88-18.37.37-34.34-9.51-49.66-18.15-17.07 3.24-36.73 5.11-51.89-5.49 14.63 5.47 31.13 9.72 46.26 3.51-12.28-4.17-18.84-20.56-33.39-18.07-15.52 5.42-28.56 15.97-41.47 25.85 22.2 1.35 41.83 12.57 62.87 18.46 14.9 4.12 30.39-.18 43.87-6.75-7.12 7.38-17.96 9.11-27.71 10.09-21.82 1.42-40.42-12.27-61.15-16.41 16.98 8.93 35.43 14.88 54.15 18.93C47.96 416.24 25.84 398 0 393.24v-.77c13.28-9.86 26.62-19.95 41.83-26.65 8.22-3.35 15.78 2.8 23.23 5.39-12.07-17.74-20.91-37.26-30.07-56.58m29.73 58.1c3.23 4.79 8.11 8.16 13.45 10.21-3.21-4.8-8.01-8.32-13.45-10.21z"/>
		<path d="M46.73 323.99c5.5 4.16 10.12 9.91 17.36 11.05 15.07 6.19 28.25 16.2 41.94 24.91 13.88 12.69 33.94 13.21 48.89 24.18 5.99 4.88 13.53 7.18 19.6 11.89-20.8-7.04-40.83-16.36-59.56-27.86-26.34-7.66-50.9-22.94-68.23-44.17m13.24 11.04c13.33 13.3 30.39 22.79 48.17 28.82-15.19-10.76-30.84-21.77-48.17-28.82m67.88 37.93c8.33 6.56 18.49 10.47 28.44 13.87-8.16-6.86-18.63-10.12-28.44-13.87zm115.09-36.86l.98-.04c1.59 17.27 1.8 34.63 1.03 51.95-.35 4.84 5.32 6.1 8.85 7.45 4.77-7.6 5.67-17.26 12.29-23.72.39 8.99.01 18.68-4.85 26.56 1-6.96 3.65-13.74 2.79-20.88-4.14 5.68-5.26 12.89-9.29 18.67-3.99-.04-7.71-1.52-10.96-3.74l-2.79 4.08c2.21-20.03 1.91-40.19 1.95-60.33zm-114.23 4.69c15.8 6.99 27.34 21.32 36.6 35.45-11.27-12.72-21.72-26.56-36.6-35.45zm59.09 80.76c12.35 8.28 13.76 25.88 19.31 38.85-8.4-11.79-9.83-27.41-19.31-38.85zM245.04 625c-9.55-34.96-1.05-73.21 23.53-100.07.06 15.42 9.3 28.73 12.57 43.45-6.84-11.6-9.41-25.11-14.55-37.47-10.76 28-32.68 57.42-18.91 88.53 9.58 15.62 13.3 33.4 18.9 50.51 6.05-2.95 12.13-5.85 18.35-8.46-11.8-6.84-17.79-21.48-15.71-34.75 2.59 12.4 4.49 30.74 19.83 33.34-21.64-17.62-22.65-50.18-9.14-73.15 3.56-5.61 3.66-12.27 1.27-18.35l3.51 6.65c3.18-4.9 5.63-10.33 9.9-14.43.09 20.51 9.31 39.34 12.77 59.29 6.28-28.73 29.77-47.64 49.4-67.48-1.16 22.62 5.29 46.07-1.83 68.28-2.88 9.87-9.17 18.11-13.87 27.1 30.33-18.29 66.3-18.49 100.43-15.64-19.21 3.06-38.94-2.11-58.07 2.13-19.05 4.18-38.95 10.71-52.8 25.08 29.31 2.7 57.41-7.92 82.67-21.67-17.8 12.8-39.33 21.86-61.5 22.99-9.06 1.25-18.48-.91-27.27 2.19 30.4 12.62 66.78 9.64 93.62-9.97 11.78-5.44 18.66-17.44 30.01-23.33-19.04 16.78-34.76 39.66-60.09 47.38-20.29 3.48-41.39-.43-60.45-7.74-13.75-6.76-30.36-7.42-44.77-2.54 15.33 1.7 30.85 2.31 46.04 5.16 24.53 7.21 50.13 23 57.45 48.97-30.53-3.57-63.62 2.98-92-11.3-10.71-6.35-18.92-16.5-22.99-28.26-2.89-8.15-14.05-5.89-19.1-1.2-9.69 10.4-15.44 23.99-18.35 37.79 6.58-5.76 12.27-13.64 21.37-15.37-8.86 6.02-16.67 13.21-24.28 20.7 2.77-15.4 8.46-30.62 18.62-42.72 2.59-3.08 6.12-9.92.34-11.61-13.47 4.4-18.74 18.71-27.41 28.56-5.45-15.49 16.89-21.18 21.07-33.43-1.75-9.3-.19-25.07-13.17-25.68-7.62-4.6-17.91-6.85-25.93-1.98-9.92 13.23-7.44 33.42-19.26 45.26l3.76-8.73c-3.95 4.28-7.6 9.1-13.07 11.55-1.99-7.82-2.34-15.94-2.75-23.96 2.78 6.92 2.19 14.5 3.27 21.75 18.01-8.68 12.63-31.35 23.8-45.05 5.07-7.77 15.65-4.22 23.33-5.76-6.05-6.51-22.12 3.86-21.92-8.52 1.24-16.16 3.05-35.09 16.27-46.26-5.71 9.04-11.37 18.41-12.88 29.22 5.03-8.07 8.5-16.99 13.56-25.05 7.69 15.34 16.13 30.28 26.43 44.05m-.87-47c5.77-14.23 12.23-28.16 18.74-42.06-10.17 11.76-15.61 27.01-18.74 42.06m68.45 33.6c-5.72 15.56-3.24 32.87 3.49 47.68 11.73-24.01 20.79-49.58 25.58-75.84.02 25.83-7.22 51.06-17.85 74.48 12.4-8.56 22.03-21.06 28.26-34.71 8.97-21.13 2.59-44.3 2.75-66.35-16.12 16.4-35.56 31.71-42.23 54.74m-35.61-12.69c-8.23 20.15-4.82 50.37 16.67 60.62-15.67-30.23 5.13-62.74-.02-93.63-6 10.75-11.56 21.79-16.65 33.01m-58.49-14.84c-5.05 13.96-19.39 27.12-13.71 42.93l16.08-.09c.88-11.44-2.46-22.89-.34-34.26 2.64 13.39-.33 29.12 8.18 40.59 9.21-1.27 14.36 7.07 21.39 11.23-5.38-22.56-23.12-39.13-31.6-60.4m77.94.83l-1.55 8.84 2.75-2.02c-4.07 20.51-5.27 44.26 4.33 63.17 9.94-22.45 2.3-47.92-5.53-69.99m-5.37 61.04c1.18 6.26 5 16.58 13.22 11.97-2.4-2.34-6-3.88-6.63-7.52-4.91-18.02-5.17-36.97-3.02-55.43-4.14 16.58-6.12 34.01-3.57 50.98m26.86 16.39c10-15.85 16.5-34.04 19.88-52.46-5.76 17.81-13.77 34.83-19.88 52.46m-95.7-36.67c-2.12 5.43 5.36.43 0 0m26.8.32c2.59 10.2 5.57 20.82 12 29.33-2.23-10.37-6.74-20.17-12-29.33m-16.84 9.79c2.04.91 4.13 1.73 6.25 2.44-1.24-2.56-3.59-3.59-6.25-2.44m9.09 3.86c1.84 9.12 3.51 18.26 4.99 27.45 4.05-2.56 8.06-5.2 12.36-7.33.62 6.13-1.93 11.8-4.59 17.14 4.12-1.18 8.07-2.87 11.81-4.95-3.17-8.58-7.12-16.94-12.55-24.34.41 5.42 1.63 12.35-3.87 15.72-3.54-7.66.65-19.1-8.15-23.69m66.87.16c-.51 5.78.04 11.88 3.78 16.6-.76-5.64-2.17-11.16-3.78-16.6m24.53 28.33c12.71 6.34 27.31 7.84 41.32 8.61 18.9.99 35.33-10.8 47.88-23.73-25.59 18.8-58.82 23.81-89.2 15.12m-27.36-9.01l4.97.76c-1.1-2.26-2.25-4.49-3.44-6.7l-1.53 5.94m-54.4 7.07c1.37 2.04 2.78 4.07 4.23 6.07 1.05-3.11 1.75-6.33 2.15-9.57-2.15 1.12-4.28 2.27-6.38 3.5m14.85 6.76c7.22 5.25 12.42 12.45 18.03 19.24 27.39 22.56 65.75 11.78 97.29 22.52-6.7-.16-13.17-2.03-19.77-2.98-29.86-4.6-68.45.31-87.38-28.71 5.09 14.9 18.47 26.47 33.63 30.32 25.32 6.09 51.64 4.02 77.43 5.65-17.74-40.82-67.64-52.8-108.1-47.73 20.03 14.29 42.88 24.05 67.46 26.56a48.71 48.71 0 0 1-12.23-.77c1.78 1.25 3.49 2.6 5.21 3.95-22.6-9.55-49.55-12.72-68.36-29.08 8.13 4.51 16.02 9.75 25.19 11.98-8.99-3.6-18.65-16.43-28.4-10.95z"/>
		<path d="M263 566.01l1.13.04c-.08 5.72-.23 11.47.38 17.18 1.26-4.86 1.48-9.94 3.19-14.68.85 10.96-4.05 21.39-3.41 32.38-.87 20.83 4.21 41.07 7.64 61.44-12.08-30.35-8.99-64.28-8.93-96.36zm-128.13 103.2c9.28-8.35 10.73-22.32 20.28-30.44-7.06 11.65-11.12 26.54-22.88 34.44.58-7.16 3.43-14.51 9.88-18.33-2.95 4.49-6.68 8.76-7.28 14.33zm21.64-27.98c4.44-1.48-.3 4.59 0 0zm5.99 14.99c.5-3.3 2.23-6.14 5.16-7.79l-2.6 5.34 5.64-1.28c-2.31 2.03-5.2 3.16-8.2 3.73zm-38 17.25c10.7.03 24.55-1.64 30.7 9.39 7.23 6.93 1.37 16.9-4.37 22.57 1.96-7.09 9.43-15.21 2.8-22.03-5.54-9.86-17.95-7.29-27.36-8.86-11.69 3.1-15.54 16.18-21.27 25.41 6.91 3.73 14.83 2.76 22.18 1.12l-4.37-2.26c11.24-1.24 21.82 6.25 23.17 17.71-4.51-5.11-6.67-14.79-14.83-14.79-7.41 1.66-15.03 2.36-22.41 4.09-9 3.23-6.4 15.32-12.89 21.08-4.01 3.52-4.17 8.81-2.39 13.52.42-3.63.74-7.26 1.07-10.89-1.14 18.67 8.85 36.14 21.56 49.11 6.66-4.27 14.28-6.87 22.2-7.29-5.49 1.82-11.11 3.2-16.65 4.88 5.6-.48 11.51 2.06 16.88.3 8.97-7.96 14.73-21.07 27.72-23.41 14.52-3.09 26.79 11.82 25.2 25.59-1.72-12.38-11.06-27.63-25.59-23.83-16.5 2.46-19.51 28.99-37.92 23.34-13.44-.98-20.9 12.38-25.91 22.77-2.88 5.87 5.43 8.62 9.93 8.02 10.31-.99 23.29-.63 29.87-10.16 7.76-9.09 12.91-19.97 20.16-29.41 1.63 9.13 3.95 18.42 9.95 25.77 10.49-10.47 23.54-22.19 39.67-18.64 8.18-23.82 34.59-33.23 44.71-55.8-4.76 23-32.39 29.79-40.37 51.04-5.93 15.96-17.46 28.62-28.57 41.13 6.07-12.82 19.2-21.25 23.82-35.16-14.26-2.61-26.45 7.3-35.45 17.1l5.58 6.99c6.12-2.4 11.92-5.51 18.06-7.86-4.74 5.91-12.02 8.47-18.51 11.89-2.03-3.88-4.49-7.6-8.08-10.21 2.62 9.19 14.25 13.63 13.37 24.33-.88 20.93-16.78 37.27-30.07 51.98 18.95 5.09 33.66 18.05 45.02 33.55 13.48-4.1 27.71-4.23 40.05 3.26 17.05 6.12 34.94-1.01 50.36-8.33 26.37-13.55 38.78-42.63 46.7-69.59-15.11 1.28-28.23 10.03-43.21 12.13-16.68 2.35-27.94 15.78-40.86 25.14-12.08 8.16-22.22 18.86-31.42 30.08 15.16 2.82 29.8-3.8 42.92-10.63 17.79-9.94 34.67-21.86 48.67-36.73-13.9 25.22-41.8 38.89-68.29 47.24-7.76 1.99-16.82 5.18-24.26.65.97-6.44 7.3-10.03 11.06-14.83 11.3-11.09 20.44-25.45 35.46-31.89-6.63 6.92-15.46 11.38-21.33 19.1 20.63-15 40.19-35.64 67.36-36.96-7.38 2.79-15.32 3.95-22.38 7.6 16.75-2.26 31.48-12.2 48.59-12.61-4.52 23.57-15.92 46.31-33.51 62.83-24.27 20.15-60.98 28.98-89.77 13.15l-12.66 6.87c5.18 17.37 17.97 31.3 22.41 49.03 3.17 14.43 13.61 25.41 18.87 38.94h-1.89c-10.07-17.55-18.62-35.57-24.97-54.82-6.4 2.43-12.89 4.66-19.04 7.7l12.51-1.51c-21.54 6.51-47.19.67-66.06-11.43 12.81-18.84 41.73-23.35 61.54-14.06-2.16-12.01-11.88-19.25-21.12-25.91-6.33 5.05-10.39 12.17-15.95 17.96-16.74 17.16-42.46 14.8-64.22 18.85-6.63 1.47-6.13-6.91-5.14-11.09 3.52-18.61 11.95-39.63 30.42-47.68-14.28 1.94-24.45 13.66-38.22 16.82-14.53 1.54-24.7-10.81-36.56-16.88-13.56-5.94-27.51-11.21-40.4-18.54 21.11-23.82 56.48-26.46 84.33-13.76-6.45-13.22-15.95-24.99-20.54-39.05 18.52 5.02 39.26 11.07 51.22 27.27-.63-9.05.51-18.1 2.98-26.8-9.9 2.15-20.44 6.15-30.5 2.79-7.81-3.17-5.02-13.1-5.33-19.65-16.09-.62-23.23-18.76-11.08-29.69-13.25 16.54 17.57 38.94 26.81 18.77-5.21-4.56-8.41-11-13.75-15.35-6.71-3.43-11.08 4.53-15.63 8 2.21-3.56 5.18-6.59 7.26-10.22-19.26-8.59-42.25-18.43-49.2-40.25l2.09-1.57c2.97 12.53 12.93 22.83 24.53 28.05-5.56-5.35-12.57-9.06-17.4-15.19 14.77 12.23 32.32 19.3 48.38 29.5-2.63-11.21-13.89-22.1-8.59-33.91 7.46-7.95 7.27-21.01 17.98-26.08-11.05-2.68-12.97 11.14-14.24 18.91 0-5.83.39-12.09 4.33-16.76 8.1-10.15 10.4-26.31 24.08-30.95m-50.55 76.78c5.64 3.56 11.53 6.85 17.96 8.74-4.86-4.82-11.54-6.91-17.96-8.74m66.78 52.39c-5.96 22.63-5.85 51.47 15.31 66.67 11.52-11.95 21.58-26.1 27.2-41.81 3.74-11.32-4.14-20.97-12.31-27.66l-.84 4.48a128.75 128.75 0 0 1 5.16 2.81c-2.66-.4-5.27-1.08-7.79-2.04 7.92-10.88-7.22-19.79-6.67-31.47-6.36 9.9-12.33 20.08-20.06 29.02m-38.85-12.82c-.72 3.36-1.34 6.76-1.7 10.19 2.31-2.99 3.95-6.41 5.22-9.95l-3.52-.24m33.45 47.55c.35-10.2 1.7-20.31 2.42-30.47-4.21 9.41-4.95 20.52-2.42 30.47m-52.42-29.24c6.05 12.48 12.75 25.05 20.47 36.49 15.23 6.61 28.72 16.24 41.7 26.43-10.35-14.21-9.7-34.69-24.01-46.1-11.75-7.37-24.79-13.08-38.16-16.82m-59.1 46.72c19.39 9.98 36.45 23.73 56.08 33.25 6.41 5.42 15.52 6.06 22.4 1.1 12.85-8.3 27.09-15.09 42.8-14.63-14.01-6.81-33.38-6.83-41.68-21.97-4.76-9.69-17.22-8.99-26.19-11.72-18.84-5.38-38.46 2.63-53.41 13.97m77.81-8.39c11.72 7.22 22.9 15.44 35.29 21.52-9.85-9.76-22.48-16.48-35.29-21.52m3.58 4.49c3.64 8.95 12.89 13.58 21.99 14.91-6.78-5.72-14.71-9.86-21.99-14.91m-85.83 8.08c10.75 5.18 21.63 10.11 32.56 14.88-8.74-7.49-19.79-11.44-29.02-18.24l-3.54 3.36m127.25 4.6c.73 3.98 3.3 7.19 7.68 6.86a18.84 18.84 0 0 0-7.68-6.86m2.24 9.16c4.89 3.09 10.17 5.48 15.4 7.94l-.64-3.09c-4.84-1.87-9.7-3.72-14.76-4.85m-16.46 8.65c-16.44 11.75-21.69 32.89-26.12 51.53 30.08-.41 59.71-11.56 79.59-34.72-15.43-10.43-33.92-29.59-53.47-16.81m-28.91 52.08c5.83-16.88 9.7-35.18 21.53-49.43-13.95 12.18-21.65 31.11-21.53 49.43m77.35-46.67c1.64 4.25 4.95 7.52 9.08 9.38-2.07-3.93-5.13-7.28-9.08-9.38m39.83 17.02c6.61 4.49 14.63 6.02 22.24 8.02-7.12-3.34-14.18-7.73-22.24-8.02m-17.1 5.27c2.38-.69 4.62-1.75 6.62-3.21-2.54.23-5.47.52-6.62 3.21m-61.55 20.71c13.47-1.8 26.22-8.8 34.04-20.05-10.59 7.94-21.29 15.88-34.04 20.05m21.94 3.86c12.86.43 27.09-1.17 38.76 4.99-15.69-2.01-33.9-6.94-48.03 2.65 11.2 1.92 22.06 5.12 32.62 9.25 10.85 3.67 20.87-3.73 30.82-6.94-5.95-24.17-38.85-26.56-54.17-9.95m-10.23 1.53c7.83-2.16 14.67-6.8 21.27-11.36-7.81 1.98-15.96 4.98-21.27 11.36m8.21 9.86c5.37 2.7 11.21 4.41 17.22 4.79-5.39-2.67-11.3-3.96-17.22-4.79z"/>
		<path d="M147.7 679.89l6.17 7.84c-3.58-1.23-6.13-3.89-6.17-7.84zm14.24 23.48c4.9-9.92 19.73-25.06 28.85-11.01 6.02.77 16.13-6.42 17.97 3.97 3.33 13.06 8.83 26.6 6.14 40.26-.75-15.33-3.64-30.79-10.11-44.8-9.81 2.65-19.94 5.11-28.69-1.91-5.64 3.53-8.9 9.55-14.16 13.49m15.65-15.52c3.31 3.13 7.52 5.03 11.92 6.07-2.04-4.76-6.9-7.03-11.92-6.07zm-113.54 8.07c12.81 1.89 25.59-12.32 37.37-3.25-8.1-3.73-16.44-.55-23.98 2.87-5.93 3.05-14.61-.94-18.95 4.99-1.05 6.61 1.87 13.11 5.41 18.53-8.37-2.2-15.71.91-13.11 10.67-3.36-7.37.28-14.34 8.84-12.88-5.52-6.55-7.36-20.66 4.42-20.93zm159.64 28.78c-4.13-8.48-.13-18.54 2.23-27.09.2 9.1-2.63 17.94-2.23 27.09zm-49.91-20.95c7.4-5.57 13.26 8.42 21.15 3 16.6-5.83 16.33 17.89 16.74 28.47-4.04-8.8-.06-26.15-12.55-27.87-7.63 4.75-14.34.62-21.1-3.16-8.34 3.5-15.91 10.12-25.85 8.1-5.35 6.76-4.83 16.12-9.96 22.87-9.41 9.94-4.28 24.79-1.53 36.44-10.07-14.12-4.81-32.73 4.35-45.73-4.65 3.7-7.47 8.99-10.1 14.2 3.04-11.31 12.77-19.64 17.1-30.75 7.55 4.67 15.63-1.25 21.75-5.57zm79.89 2.5l3.74-2.25c2.55 15.99-11.24 26.19-22.44 34.58-2.21-1.58-4.18-3.49-5.61-5.82 2.03.93 4.03 1.94 6 3.01 8.76-6.79 24.78-16.69 18.31-29.52zm-100.22 1.43c3.12-1.39 6.55-1.68 9.91-1.19-3.13 1.33-6.55 1.54-9.91 1.19z"/>
		<path d="M225.41 762.04c18.72-25.03 57.64-44.08 86.18-23.05-15.86 12.38-31.57 25.26-48.8 35.69 20.62-.83 43.22 3.06 58.94 17.41-8.51 7.83-20.27 10.39-29.48 17.21-16.48 12.02-33.01 25.23-53.4 29.68-8.13 9.85-19.41 16.05-29.87 23.2 10.51-12.4 23.11-25.76 39.85-28.44 16.16-5.78 30.37-16.12 43.43-27.03-16.05 5.36-27.1 19.69-42.84 25.7-9.34 2.76-18.98 4.44-28.62 5.61-12.25 7.58-14.78 23.47-24.91 33.15-.1-12.78-8.98-27.49.69-38.54 3.1-5.82 9.78-.81 14.19.49 13.26 3.9 27.65 1.25 40.59-2.72 12.29-6.21 22.04-16.66 34.7-22.31 11.86-3.29 22.72-9.4 33.33-15.52-24.22-20.48-61.99-19.85-89.09-5.28-16.76 8.66-25.16 26.15-36.52 39.97 9.82-20.12 25.5-39.2 47.18-47.01-5.52-.85-11.12-1.66-16.28-3.91 19.02 5.08 39.25-.12 53.66-13.4-17.15 7.74-36.7 17.26-55.61 9.25 32.68 6.55 62.28-13.52 86.44-33-8.01-6.1-18.29-3.06-27.44-4.86 5.56-.53 11.15-.28 16.71-.85-25.39-6.06-51.76 7.85-68.49 26.45 19.35-5.17 37.42-15.37 57.41-18.02-20.58 6.47-40.64 16.62-61.95 20.13m-28.16 71.71a60.86 60.86 0 0 0 11.13-.1c-3.42-1.48-8.74-4.45-11.13.1m-1.01 2.56c-5.46 9.4.31 20.94.94 31.06 7.69-10.12 11.69-22.85 21.9-31.18-7.49-.26-15.75-2.56-22.84.12z"/>
		<path d="M199.9 768.33c11.32-10.49 13.98-28.48 28.45-35.68-12.26 9.7-14.78 28.26-28.45 35.68zm2.82 55.77c29.25-13.01 59.53-25.13 91.7-28.09-17.93 5.22-36.8 7.25-54.25 14.23-12.56 4.38-24.27 11.41-37.45 13.86zm11.27 39.83c36.29-1.94 70.04-25.88 87.27-57.28-8.17 29.3-37.41 46.01-64.32 55.39-12.62 4.74-29.2 2.08-37.29 15.12.12-7.48 7.05-13.36 14.34-13.23zm-15.12 29.08c-4.77-15.28-11.16-30.99-9.39-47.3-1.04 16.52 7.44 31.25 9.39 47.3z"/>
	</g>
	<g transform="matrix(.908637 0 0 .903759 31.805417 36.45068)">
		<title>icon</title>
		<g transform="translate(-.06)" class="C">
			<title>shadow</title>
			<g transform="scale(-1 1)">
				<path d="M-794.03 671.252h53.867v337.166h-53.867z" fill="url(#E)"/>
				<path d="M-691.1 673.513h48.264v336.144H-691.1z" paint-order="fill" fill="url(#F)"/>
				<path d="M-589.39 673.267h47.97v335.418h-47.97z" paint-order="fill" fill="url(#G)"/>
			</g>
			<path d="M-794.03 671.252h53.867v337.166h-53.867z" transform="matrix(1, 0, 0, 1, 1030.6619873046875, 0)" fill="url(#B)"/>
			<path d="M339.568 673.513h48.264v336.144h-48.264z" paint-order="fill" fill="url(#C)"/>
			<path d="M441.276 673.267h47.97v335.418h-47.97z" paint-order="fill" fill="url(#D)"/>
		</g>
		<g>
			<title>top</title>
			<g>
				<title>center</title>
				<path d="M340.033 187.579H690.51v485.613H340.033z"/>
				<path d="M441.111 16.552h148.321v654.809H441.111z"/>
				<path d="M387.825 106.887h53.835v606.468h-53.835zm101.627-90.761h53.835v697.596h-53.835zm153.265 90.761h-53.835v606.468h53.835z" fill="#c3e1ec" stroke="#011422"/>
			</g>
			<path d="M237.079 327.721h52.736v343.885h-52.736zm556.381 0h-52.736v343.885h52.736z" stroke="#000" class="B"/>
		</g>
		<g>
			<title>base</title>
			<g>
				<ellipse cx="150.395" cy="735.067" rx="21.225" ry="22.778" class="B"/>
				<path d="M150.654 712.108h730.649v45.743H150.654z" class="B"/>
				<ellipse cx="-880.15" cy="735.067" rx="21.225" ry="22.778" transform="matrix(-1, 0, 0, 1, 0, 0)" class="B"/>
			</g>
			<g>
				<ellipse cx="149.669" cy="818.237" rx="21.225" ry="22.778" class="B"/>
				<path d="M149.928 795.278h730.649v45.743H149.928z" class="B"/>
				<ellipse cx="-880.87" cy="818.237" rx="21.225" ry="22.778" transform="matrix(-1, 0, 0, 1, 0, 0)" class="B"/>
			</g>
			<g>
				<ellipse cx="149.108" cy="903.034" rx="21.225" ry="22.778" class="B"/>
				<path d="M149.367 880.075h730.649v45.743H149.367z" class="B"/>
				<ellipse cx="-881.44" cy="903.034" rx="21.225" ry="22.778" transform="matrix(-1, 0, 0, 1, 0, 0)" class="B"/>
			</g>
			<g>
				<ellipse cx="149.669" cy="986.584" rx="21.225" ry="22.778" class="B"/>
				<path d="M 149.928 963.625 L 880.577 963.625 L 880.577 1009.37 L 149.928 1009.37 L 149.928 963.625 Z" class="B"/>
				<ellipse cx="-880.87" cy="986.584" rx="21.225" ry="22.778" transform="matrix(-1, 0, 0, 1, 0, 0)" class="B"/>
			</g>
		</g>
	</g>
</svg>
