<svg xmlns="http://www.w3.org/2000/svg" width="170.667" height="170.667" viewBox="0 0 128 128" xmlns:v="https://vecta.io/nano"><path fill="#0f3c5c" d="M0 0h128v61.94c-8.9.05-17.79.11-26.69-.15-.63-5.02-1.51-10.02-2.02-15.06L98.92 41l-6.68.09c.19 6.85.16 13.72-.26 20.56-.81 3.14-1.86 6.21-2.86 9.3-2.11-15.65-1.25-31.5-2.91-47.14-2.06-.05-4.12-.02-6.18.01L80 13.72l-6.36.61v-12l-6.43-.09-6.23-.04-5.94-.02-.23 11.62-6.48.13.01 9.91-6.24.21.05 15.97L0 40.07V0z"/><path d="M55.04 2.18l5.94.02-.01 81.82-6.1.01-.06-70.23c.02-3.87.13-7.74.23-11.62zm12.17.06l6.43.09v12l.04 74.74 6.35-.03 31.85.01a134.64 134.64 0 0 1 1.33 4.46c-32.22 2.38-65.26 2.36-97.48.02a121.89 121.89 0 0 1 1.4-4.48l31.04-.03 6.77.02 6.02.02 6.38.02-.13-86.84m.69 81.83l-.1 4.91 5.43-.02-.08-4.91-5.25.02zm12.13-60.25l6.18-.01-.13 60.1-6.06.17.01-60.26zM29.97 41.11l6.04-.02.03 42.92H29.9l.07-42.9zm62.27-.02l6.68-.09.37 5.73c-.4 12.41-.2 24.82-.26 37.23l-6.32.26c-.21-7.52-.72-15.04-.73-22.57.42-6.84.45-13.71.26-20.56zm-72.25 63.99c-4.27.93-5.69-5.27-.91-5.15 29.96-.5 60-.15 89.97-.16 3.41-.77 3.16 2.85 3.72 5.14-30.92.51-61.86.28-92.78.17zm.01 20.96c-5.12.82-5.1-6 0-5.26l91.84.05 1.44 4.28c-30.97 2.24-62.22.5-93.28.93z" fill="#011422"/><path d="M60.98 2.2l6.23.04.13 86.84-6.38-.02.01-5.04.01-81.82zM48.33 13.93l6.48-.13.06 70.23.07 5.01-6.77-.02.12-4.92.05-60.26-.01-9.91zm25.31.4l6.36-.61.03 10.1-.01 60.26.01 4.96-6.35.03-.04-74.74z" fill="#c3e1ec"/><path d="M42.1 24.05l6.24-.21-.05 60.26-6.19-.25.05-43.83-.05-15.97zm-20.15 91.81c-4.31 1.58-8.92-5.13-2.9-5.75l92.96-.07 1.08 4.3c-30.04 3.46-60.82.48-91.14 1.52z" fill="#011523"/><path d="M86.21 23.81c1.66 15.64.8 31.49 2.91 47.14 1-3.09 2.05-6.16 2.86-9.3.01 7.53.52 15.05.73 22.57l6.32-.26.26-37.23c.51 5.04 1.39 10.04 2.02 15.06 8.9.26 17.79.2 26.69.15V128H0V40.07l42.15-.05c.21 14.61.06 29.22-.05 43.83l6.19.25-.12 4.92c-10.35-.06-20.7.02-31.04.03a121.89 121.89 0 0 0-1.4 4.48c32.22 2.34 65.26 2.36 97.48-.02a134.64 134.64 0 0 0-1.33-4.46c-10.62.01-21.23-.12-31.85-.01l-.01-4.96 6.06-.17c.35-20.03-.2-40.07.13-60.1m-56.24 17.3l-.07 42.9h6.14l-.03-42.92-6.04.02m-9.98 63.97l92.78-.17c-.56-2.29-.31-5.91-3.72-5.14-29.97.01-60.01-.34-89.97.16-4.78-.12-3.36 6.08.91 5.15m1.96 10.78c30.32-1.04 61.1 1.94 91.14-1.52l-1.08-4.3c-30.98-.06-61.99-.23-92.96.07-6.02.62-1.41 7.33 2.9 5.75M20 126.04c31.06-.43 62.31 1.31 93.28-.93l-1.44-4.28-91.84-.05c-5.1-.74-5.12 6.08 0 5.26zm47.9-41.97l5.25-.02.08 4.91-5.43.02.1-4.91z" fill="#033557"/><path fill="#043456" d="M54.87 84.03l6.1-.01-.01 5.04-6.02-.02-.07-5.01z"/></svg>