<svg xmlns="http://www.w3.org/2000/svg" width="1365.333" height="1365.333" viewBox="0 0 1024 1024" xmlns:v="https://vecta.io/nano"><path fill="#103d5c" d="M0 0h1024v227c-111.03 0-222.05-.02-333.08.01-.06-12.67.85-25.39-.67-38.01-15.74-.5-31.45.63-47.17.31-1.97-25.48.05-51.12-2.48-76.56l-.06-2.88c-17.11-1.28-34.28.21-51.4-.88-.52-29.82-.1-59.68.05-89.52-16.54-2.68-33.42-.17-50.1-1.48l-10.8-.21c-6.5-.99-13.09-1-19.58.01a195.47 195.47 0 0 1-5.4.07c-21.58-.83-43.37.54-64.99 1.42-.92 29.54.19 59.11-.43 88.64-3.09.4-6.18.9-9.28 1.2-13.85.45-27.72-.1-41.56.63l-.14 1.92c-2.94 25.28.33 50.87-1.23 76.28-15.62 1.46-31.35 1.78-47.01.98-1.02 12.66-.06 25.36-.54 38.04L0 227V0z"/><path d="M438.32 19.28c21.62-.88 43.41-2.25 64.99-1.42-5.18.23-10.36.41-15.54.4l-.26 664.02c-.27-3.32-.74-6.62-1.14-9.91-14.81-.06-29.62.46-44.43.44-.2 13.04-1.38 26.05-1.15 39.09l44.87-.02 1.77-2.83-.09 3.51c17.43.17 34.87.55 52.3.07l-.55-694.64c16.68 1.31 33.56-1.2 50.1 1.48l-.05 89.52-.78 597.48c-2.29-11.8-.94-23.84-1.59-35.77-14.58 2.63-29.34 1.94-44.07 2.15-.99 12.99-.74 26.03-1.7 39.02 15.87.83 31.78-.56 47.65.45 17.16 1.02 34.36.17 51.54.4l.51-13.21c.65 4.13 1.41 8.26 1.77 12.43l238.58.8c15.11-.17 25.95 17.37 19.72 30.95-3.97 9.21-14.03 14.36-23.75 14.49l-488.26.67c-76.23-.15-152.46.1-228.7-.21-8.69-.54-19.1-.07-25.21-7.49-7.86-8.13-8.01-21.45-.78-30.03 4.04-4.59 9.82-7.62 15.96-7.96 78.9-1.77 157.84-.39 236.77-1.18-1.18-12.97-.2-26.02-1.71-38.96-15.33-1.21-30.68-.52-46.02-.98-2.45-33.01.12-66.19-.72-99.27l-.07-149.78-.15-196.02c.48-12.68-.48-25.38.54-38.04 15.66.8 31.39.48 47.01-.98 1.56-25.41-1.71-51 1.23-76.28l.83 600.73c17.1.56 34.22.51 51.33.37l-.31-602.74c-3.38-.35-6.76-.74-10.15-.91 3.1-.3 6.19-.8 9.28-1.2.62-29.53-.49-59.1.43-88.64zm201.97 657.97l.31-564.5c2.53 25.44.51 51.08 2.48 76.56 15.72.32 31.43-.81 47.17-.31 1.52 12.62.61 25.34.67 38.01l-.18 195.97.28 207.03c-.52 13.87 1.1 27.86-1.17 41.62-15.53 1.82-31.19-.08-46.78.56-.95 1.67-1.91 3.33-2.78 5.06zM238.12 328.83c16.95-.85 34-1.57 50.93.07 2.25 31.3-.06 62.74.72 94.1v149.01c-1.6 32.79-.04 65.63-.58 98.44-13.41 3.89-27.51 1.67-41.24 2.31-3.73-.29-10.55.49-10.54-4.91-.36-14.6.15-29.24-.14-43.85V411c.47-27.39-.74-54.81.85-82.17zm502.53.81c16.73-4.16 34.81-.85 52.06-1.36.69 27.56.14 55.15.31 82.72l.01 219c-1.06 13.67 2.1 27.97-1.75 41.22-16.01 2.43-33.44 2.49-49.47.04-3.58-13.29-.35-27.72-1.6-41.45l-.23-206.83c.47-31.09-.93-62.35.67-93.34zM149 796.78l239.76-.55 465.24.1c13.19.26 28.01-3.16 39.55 5.14 13.83 8.22 10.11 31.24-3.71 37.4-10.61 4.93-22.49 2.08-33.7 2.47-16.63 1.03-33.3.09-49.95.53-214.79-.42-429.6.57-644.4-.3-11.71 1.83-25.59-1.73-31.26-13.03-6.43-13.57 3.25-31.04 18.47-31.76zm.01 83.99l637.82-.46 9.05.01c21.73-.33 43.43 1.06 65.16.32 11.95-.13 26.31-2.63 35.74 6.57 12.32 13.43 1.14 37.02-16.79 36.97-241.69 1.62-483.35-.24-725.04.88-11.21.99-23.16-6.14-25.37-17.6-3.25-12.29 6.36-26.58 19.43-26.69zm-1.61 83.83l729.09-.32c16.88-2.9 30.82 15.5 23.69 30.86-4.47 8.31-13.53 14.2-23.11 13.87-240.71 0-481.42.06-722.13-.02-10.83 1.02-20.83-6.17-25.05-15.83-4.9-12.48 4.69-26.76 17.51-28.56z" fill="#011422"/><path fill="#09293a" d="M508.71 17.79c6.49-1.01 13.08-1 19.58-.01a284.07 284.07 0 0 1-19.58.01z"/><path d="M487.77 18.26c5.18.01 10.36-.17 15.54-.4l5.4-.07a284.07 284.07 0 0 0 19.58-.01l10.8.21.55 694.64c-17.43.48-34.87.1-52.3-.07l.09-3.51c.2-8.92.37-17.85.08-26.77l.26-664.02zm-100.72 91.49c13.84-.73 27.71-.18 41.56-.63 3.39.17 6.77.56 10.15.91l.31 602.74c-17.11.14-34.23.19-51.33-.37l-.83-600.73.14-1.92zm201.31 596.72l.78-597.48c17.12 1.09 34.29-.4 51.4.88l.06 2.88-.31 564.5c-.2 7.42.02 14.85.41 22.26l-.51 13.21c-17.18-.23-34.38.62-51.54-.4l-.29-5.85z" fill="#c3e1ec"/><path d="M0 227l338.13-.03.15 196.02-48.51.01c-.78-31.36 1.53-62.8-.72-94.1-16.93-1.64-33.98-.92-50.93-.07-1.59 27.36-.38 54.78-.85 82.17H0V227zm690.92.01L1024 227v184.01c-76.99-.01-153.99 0-230.98-.01l-.31-82.72c-17.25.51-35.33-2.8-52.06 1.36-1.6 30.99-.2 62.25-.67 93.34h-49.24l.18-195.97z" fill="#0c3a5b"/><path d="M0 411h237.27v213L0 623.99V411zm793.02 0l230.98.01v218.98l-230.97.01-.01-219z" fill="#073759"/><path fill="#073859" d="M289.77 423l48.51-.01.07 149.78c-16.13-1.69-32.4-.37-48.58-.76-1.09-49.65-.18-99.36 0-149.01z"/><path fill="#073758" d="M690.74 422.98h49.24l.23 206.83c-2.04.74-4.13 1.34-6.26 1.72-14.01-3.41-28.64-.71-42.93-1.52l-.28-207.03z"/><path fill="#043557" d="M289.77 572.01c16.18.39 32.45-.93 48.58.76.84 33.08-1.73 66.26.72 99.27 15.34.46 30.69-.23 46.02.98 1.51 12.94.53 25.99 1.71 38.96-78.93.79-157.87-.59-236.77 1.18-6.14.34-11.92 3.37-15.96 7.96L0 721v-97.01l237.27.01c.29 14.61-.22 29.25.14 43.85-.01 5.4 6.81 4.62 10.54 4.91 13.73-.64 27.83 1.58 41.24-2.31.54-32.81-1.02-65.65.58-98.44z"/><path fill="#033457" d="M691.02 630.01c14.29.81 28.92-1.89 42.93 1.52 2.13-.38 4.22-.98 6.26-1.72 1.25 13.73-1.98 28.16 1.6 41.45 16.03 2.45 33.46 2.39 49.47-.04 3.85-13.25.69-27.55 1.75-41.22l230.97-.01V843c-42.36-.04-84.74.06-127.09-.07-7-.33-10.51 9.62-17.95 6.2-7.08-3.28-13.57 1.33-20.3 2.14-9.65-4.74-20.52-8.59-31.03-3.73-9.41 1.05-6.3 13.86-14.29 16.82-5.81 3.35-12.4.36-17.82-2.28-3.13 5.82-2.61 12.47.36 18.24l-9.05-.01c-5.26-14.06 2.81-35.94 19.36-38.44 16.65-.44 33.32.5 49.95-.53 11.21-.39 23.09 2.46 33.7-2.47 13.82-6.16 17.54-29.18 3.71-37.4-11.54-8.3-26.36-4.88-39.55-5.14-155.08.02-310.13.53-465.24-.1 1.48-12.47-.28-24.9 0-37.38l488.26-.67c9.72-.13 19.78-5.28 23.75-14.49 6.23-13.58-4.61-31.12-19.72-30.95-79.53.02-159.04-.98-238.58-.8-.36-4.17-1.12-8.3-1.77-12.43-.39-7.41-.61-14.84-.41-22.26.87-1.73 1.83-3.39 2.78-5.06 15.59-.64 31.25 1.26 46.78-.56 2.27-13.76.65-27.75 1.17-41.62z"/><path fill="#033557" d="M542.7 672.85c14.73-.21 29.49.48 44.07-2.15.65 11.93-.7 23.97 1.59 35.77l.29 5.85c-15.87-1.01-31.78.38-47.65-.45.96-12.99.71-26.03 1.7-39.02z"/><path fill="#043456" d="M441.94 672.81l44.43-.44 1.14 9.91c.29 8.92.12 17.85-.08 26.77l-1.77 2.83c-14.95.24-29.91.14-44.87.02-.23-13.04.95-26.05 1.15-39.09z"/><path fill="#003356" d="M0 721l134.07.12c-7.23 8.58-7.08 21.9.78 30.03 6.11 7.42 16.52 6.95 25.21 7.49l228.7.21c-.28 12.48 1.48 24.91 0 37.38l-239.76.55c-15.22.72-24.9 18.19-18.47 31.76 5.67 11.3 19.55 14.86 31.26 13.03l644.4.3c-16.55 2.5-24.62 24.38-19.36 38.44-212.6.05-425.27-.23-637.82.46-13.07.11-22.68 14.4-19.43 26.69 2.21 11.46 14.16 18.59 25.37 17.6l725.04-.88c17.93.05 29.11-23.54 16.79-36.97-9.43-9.2-23.79-6.7-35.74-6.57-21.73.74-43.43-.65-65.16-.32-2.97-5.77-3.49-12.42-.36-18.24 5.42 2.64 12.01 5.63 17.82 2.28 7.99-2.96 4.88-15.77 14.29-16.82 10.51-4.86 21.38-1.01 31.03 3.73 6.73-.81 13.22-5.42 20.3-2.14 7.44 3.42 10.95-6.53 17.95-6.2L1024 843v181H0V721m147.4 243.6c-12.82 1.8-22.41 16.08-17.51 28.56 4.22 9.66 14.22 16.85 25.05 15.83l722.13.02c9.58.33 18.64-5.56 23.11-13.87 7.13-15.36-6.81-33.76-23.69-30.86-243.02-.3-486.12-.67-729.09.32z"/></svg>