<?xml version="1.0" encoding="utf-8"?>
<svg xmlns="http://www.w3.org/2000/svg" width="1280" height="640" viewBox="0 0 1280 640">
	<style>.B{fill:#011422}.C{fill-opacity:.35}</style>
	<defs>
		<linearGradient x1="-767.097" y1="671.252" x2="-767.097" y2="1008.418" id="B" href="#J">
			<stop offset="0"/>
			<stop offset="1" stop-color="#fff" stop-opacity="0"/>
		</linearGradient>
		<linearGradient x1="363.7" y1="673.513" x2="363.7" y2="1009.657" id="C" href="#J">
			<stop offset="0"/>
			<stop offset="1" stop-color="#fff" stop-opacity="0"/>
		</linearGradient>
		<linearGradient x1="465.261" y1="673.267" x2="465.261" y2="1008.685" id="D" href="#J">
			<stop offset="0"/>
			<stop offset="1" stop-color="#fff" stop-opacity="0"/>
		</linearGradient>
		<linearGradient x1="-767.098" y1="671.252" x2="-767.098" y2="1008.418" id="E" href="#J">
			<stop offset="0"/>
			<stop offset="1" stop-color="#fff" stop-opacity="0"/>
		</linearGradient>
		<linearGradient x1="-666.963" y1="673.513" x2="-666.963" y2="1009.657" id="F" href="#J">
			<stop offset="0"/>
			<stop offset="1" stop-color="#fff" stop-opacity="0"/>
		</linearGradient>
		<linearGradient x1="-565.402" y1="673.267" x2="-565.402" y2="1008.684" id="G" href="#J">
			<stop offset="0"/>
			<stop offset="1" stop-color="#fff" stop-opacity="0"/>
		</linearGradient>
		<path id="H" d="M-794.03 671.252h53.867v337.166h-53.867z"/>
		<path id="I" d="M149.928 795.278h730.649v45.743H149.928z"/>
		<linearGradient id="J" gradientUnits="userSpaceOnUse"/>
		<linearGradient gradientUnits="userSpaceOnUse" x1="640" y1="0" x2="640" y2="640" id="gradient-0">
			<stop offset="0" style="stop-color: rgb(7.0588% 23.922% 36.471%)"/>
			<stop offset="1" style="stop-color: rgb(0% 15.694% 27.463%)"/>
		</linearGradient>
	</defs>
	<path d="M0 0h1280v640H0z" stroke="#000" style="fill: url(&quot;#gradient-0&quot;);">
		<title>back</title>
	</path>
	<g fill="#3c6380" style="" transform="matrix(0.670398, 0, 0, 0.639949, 0, 0.543676)">
		<title>tree</title>
		<path d="M34.15 1.51c9.46 18.98 30.57 28.66 39.79 47.66 11.09 19.16 7.98 54.25-16.9 59.86 22.85-8.69 27.81-42.37 13.16-60.21-14.21-13.16-29.52-25.7-35.8-44.78-15.42 27.61-14.72 66.91 8.44 90.14 4.8 4.27 13.28 10.9 19.05 4.73 5.34-7.56-.73-16.45-6.15-22.01 1.85 5.1 4.54 9.84 6.29 14.98-10.22-19.64-21.7-39.85-21.49-62.73 4.65 9.76 2.79 21.49 8.21 31.12 4.11 11.51 15.05 19.57 17.26 31.79.99 9.32-10.62 14.21-17.42 8.43C17.48 79.36 15.26 31.5 34.15 1.51m7.57 14.39c6.55 12.99 19.19 21.3 29.47 31.12-7.7-12.13-19.3-21.16-29.47-31.12zm38.26 86.13c17.93-15.68 42.64-26.85 66.74-23.21-26.74.85-56.14 9.99-72.1 32.72-5.68 12.54 11.11 12.14 18.45 8.46 24.3-11.01 47.89-25.85 75.44-26.84-21.05 6.26-43.65 10.25-62.11 23.32-12.42 8.51-34.85 12.62-43.78-2.22l8.94 6c-.61-7.26 2.76-13.85 8.42-18.23zm67.31-23.1c16.81-3.53 33.26 11.78 48.84 5-11.61 14.33-30.96 19.15-42.87 33.34-18.23 23.83-59.37 32.89-80.6 8.48 20.1 12.51 49.06 17.47 68.43.36 14.71-13.79 29.67-27.65 47.93-36.68-13.15-6.06-27.81-7.21-41.73-10.5z"/>
		<path d="M14.42 105.4c23.04.65 46.21 10.07 62.4 26.79 31.12 24.81 73.59 8.87 108.79 14.48-34.71-1.07-73.88 10.33-105.04-9.68 2.96 18.11 20.13 32.73 37.58 36.86 34.07 3.74 62.58-19.51 93.2-30.03-2.37 2.27-5.16 4.04-8.11 5.45 3.68 6.16 6.35 12.88 7.06 20.07 6.14-5.74 7.14-14.23 9.42-21.84.93 8.17-2.42 16.34-7.94 22.27-6.88 7.12-5.29 17.92-9.26 26.47-.6-1.21-1.17-2.43-1.7-3.66-.43 3.78-.66 7.59-.76 11.41l-1.99-.07c1.74-17.27 18.35-36.9 3.65-53.81-14.68 4.05-23.73 17.31-37.43 23.19-12.06 5.23-25.68 7.32-38.69 5.04 20.33.17 42.41-3.93 56.73-19.59-21.82 9.19-44.64 21.67-69.21 16.44 6.18 12.77 2.47 26.95 2.07 40.39 18.21 5.68 34.65 15.94 49.41 27.89 3.93 3.05 4.88 8.14 5.96 12.7 6.54-33.81 35.16-60.79 68.28-68.4 18.73-4.03 40.58-13.54 58.67-3.98-20.17-4.77-40.85.79-60.15 6.7-18.61 5.04-35.67 15.94-47.47 31.27 26.1-24.79 63.87-27.64 96.86-37.36-31.24 14.54-72.23 12.67-95.96 41.41-8.93 12.25-14.28 27.24-16.87 42.12 32.62-25.88 64.99-52.84 101.41-73.18-35.48 23.85-69.76 49.77-103.2 76.42-.5-3.99-1.16-8.01-2.89-11.67 2.68 11.73-2.24 22.29-4.71 33.39 3.95 12.85-.28 25.71-4.73 37.8-5.02 12.92 2.2 25.81 3.28 38.7-13.2-19.27-3.75-41.41.76-61.56-4.94 8.36-6.8 17.99-8.71 27.38-2.14-14.26 10.96-25.72 8.03-39.71-9.62 1.21-19.29-1.99-28.85-.11-20.07 7.2-35.04 27.26-57.37 28.05 15.27 5.4 32.21 6.37 46.36 14.65-27.47-11.37-58.41-12.78-85.7-23.12 9.22 1.5 18.08 4.95 27.5 5.37-.15-6.29-.91-12.57-.51-18.86-15.95-1.68-26.75-16.3-42.65-18.14-5.82-.34-11.25-2.55-16.3-5.32 17.01-3.41 31.76-13.82 48.57-16.84-14.36 5.02-27.4 13.08-42.4 16.37 17.52 2.86 31.74 13.92 47.28 21.33 8.32 4.37 11.32-6.04 15.78-10.79-8.06-7.09-25.37-10.5-20.73-24.74 5.18-13.3 21.98-20.23 22.37-35.9 6.66-12.97 24.73-13.68 37.52-11.66.26-15.69 6.98-39.15-11.91-46.65 6.87 13.58-.76 30.3 2.31 45.18-3.94-11.68-.52-24.31-1.45-36.39-14.71-.21-25.5 12.48-39.99 13.25-26.63-.52-50.17-22.87-53.12-49.19-.94-11.85-8.65-28.99 4.55-36.59m-.64 2.54c3.35 1.96 6.9 3.55 10.59 4.76-1.43-4.86-6.16-5.62-10.59-4.76m10.08.14c14.61 22.51 31.1 47.29 56.68 58.05-24.78-5.23-38.57-31.42-54.01-49.68-4.16-3.61-12.03-8.33-16.74-3.64-3.4 18.64 4.59 37.3 15 52.43 7.66 10.99 21.29 19.76 35.08 15.66 12.11-3.51 24.61-7.51 37.24-3.88-7.79-15.94-19.1-29.88-25.83-46.38-11.1-14.45-30.01-20.32-47.42-22.56m53.13 28.91c.72 2.17 1.67 4.26 2.9 6.2-.77-2.15-1.73-4.23-2.9-6.2m-64.05 12.16c5.25 17.94 19.32 33.22 37.55 38.26 14.36 6.46 28.51-2.97 40.83-9.58-16.42-4.28-31.79 9.76-48.14 3.97-15.07-4.97-23-19.69-30.24-32.65m79 13.71c1.87 4.7 4.24 9.16 6.42 13.72l2.97.07c-1.02-5.75-4.71-10.47-9.39-13.79M77.7 228.47c.06 15.5-16.97 22.2-21.59 35.6-5.05 13.42 13.01 15.59 19.93 22.85 17.62-8.78 38.21-9.71 57.5-8.43-18.55 2.78-39.29-.23-56.19 9.88-4.74 5.76-12.63 12.08-11.08 20.27 3.21 4.68 6.38 13.15 13.45 11.09 16.65-2.71 30.5-12.8 44.32-21.72 4.65-3.49 11.9-3.8 14.49-9.62l-6.72-.68c4.37-6.75 2.22-14.81 3.63-22.2 4.37-10.53 15.29-16.06 24.57-21.65 2.36 2.05 4.74 4.09 7.24 5.98-15.32-16.99-37.88-30.63-61.2-32.85-10.09-.43-23.76 1.04-28.35 11.48m58.99 38.97c-.78 6.2.47 12.62-1.75 18.66l3.74.76c-1.15-13.67 12.39-22.54 24.72-17.28-5.28.51-10.69.41-15.77 2.13 6.52.52 13.04-.24 19.56-.17-.58-8.76.45-19.31-6.95-25.63-9.35 5.03-19.79 10.96-23.55 21.53m4.19 18.38c8.58-1.74 18.42-3.94 23.63-11.68-9.59-1.62-24.92-2.21-23.63 11.68m-1.3 1.88l-.6 3.24c9.89-1.2 26.04 2.37 27.16-11.81-8.15 4.7-17.09 8.01-26.56 8.57m4.29 4.7c6.05.02 14.48 4.62 18.61-1.7-6.09 1.51-12.36 1.83-18.61 1.7m-77.99 19.43c-.85 5.48 2.7 9.28 7.85 10.28-2.44-3.56-4.99-7.04-7.85-10.28z"/>
		<path d="M155.64 117.58c14.97-10.7 36.18 2.04 45.05 15.77 4.7 8.63 16.08 7.66 22.4 13.59 2.7 11.9-5.82 22.84-8.29 34.21 4.48-.39 7.64 2.86 10.56 5.73 4.85-11.86 17.75-16.15 27.98-22.1-6.65 9.17-20.78 9.84-25.41 21.1-2.86 7.04-6.95-2.47-11.28-3.14-1.54 1.84-3.02 3.74-4.62 5.52 1.48-12.6 9.02-23.63 10.08-36.26.92-7.25-8.14-6.82-12.6-9.42-11.91-7.1-23.07-15.45-33.78-24.26-5.79-4.97-13.56-2.32-20.09-.74m21.41-.56c6.67 5.82 13.44 11.67 21.06 16.22-4.75-7.72-12.63-13.18-21.06-16.22zm82.6 99.56c9.04 1.22 14.35 9.65 19.64 16.18 7.67 11.11 17.28 22.07 19.77 35.68-1.91-2.98-3.51-6.14-5.04-9.33 17.11 37.74 14.62 87.61-12.31 120.21 23.42-33.99 28.45-80.34 10.95-118-5.09-17.44-16.76-33.23-34.32-39.47l-8.98 75.39c-.53-21.9 5.76-43.36 5.4-65.31-7.78 7.92-13.44 17.66-21.43 25.4-15.08 15.62-39.22 22.08-59.93 17.99 22.28.55 46.54-4.26 61.4-22.42 7.79-10.54 18.98-19.36 22.47-32.41 6.62.58 11.11 5.94 16.75 8.8-3.48-5.58-9.1-9.06-14.37-12.71zM59.69 251.04c2.13-3.86 5.34-6.96 9.13-9.17-2.63 3.44-5.68 6.55-9.13 9.17zm198.88-6.23c8.79-1.52 7.84 10.03 10.15 15.6 15.76 36.36 2.33 76.19 4.96 114.14-6.96-35.62 9.2-73.49-4.89-108.39-2.6-7.54-9.44-13.13-10.22-21.35m1.62.83c.94 4.03 3 7.68 5.82 10.7-.83-4.04-1.67-8.75-5.82-10.7zm-88.48 57.04c-3.6-9.75 1.67-23.53 13.36-23.67 25.3-2.59 43.81 17.79 62.91 30.81-.01-4.03.14-8.06.61-12.06.73 6.52-1.49 14.47 4.35 19.22l-3.99.41c4.9 24.02 13.5 47.93 30.09 66.19-6.8-5.65-12.42-12.61-18.94-18.61-10.94-12.72-13.1-30.58-12.3-46.77-7.57 2.71-17.01 1.97-23.55 6.11-6.89 25.11-9.48 52.58-4.33 78.27-6.32-7.31-3.68-17.76-4.26-26.59.01-17.49-.3-35.84 7.18-52.08-17.16 6.3-35.95 12.38-53.72 4.56 1.98.02 3.96.14 5.94.23-.86-7.59-4.01-14.77-4.61-22.34 2.51-7.92 12.98-8.16 19.9-9.24-5.66 3.76-13.36 3.28-18.3 8.22 1.28 7.76 2.26 16.71 6.17 23.4 24.03 6.69 46.3-11.05 70.12-13.01-2.3-8.01-10.98-10.65-17.91-13.28-15.23-6.79-28.54-18.92-45.42-21.4-11.4-.28-13.71 12.79-13.3 21.63m18.11-22.62c15.93 5.13 29.05 16.02 44.44 22.14-12.1-11.16-27.64-21.12-44.44-22.14m59.37 45.85c.69 14.31 3.51 30.56 14.94 40.39-6.51-12.89-10.89-26.59-14.94-40.39zm59.67 23.55c19.5-39.06 66.53-58.83 108.62-51.81-37.19-1.44-79.35 8.91-100.45 42.33 21.61-2.31 39.36-15.3 57.44-25.96-14.59 14.73-34.65 23.96-55.1 27.31-4.99.32-7.32 5.03-10.51 8.13z"/>
		<path d="M409.54 301.48l3.37.78c-23.31 26.41-53.09 48.52-88.17 55.67-8.37 1.4-19.23-1.04-25.15 6.58-5.98 8.5-12.12 16.98-16.74 26.32 31.89-26.26 85.92-31.25 115.95.35 4.3 4.85 13.3 19.32 1.21 19.08-25.26-3.44-51.83 2.14-72.65 17.15-10.78 8.32-25.76 8.62-37.91 3.27-12.38-6.23-26.03-.49-39.1-1.32-8.5 12.05-17.26 23.89-27.85 34.18-31.4 45.98-32.96 104.58-24.06 157.79-12.52-53.24-8.5-114.21 24.09-159.88 5.42-6.48 12.24-11.8 16.54-19.19-12.66 1.29-25.19-.37-36.12-7.16 1.29 3.32 2.75 6.57 4.34 9.76l3.41-5.38a189.46 189.46 0 0 0-.9 9.82c1.73-2.59 3.43-5.2 5.26-7.72-.89 4.83-3.61 8.94-6.74 12.62-3.1-17.83-19.63-29.56-21.97-47.76-3.99-9.1 2.49-17.03 5.19-25.21-12.59-13.2-3.58-33.57-15.61-47.48 11.15 8.3 8.34 22.81 10.65 34.58 8-12.66-.55-25.77-8.51-35.72 10.44 7.19 16.88 22.14 10.55 34.07-3.4 5.59 2.31 10.37 5.56 14.33-12.07 17.45-3.46 47.54 16.49 54.9 1.97-2.57 4.09-5.02 6.41-7.28-1.4 3.14-2.97 6.2-4.62 9.21l2.01.64c3.25-5.71 6.16-11.68 10.52-16.66-7.86-.56-16.12.04-23.42-3.45 10.19-2.9 20.87-3.26 31.4-3.23 6.78-.84 14.28-4.97 20.61-.29-7.86-1.1-16.53-.33-22.86 4.92 7.66-.74 15.28-2.01 23.01-1.9 4.39-5.86 10.98-9.49 15.4-15.3-23.6-7.79-48.61-.75-67.51 14.45 17.3-18.58 45.57-23.55 69.26-15.53 10.98-10.27 16.81-24.27 25.15-36.46 7.9-10.81 22.75-6.47 33.88-10.25 30.98-8.89 60.55-27.39 79.63-53.3m-113.16 82.01c-5.41 3.35-13.33 6.91-11.74 14.68 31.25-1.58 62.49-5.14 93.84-4.06-31.08 3.41-62.99 3.38-94.33 5.79l-1.48-8.09c-1.63 1.62-3.13 3.36-4.7 5.04 4.98 15.4 25.24 1.9 37.2 4.34-10.72 2.59-21.74 3.21-32.64 4.57 4.37 3.65 9.03 6.97 12.91 11.16-4.56 3.52-9.59 6.35-14.68 9.01 14.64 5.8 33.16 10.51 46.57-.63 22.21-16.97 51.01-19.01 77.88-17.52-2.18-11.48-10.76-20.64-20.66-26.26-26.71-16.35-61.44-11.93-88.17 1.97m-24.42 19.21a238.39 238.39 0 0 0 8.02 2.34c-1.06-2.08-2.16-4.13-3.26-6.17-1.61 1.24-3.18 2.55-4.76 3.83m-20.11 25.21c14.41.28 29.77-1.38 41.08-11.26-6.16-5.64-13.35-10.95-21.79-12.22-7.97 6.26-12.75 15.79-19.29 23.48m-42.32-8.89c7.02.19 17.13 4.09 21.86-2.76-7.35.1-14.81.51-21.86 2.76m9.11 16.21c11.34-2.81 28.24-1.44 33.46-14.08-12.76-.87-30.32-2.25-33.46 14.08m-3.28 3.78c10.43 2.87 27.1 5.71 30.81-7.98-10.29 2.45-21.06 4.09-30.81 7.98zM34.99 314.63c12.87 15.14 16.51 36.28 30.72 50.69 14.77 20.39 41.44 23.59 64.41 27.46 15.29 1.88 30.48 10.41 45.96 4.88-2.36-7.46-6.9-13.9-10.28-20.9 10.37 11.97 15.84 27.29 18.99 42.61 5.01 20.31 14.63 39.24 18.08 59.99 1.34-5.16 1.45-10.5.99-15.78.84 3.44 2.2 7 1.37 10.58-11.03 32.12-21.77 65.41-20.28 99.84-1.65 21.77 9.68 41.42 13.15 62.31-20.32-41.92-19.48-90.89-4.18-134.28 5.82-14.74 8.59-31.25.97-45.96-7.9-18.33-11.75-37.9-17.3-56.97-6.26 1.02-12.65 2.69-19 1.42-25.94-6.53-52.95-8.6-77.99-18.51 15.08 12.19 33.22 20.55 52.56 22.88-18.37.37-34.34-9.51-49.66-18.15-17.07 3.24-36.73 5.11-51.89-5.49 14.63 5.47 31.13 9.72 46.26 3.51-12.28-4.17-18.84-20.56-33.39-18.07-15.52 5.42-28.56 15.97-41.47 25.85 22.2 1.35 41.83 12.57 62.87 18.46 14.9 4.12 30.39-.18 43.87-6.75-7.12 7.38-17.96 9.11-27.71 10.09-21.82 1.42-40.42-12.27-61.15-16.41 16.98 8.93 35.43 14.88 54.15 18.93C47.96 416.24 25.84 398 0 393.24v-.77c13.28-9.86 26.62-19.95 41.83-26.65 8.22-3.35 15.78 2.8 23.23 5.39-12.07-17.74-20.91-37.26-30.07-56.58m29.73 58.1c3.23 4.79 8.11 8.16 13.45 10.21-3.21-4.8-8.01-8.32-13.45-10.21z"/>
		<path d="M46.73 323.99c5.5 4.16 10.12 9.91 17.36 11.05 15.07 6.19 28.25 16.2 41.94 24.91 13.88 12.69 33.94 13.21 48.89 24.18 5.99 4.88 13.53 7.18 19.6 11.89-20.8-7.04-40.83-16.36-59.56-27.86-26.34-7.66-50.9-22.94-68.23-44.17m13.24 11.04c13.33 13.3 30.39 22.79 48.17 28.82-15.19-10.76-30.84-21.77-48.17-28.82m67.88 37.93c8.33 6.56 18.49 10.47 28.44 13.87-8.16-6.86-18.63-10.12-28.44-13.87zm115.09-36.86l.98-.04c1.59 17.27 1.8 34.63 1.03 51.95-.35 4.84 5.32 6.1 8.85 7.45 4.77-7.6 5.67-17.26 12.29-23.72.39 8.99.01 18.68-4.85 26.56 1-6.96 3.65-13.74 2.79-20.88-4.14 5.68-5.26 12.89-9.29 18.67-3.99-.04-7.71-1.52-10.96-3.74l-2.79 4.08c2.21-20.03 1.91-40.19 1.95-60.33zm-114.23 4.69c15.8 6.99 27.34 21.32 36.6 35.45-11.27-12.72-21.72-26.56-36.6-35.45zm59.09 80.76c12.35 8.28 13.76 25.88 19.31 38.85-8.4-11.79-9.83-27.41-19.31-38.85zM245.04 625c-9.55-34.96-1.05-73.21 23.53-100.07.06 15.42 9.3 28.73 12.57 43.45-6.84-11.6-9.41-25.11-14.55-37.47-10.76 28-32.68 57.42-18.91 88.53 9.58 15.62 13.3 33.4 18.9 50.51 6.05-2.95 12.13-5.85 18.35-8.46-11.8-6.84-17.79-21.48-15.71-34.75 2.59 12.4 4.49 30.74 19.83 33.34-21.64-17.62-22.65-50.18-9.14-73.15 3.56-5.61 3.66-12.27 1.27-18.35l3.51 6.65c3.18-4.9 5.63-10.33 9.9-14.43.09 20.51 9.31 39.34 12.77 59.29 6.28-28.73 29.77-47.64 49.4-67.48-1.16 22.62 5.29 46.07-1.83 68.28-2.88 9.87-9.17 18.11-13.87 27.1 30.33-18.29 66.3-18.49 100.43-15.64-19.21 3.06-38.94-2.11-58.07 2.13-19.05 4.18-38.95 10.71-52.8 25.08 29.31 2.7 57.41-7.92 82.67-21.67-17.8 12.8-39.33 21.86-61.5 22.99-9.06 1.25-18.48-.91-27.27 2.19 30.4 12.62 66.78 9.64 93.62-9.97 11.78-5.44 18.66-17.44 30.01-23.33-19.04 16.78-34.76 39.66-60.09 47.38-20.29 3.48-41.39-.43-60.45-7.74-13.75-6.76-30.36-7.42-44.77-2.54 15.33 1.7 30.85 2.31 46.04 5.16 24.53 7.21 50.13 23 57.45 48.97-30.53-3.57-63.62 2.98-92-11.3-10.71-6.35-18.92-16.5-22.99-28.26-2.89-8.15-14.05-5.89-19.1-1.2-9.69 10.4-15.44 23.99-18.35 37.79 6.58-5.76 12.27-13.64 21.37-15.37-8.86 6.02-16.67 13.21-24.28 20.7 2.77-15.4 8.46-30.62 18.62-42.72 2.59-3.08 6.12-9.92.34-11.61-13.47 4.4-18.74 18.71-27.41 28.56-5.45-15.49 16.89-21.18 21.07-33.43-1.75-9.3-.19-25.07-13.17-25.68-7.62-4.6-17.91-6.85-25.93-1.98-9.92 13.23-7.44 33.42-19.26 45.26l3.76-8.73c-3.95 4.28-7.6 9.1-13.07 11.55-1.99-7.82-2.34-15.94-2.75-23.96 2.78 6.92 2.19 14.5 3.27 21.75 18.01-8.68 12.63-31.35 23.8-45.05 5.07-7.77 15.65-4.22 23.33-5.76-6.05-6.51-22.12 3.86-21.92-8.52 1.24-16.16 3.05-35.09 16.27-46.26-5.71 9.04-11.37 18.41-12.88 29.22 5.03-8.07 8.5-16.99 13.56-25.05 7.69 15.34 16.13 30.28 26.43 44.05m-.87-47c5.77-14.23 12.23-28.16 18.74-42.06-10.17 11.76-15.61 27.01-18.74 42.06m68.45 33.6c-5.72 15.56-3.24 32.87 3.49 47.68 11.73-24.01 20.79-49.58 25.58-75.84.02 25.83-7.22 51.06-17.85 74.48 12.4-8.56 22.03-21.06 28.26-34.71 8.97-21.13 2.59-44.3 2.75-66.35-16.12 16.4-35.56 31.71-42.23 54.74m-35.61-12.69c-8.23 20.15-4.82 50.37 16.67 60.62-15.67-30.23 5.13-62.74-.02-93.63-6 10.75-11.56 21.79-16.65 33.01m-58.49-14.84c-5.05 13.96-19.39 27.12-13.71 42.93l16.08-.09c.88-11.44-2.46-22.89-.34-34.26 2.64 13.39-.33 29.12 8.18 40.59 9.21-1.27 14.36 7.07 21.39 11.23-5.38-22.56-23.12-39.13-31.6-60.4m77.94.83l-1.55 8.84 2.75-2.02c-4.07 20.51-5.27 44.26 4.33 63.17 9.94-22.45 2.3-47.92-5.53-69.99m-5.37 61.04c1.18 6.26 5 16.58 13.22 11.97-2.4-2.34-6-3.88-6.63-7.52-4.91-18.02-5.17-36.97-3.02-55.43-4.14 16.58-6.12 34.01-3.57 50.98m26.86 16.39c10-15.85 16.5-34.04 19.88-52.46-5.76 17.81-13.77 34.83-19.88 52.46m-95.7-36.67c-2.12 5.43 5.36.43 0 0m26.8.32c2.59 10.2 5.57 20.82 12 29.33-2.23-10.37-6.74-20.17-12-29.33m-16.84 9.79c2.04.91 4.13 1.73 6.25 2.44-1.24-2.56-3.59-3.59-6.25-2.44m9.09 3.86c1.84 9.12 3.51 18.26 4.99 27.45 4.05-2.56 8.06-5.2 12.36-7.33.62 6.13-1.93 11.8-4.59 17.14 4.12-1.18 8.07-2.87 11.81-4.95-3.17-8.58-7.12-16.94-12.55-24.34.41 5.42 1.63 12.35-3.87 15.72-3.54-7.66.65-19.1-8.15-23.69m66.87.16c-.51 5.78.04 11.88 3.78 16.6-.76-5.64-2.17-11.16-3.78-16.6m24.53 28.33c12.71 6.34 27.31 7.84 41.32 8.61 18.9.99 35.33-10.8 47.88-23.73-25.59 18.8-58.82 23.81-89.2 15.12m-27.36-9.01l4.97.76c-1.1-2.26-2.25-4.49-3.44-6.7l-1.53 5.94m-54.4 7.07c1.37 2.04 2.78 4.07 4.23 6.07 1.05-3.11 1.75-6.33 2.15-9.57-2.15 1.12-4.28 2.27-6.38 3.5m14.85 6.76c7.22 5.25 12.42 12.45 18.03 19.24 27.39 22.56 65.75 11.78 97.29 22.52-6.7-.16-13.17-2.03-19.77-2.98-29.86-4.6-68.45.31-87.38-28.71 5.09 14.9 18.47 26.47 33.63 30.32 25.32 6.09 51.64 4.02 77.43 5.65-17.74-40.82-67.64-52.8-108.1-47.73 20.03 14.29 42.88 24.05 67.46 26.56a48.71 48.71 0 0 1-12.23-.77c1.78 1.25 3.49 2.6 5.21 3.95-22.6-9.55-49.55-12.72-68.36-29.08 8.13 4.51 16.02 9.75 25.19 11.98-8.99-3.6-18.65-16.43-28.4-10.95z"/>
		<path d="M263 566.01l1.13.04c-.08 5.72-.23 11.47.38 17.18 1.26-4.86 1.48-9.94 3.19-14.68.85 10.96-4.05 21.39-3.41 32.38-.87 20.83 4.21 41.07 7.64 61.44-12.08-30.35-8.99-64.28-8.93-96.36zm-128.13 103.2c9.28-8.35 10.73-22.32 20.28-30.44-7.06 11.65-11.12 26.54-22.88 34.44.58-7.16 3.43-14.51 9.88-18.33-2.95 4.49-6.68 8.76-7.28 14.33zm21.64-27.98c4.44-1.48-.3 4.59 0 0zm5.99 14.99c.5-3.3 2.23-6.14 5.16-7.79l-2.6 5.34 5.64-1.28c-2.31 2.03-5.2 3.16-8.2 3.73zm-38 17.25c10.7.03 24.55-1.64 30.7 9.39 7.23 6.93 1.37 16.9-4.37 22.57 1.96-7.09 9.43-15.21 2.8-22.03-5.54-9.86-17.95-7.29-27.36-8.86-11.69 3.1-15.54 16.18-21.27 25.41 6.91 3.73 14.83 2.76 22.18 1.12l-4.37-2.26c11.24-1.24 21.82 6.25 23.17 17.71-4.51-5.11-6.67-14.79-14.83-14.79-7.41 1.66-15.03 2.36-22.41 4.09-9 3.23-6.4 15.32-12.89 21.08-4.01 3.52-4.17 8.81-2.39 13.52.42-3.63.74-7.26 1.07-10.89-1.14 18.67 8.85 36.14 21.56 49.11 6.66-4.27 14.28-6.87 22.2-7.29-5.49 1.82-11.11 3.2-16.65 4.88 5.6-.48 11.51 2.06 16.88.3 8.97-7.96 14.73-21.07 27.72-23.41 14.52-3.09 26.79 11.82 25.2 25.59-1.72-12.38-11.06-27.63-25.59-23.83-16.5 2.46-19.51 28.99-37.92 23.34-13.44-.98-20.9 12.38-25.91 22.77-2.88 5.87 5.43 8.62 9.93 8.02 10.31-.99 23.29-.63 29.87-10.16 7.76-9.09 12.91-19.97 20.16-29.41 1.63 9.13 3.95 18.42 9.95 25.77 10.49-10.47 23.54-22.19 39.67-18.64 8.18-23.82 34.59-33.23 44.71-55.8-4.76 23-32.39 29.79-40.37 51.04-5.93 15.96-17.46 28.62-28.57 41.13 6.07-12.82 19.2-21.25 23.82-35.16-14.26-2.61-26.45 7.3-35.45 17.1l5.58 6.99c6.12-2.4 11.92-5.51 18.06-7.86-4.74 5.91-12.02 8.47-18.51 11.89-2.03-3.88-4.49-7.6-8.08-10.21 2.62 9.19 14.25 13.63 13.37 24.33-.88 20.93-16.78 37.27-30.07 51.98 18.95 5.09 33.66 18.05 45.02 33.55 13.48-4.1 27.71-4.23 40.05 3.26 17.05 6.12 34.94-1.01 50.36-8.33 26.37-13.55 38.78-42.63 46.7-69.59-15.11 1.28-28.23 10.03-43.21 12.13-16.68 2.35-27.94 15.78-40.86 25.14-12.08 8.16-22.22 18.86-31.42 30.08 15.16 2.82 29.8-3.8 42.92-10.63 17.79-9.94 34.67-21.86 48.67-36.73-13.9 25.22-41.8 38.89-68.29 47.24-7.76 1.99-16.82 5.18-24.26.65.97-6.44 7.3-10.03 11.06-14.83 11.3-11.09 20.44-25.45 35.46-31.89-6.63 6.92-15.46 11.38-21.33 19.1 20.63-15 40.19-35.64 67.36-36.96-7.38 2.79-15.32 3.95-22.38 7.6 16.75-2.26 31.48-12.2 48.59-12.61-4.52 23.57-15.92 46.31-33.51 62.83-24.27 20.15-60.98 28.98-89.77 13.15l-12.66 6.87c5.18 17.37 17.97 31.3 22.41 49.03 3.17 14.43 13.61 25.41 18.87 38.94h-1.89c-10.07-17.55-18.62-35.57-24.97-54.82-6.4 2.43-12.89 4.66-19.04 7.7l12.51-1.51c-21.54 6.51-47.19.67-66.06-11.43 12.81-18.84 41.73-23.35 61.54-14.06-2.16-12.01-11.88-19.25-21.12-25.91-6.33 5.05-10.39 12.17-15.95 17.96-16.74 17.16-42.46 14.8-64.22 18.85-6.63 1.47-6.13-6.91-5.14-11.09 3.52-18.61 11.95-39.63 30.42-47.68-14.28 1.94-24.45 13.66-38.22 16.82-14.53 1.54-24.7-10.81-36.56-16.88-13.56-5.94-27.51-11.21-40.4-18.54 21.11-23.82 56.48-26.46 84.33-13.76-6.45-13.22-15.95-24.99-20.54-39.05 18.52 5.02 39.26 11.07 51.22 27.27-.63-9.05.51-18.1 2.98-26.8-9.9 2.15-20.44 6.15-30.5 2.79-7.81-3.17-5.02-13.1-5.33-19.65-16.09-.62-23.23-18.76-11.08-29.69-13.25 16.54 17.57 38.94 26.81 18.77-5.21-4.56-8.41-11-13.75-15.35-6.71-3.43-11.08 4.53-15.63 8 2.21-3.56 5.18-6.59 7.26-10.22-19.26-8.59-42.25-18.43-49.2-40.25l2.09-1.57c2.97 12.53 12.93 22.83 24.53 28.05-5.56-5.35-12.57-9.06-17.4-15.19 14.77 12.23 32.32 19.3 48.38 29.5-2.63-11.21-13.89-22.1-8.59-33.91 7.46-7.95 7.27-21.01 17.98-26.08-11.05-2.68-12.97 11.14-14.24 18.91 0-5.83.39-12.09 4.33-16.76 8.1-10.15 10.4-26.31 24.08-30.95m-50.55 76.78c5.64 3.56 11.53 6.85 17.96 8.74-4.86-4.82-11.54-6.91-17.96-8.74m66.78 52.39c-5.96 22.63-5.85 51.47 15.31 66.67 11.52-11.95 21.58-26.1 27.2-41.81 3.74-11.32-4.14-20.97-12.31-27.66l-.84 4.48a128.75 128.75 0 0 1 5.16 2.81c-2.66-.4-5.27-1.08-7.79-2.04 7.92-10.88-7.22-19.79-6.67-31.47-6.36 9.9-12.33 20.08-20.06 29.02m-38.85-12.82c-.72 3.36-1.34 6.76-1.7 10.19 2.31-2.99 3.95-6.41 5.22-9.95l-3.52-.24m33.45 47.55c.35-10.2 1.7-20.31 2.42-30.47-4.21 9.41-4.95 20.52-2.42 30.47m-52.42-29.24c6.05 12.48 12.75 25.05 20.47 36.49 15.23 6.61 28.72 16.24 41.7 26.43-10.35-14.21-9.7-34.69-24.01-46.1-11.75-7.37-24.79-13.08-38.16-16.82m-59.1 46.72c19.39 9.98 36.45 23.73 56.08 33.25 6.41 5.42 15.52 6.06 22.4 1.1 12.85-8.3 27.09-15.09 42.8-14.63-14.01-6.81-33.38-6.83-41.68-21.97-4.76-9.69-17.22-8.99-26.19-11.72-18.84-5.38-38.46 2.63-53.41 13.97m77.81-8.39c11.72 7.22 22.9 15.44 35.29 21.52-9.85-9.76-22.48-16.48-35.29-21.52m3.58 4.49c3.64 8.95 12.89 13.58 21.99 14.91-6.78-5.72-14.71-9.86-21.99-14.91m-85.83 8.08c10.75 5.18 21.63 10.11 32.56 14.88-8.74-7.49-19.79-11.44-29.02-18.24l-3.54 3.36m127.25 4.6c.73 3.98 3.3 7.19 7.68 6.86a18.84 18.84 0 0 0-7.68-6.86m2.24 9.16c4.89 3.09 10.17 5.48 15.4 7.94l-.64-3.09c-4.84-1.87-9.7-3.72-14.76-4.85m-16.46 8.65c-16.44 11.75-21.69 32.89-26.12 51.53 30.08-.41 59.71-11.56 79.59-34.72-15.43-10.43-33.92-29.59-53.47-16.81m-28.91 52.08c5.83-16.88 9.7-35.18 21.53-49.43-13.95 12.18-21.65 31.11-21.53 49.43m77.35-46.67c1.64 4.25 4.95 7.52 9.08 9.38-2.07-3.93-5.13-7.28-9.08-9.38m39.83 17.02c6.61 4.49 14.63 6.02 22.24 8.02-7.12-3.34-14.18-7.73-22.24-8.02m-17.1 5.27c2.38-.69 4.62-1.75 6.62-3.21-2.54.23-5.47.52-6.62 3.21m-61.55 20.71c13.47-1.8 26.22-8.8 34.04-20.05-10.59 7.94-21.29 15.88-34.04 20.05m21.94 3.86c12.86.43 27.09-1.17 38.76 4.99-15.69-2.01-33.9-6.94-48.03 2.65 11.2 1.92 22.06 5.12 32.62 9.25 10.85 3.67 20.87-3.73 30.82-6.94-5.95-24.17-38.85-26.56-54.17-9.95m-10.23 1.53c7.83-2.16 14.67-6.8 21.27-11.36-7.81 1.98-15.96 4.98-21.27 11.36m8.21 9.86c5.37 2.7 11.21 4.41 17.22 4.79-5.39-2.67-11.3-3.96-17.22-4.79z"/>
		<path d="M147.7 679.89l6.17 7.84c-3.58-1.23-6.13-3.89-6.17-7.84zm14.24 23.48c4.9-9.92 19.73-25.06 28.85-11.01 6.02.77 16.13-6.42 17.97 3.97 3.33 13.06 8.83 26.6 6.14 40.26-.75-15.33-3.64-30.79-10.11-44.8-9.81 2.65-19.94 5.11-28.69-1.91-5.64 3.53-8.9 9.55-14.16 13.49m15.65-15.52c3.31 3.13 7.52 5.03 11.92 6.07-2.04-4.76-6.9-7.03-11.92-6.07zm-113.54 8.07c12.81 1.89 25.59-12.32 37.37-3.25-8.1-3.73-16.44-.55-23.98 2.87-5.93 3.05-14.61-.94-18.95 4.99-1.05 6.61 1.87 13.11 5.41 18.53-8.37-2.2-15.71.91-13.11 10.67-3.36-7.37.28-14.34 8.84-12.88-5.52-6.55-7.36-20.66 4.42-20.93zm159.64 28.78c-4.13-8.48-.13-18.54 2.23-27.09.2 9.1-2.63 17.94-2.23 27.09zm-49.91-20.95c7.4-5.57 13.26 8.42 21.15 3 16.6-5.83 16.33 17.89 16.74 28.47-4.04-8.8-.06-26.15-12.55-27.87-7.63 4.75-14.34.62-21.1-3.16-8.34 3.5-15.91 10.12-25.85 8.1-5.35 6.76-4.83 16.12-9.96 22.87-9.41 9.94-4.28 24.79-1.53 36.44-10.07-14.12-4.81-32.73 4.35-45.73-4.65 3.7-7.47 8.99-10.1 14.2 3.04-11.31 12.77-19.64 17.1-30.75 7.55 4.67 15.63-1.25 21.75-5.57zm79.89 2.5l3.74-2.25c2.55 15.99-11.24 26.19-22.44 34.58-2.21-1.58-4.18-3.49-5.61-5.82 2.03.93 4.03 1.94 6 3.01 8.76-6.79 24.78-16.69 18.31-29.52zm-100.22 1.43c3.12-1.39 6.55-1.68 9.91-1.19-3.13 1.33-6.55 1.54-9.91 1.19z"/>
		<path d="M225.41 762.04c18.72-25.03 57.64-44.08 86.18-23.05-15.86 12.38-31.57 25.26-48.8 35.69 20.62-.83 43.22 3.06 58.94 17.41-8.51 7.83-20.27 10.39-29.48 17.21-16.48 12.02-33.01 25.23-53.4 29.68-8.13 9.85-19.41 16.05-29.87 23.2 10.51-12.4 23.11-25.76 39.85-28.44 16.16-5.78 30.37-16.12 43.43-27.03-16.05 5.36-27.1 19.69-42.84 25.7-9.34 2.76-18.98 4.44-28.62 5.61-12.25 7.58-14.78 23.47-24.91 33.15-.1-12.78-8.98-27.49.69-38.54 3.1-5.82 9.78-.81 14.19.49 13.26 3.9 27.65 1.25 40.59-2.72 12.29-6.21 22.04-16.66 34.7-22.31 11.86-3.29 22.72-9.4 33.33-15.52-24.22-20.48-61.99-19.85-89.09-5.28-16.76 8.66-25.16 26.15-36.52 39.97 9.82-20.12 25.5-39.2 47.18-47.01-5.52-.85-11.12-1.66-16.28-3.91 19.02 5.08 39.25-.12 53.66-13.4-17.15 7.74-36.7 17.26-55.61 9.25 32.68 6.55 62.28-13.52 86.44-33-8.01-6.1-18.29-3.06-27.44-4.86 5.56-.53 11.15-.28 16.71-.85-25.39-6.06-51.76 7.85-68.49 26.45 19.35-5.17 37.42-15.37 57.41-18.02-20.58 6.47-40.64 16.62-61.95 20.13m-28.16 71.71a60.86 60.86 0 0 0 11.13-.1c-3.42-1.48-8.74-4.45-11.13.1m-1.01 2.56c-5.46 9.4.31 20.94.94 31.06 7.69-10.12 11.69-22.85 21.9-31.18-7.49-.26-15.75-2.56-22.84.12z"/>
		<path d="M199.9 768.33c11.32-10.49 13.98-28.48 28.45-35.68-12.26 9.7-14.78 28.26-28.45 35.68zm2.82 55.77c29.25-13.01 59.53-25.13 91.7-28.09-17.93 5.22-36.8 7.25-54.25 14.23-12.56 4.38-24.27 11.41-37.45 13.86zm11.27 39.83c36.29-1.94 70.04-25.88 87.27-57.28-8.17 29.3-37.41 46.01-64.32 55.39-12.62 4.74-29.2 2.08-37.29 15.12.12-7.48 7.05-13.36 14.34-13.23zm-15.12 29.08c-4.77-15.28-11.16-30.99-9.39-47.3-1.04 16.52 7.44 31.25 9.39 47.3z"/>
	</g>
	<g transform="matrix(0.2911, 0, 0, 0.276496, 240.941761, 173.070925)" style="">
		<title>icon</title>
		<g transform="translate(-.06)" class="C">
			<title>shadow</title>
			<g transform="scale(-1 1)">
				<path d="M-794.03 671.252h53.867v337.166h-53.867z" fill="url(#E)"/>
				<path d="M-691.1 673.513h48.264v336.144H-691.1z" paint-order="fill" fill="url(#F)"/>
				<path d="M-589.39 673.267h47.97v335.418h-47.97z" paint-order="fill" fill="url(#G)"/>
			</g>
			<path d="M-794.03 671.252h53.867v337.166h-53.867z" transform="matrix(1, 0, 0, 1, 1030.6619873046875, 0)" fill="url(#B)"/>
			<path d="M339.568 673.513h48.264v336.144h-48.264z" paint-order="fill" fill="url(#C)"/>
			<path d="M441.276 673.267h47.97v335.418h-47.97z" paint-order="fill" fill="url(#D)"/>
		</g>
		<g>
			<title>top</title>
			<g>
				<title>center</title>
				<path d="M340.033 187.579H690.51v485.613H340.033z"/>
				<path d="M441.111 16.552h148.321v654.809H441.111z"/>
				<path d="M387.825 106.887h53.835v606.468h-53.835zm101.627-90.761h53.835v697.596h-53.835zm153.265 90.761h-53.835v606.468h53.835z" fill="#c3e1ec" stroke="#011422"/>
			</g>
			<path d="M237.079 327.721h52.736v343.885h-52.736zm556.381 0h-52.736v343.885h52.736z" stroke="#000" class="B"/>
		</g>
		<g>
			<title>base</title>
			<g>
				<ellipse cx="150.395" cy="735.067" rx="21.225" ry="22.778" class="B"/>
				<path d="M150.654 712.108h730.649v45.743H150.654z" class="B"/>
				<ellipse cx="-880.15" cy="735.067" rx="21.225" ry="22.778" transform="matrix(-1, 0, 0, 1, 0, 0)" class="B"/>
			</g>
			<g>
				<ellipse cx="149.669" cy="818.237" rx="21.225" ry="22.778" class="B"/>
				<path d="M149.928 795.278h730.649v45.743H149.928z" class="B"/>
				<ellipse cx="-880.87" cy="818.237" rx="21.225" ry="22.778" transform="matrix(-1, 0, 0, 1, 0, 0)" class="B"/>
			</g>
			<g>
				<ellipse cx="149.108" cy="903.034" rx="21.225" ry="22.778" class="B"/>
				<path d="M149.367 880.075h730.649v45.743H149.367z" class="B"/>
				<ellipse cx="-881.44" cy="903.034" rx="21.225" ry="22.778" transform="matrix(-1, 0, 0, 1, 0, 0)" class="B"/>
			</g>
			<g>
				<ellipse cx="149.669" cy="986.584" rx="21.225" ry="22.778" class="B"/>
				<path d="M 149.928 963.625 L 880.577 963.625 L 880.577 1009.37 L 149.928 1009.37 L 149.928 963.625 Z" class="B"/>
				<ellipse cx="-880.87" cy="986.584" rx="21.225" ry="22.778" transform="matrix(-1, 0, 0, 1, 0, 0)" class="B"/>
			</g>
		</g>
	</g>
	<g transform="matrix(0.421175, 0, 0, 0.426566, 595.808725, 225.179096)" style="">
		<title>title</title>
		<g>
			<title>fount</title>
			<g>
				<title>f</title>
				<path d="M306.81 118.8c9.2-16.14 24.97-32.95 45.23-31.02 14.94.09 25.62 15.11 24.43 29.3-.83 11.31 6.26 27.38-5.96 34.4-7.76 5-16.83 11.77-26.55 8.48-9.93-7.76-3.47-21.9-4.07-32.47-9.12 5.39-14.26 17.05-18.27 26.86l-1.22-.7c-1.73 6.03-6.64 10.68-7.24 17.14 15.87.44 32.08-1.86 47.69 1.44 9.52 3.52 6.26 17.65-1.97 20.99-20.2 8.21-42.37 9.46-63.76 11.79-2.58 6.91-5.58 13.65-8.31 20.5l-1.52-.96c-.77 3.29-.41 7.46-3.54 9.58-1.26 3.07-2.78 6.12-3.1 9.48l-1.41-1.3c-6.43 19.58-16.5 38.37-23.82 58-7.7 10 1.63 22.23-3.42 32.73-9.23 8.97-28.43 7.75-33.79-5.15-3.52-7.38-.21-15.14 1.13-22.55l1.31 1.28c5.72-18.33 15.09-35.74 23.58-52.76 1.46-4.9 4.47-9.27 5.12-14.41l1.3 1.06c.96-7.14 5.94-12.88 6.88-19.99l1.94.97c.62-4.96 3.93-9.07 4.42-14.09-7.52-.68-18.52 2.79-22.6-5.77-4.07-11.22 5.82-19.75 10.46-28.83 9.81-2.75 20.34.28 30.18-1.85 8.63-17.51 16.76-35.34 26.88-52.15m22.2-4.59c2.1-.35 4.35-.66 5.91-2.27 6.37-.11 15.12-1.28 18.8 5.31 4.59 8.62-1.33 17.86-.42 26.84 1.87-.42 3.61-1.26 4.59-2.99 1.02-.45 2-.98 3.01-1.48 3.62-4.55 1.96-12.83.88-18.36-1.04-6.22-.09-14.84-7.05-17.88-9.47-2.8-21.19 1.94-25.72 10.83m-69.42 72.36l-1.29-.19-1.91 2.6c-.55 1.55-1.09 3.1-1.48 4.7 13.82-.73 27.62-2.63 41.37-4.43l2.93.07c5.94-.17 13.06-.91 17.91-4-19.07-.62-38.72-1.06-57.53 1.25m-29.57 135.81c.88.75 1.74 1.51 2.57 2.31 1.84-.02 3.66-.31 5.44-.78l-2.08-3.98c-1.6-4.59-1.51-9.41-.49-14.12-4.89 3.42-7.51 11.12-5.44 16.57z" class="B" style="fill: rgb(195, 225, 236);"/>
				<path d="M329.01 114.21c4.53-8.89 16.25-13.63 25.72-10.83 6.96 3.04 6.01 11.66 7.05 17.88l-1.47-1.65c-1.17-4.78-1.15-10.52-4.7-14.25-6.63-3.91-14.28.53-20.54 3.2.63.58 1.27 1.15 1.93 1.71l-2.08 1.67c-1.56 1.61-3.81 1.92-5.91 2.27zm-93.24 206.47l.18-.75 2.08 3.98c-1.78.47-3.6.76-5.44.78l-2.57-2.31 5.75-1.7z" class="D" style="fill: rgb(66, 103, 128);"/>
				<path d="M337 110.27c19.05-6.25 23.2 17.71 18.24 30.98l2.65-.15c-.98 1.73-2.72 2.57-4.59 2.99-.91-8.98 5.01-18.22.42-26.84-3.68-6.59-12.43-5.42-18.8-5.31l2.08-1.67zm23.31 9.34l1.47 1.65c1.08 5.53 2.74 13.81-.88 18.36-.84-6.64-.46-13.34-.59-20.01zm-100.72 66.96c18.81-2.31 38.46-1.87 57.53-1.25-4.85 3.09-11.97 3.83-17.91 4l.33-2.32c-13.32-1.16-26.71 1.53-39.95-.43zm-4.68 7.11c.39-1.6.93-3.15 1.48-4.7 12.25 6.33 26.7-1.14 39.89.27-13.75 1.8-27.55 3.7-41.37 4.43zm-24.89 128.7c-2.07-5.45.55-13.15 5.44-16.57-1.02 4.71-1.11 9.53.49 14.12l-.18.75c-1.48-2.21-3.24-4.21-5.23-5.96l-.52 7.66z" class="C" style="fill: rgb(132, 160, 177); fill-opacity: 1;"/>
			</g>
			<g>
				<title>o</title>
				<path d="M406.23 193.23c13.1-10.99 25.2-30.06 44.6-27.1 10.4 8.03 26.81-1.69 35.64 10.39 16.53 15.57 6.56 40.51-5.28 55.7-12.2 13.72-26.56 26.64-44.32 32.39l-.62 1.85-7.19.9 2.82 1.28c-15.99 1.76-38.7 7.17-47.06-11.38-8.21-23.38 7.71-46.29 21.41-64.03m53.09-7.32c9.09 2.69 19.34 10.79 17.18 22.25 13.43-9.99-4.51-32.08-17.18-22.25m-18.96 16.4l1.25 1.36c-13.72 3.17-22.24 17.14-26.54 29.68-2.4 8.88 10.12 5.79 15.14 5.08l.81-1.78c12.68-5.27 25.29-14.53 30.39-27.61 2.19-12.76-13.81-7.56-21.05-6.73m-44.13 38.65c-3.17 12.59 13.44 22 22.96 13.63-5.67-1.39-11.15-2.94-15.66-6.94-1.29-2.46-2.7-4.85-4.35-7.08 1.94-4.33-4.18-3.91-2.95.39z" class="B" style="fill: rgb(195, 225, 236);"/>
				<path d="M459.32 185.91c12.67-9.83 30.61 12.26 17.18 22.25 2.16-11.46-8.09-19.56-17.18-22.25m3.46-.61c6.16 3.47 11.53 7.93 15.44 13.91 2.3-8.84-6.98-16.64-15.44-13.91zm-66.55 55.66c-1.23-4.3 4.89-4.72 2.95-.39-4.78 8.93 5.2 17.99 14.1 15.11-3.33-2.55-7.89-3.97-9.75-8.03 4.51 4 9.99 5.55 15.66 6.94-9.52 8.37-26.13-1.04-22.96-13.63z" class="C" style="fill: rgb(132, 160, 177); fill-opacity: 1;"/>
			</g>
			<g>
				<title>u</title>
				<path d="M652.88 161.87c8.29-11.35 35.81-6.39 29.39 10.48-14.39 21.68-30.7 42.97-38.63 68.04 11.02-3.93 24.8-10.27 35.78-2.82 4.05 16.15-16.41 26.34-28.89 30.76l1.04 1.46c-15.79 9.52-45.95 6.11-43.06-17.79-7.12 5.44-15.53 8.89-22.65 14.18-8.07 3.12-16.05 6.87-24.84 7.36l3.95 1.13c-12.5-.69-30.36 5.81-37.87-7.88-8.1-12.28-1.24-27.77 3.21-40.21l1.37.88c7.55-21.86 22.58-41.57 39.46-57.35 9.92-9.64 32.93 2.58 25.29 16.31-12.55 17.44-31.55 33.63-33.82 55.96 4.71-.05 9.34-1.02 14-1.68l-1.3-1.49c7.73-.2 13.18-6.71 19.64-10.22 22.64-19.21 40.86-42.98 57.93-67.12m-90.47 40.15c-9.79 13.4-18.11 28-23.43 43.76-.75 4.67-2.4 10.98 2.04 14.29l2.8.08c3.7 3.74 11.62-.33 16.94-.35l.02-2.65c-2.09-1.39-4.52-1.94-7.01-1.82-15.08-15.65 1.39-36.98 10.24-51.54 4.44-7.01 11.21-12.35 14.88-19.82-7.51 3.38-11.48 11.79-16.48 18.05m75.97 4.91c-4.36 5.07-11.48 9.73-12.24 16.59 8.79 5.4 8.96-6.94 12.78-11.69 4.38-6.11 8.21-12.84 11.04-19.76-4.69 4.14-8.92 9.2-11.58 14.86m-13.36 38.69c-7.49 11.76 8.07 19.65 16.07 10.98-7.61.94-14.81-3.06-16.07-10.98z" class="B" style="fill: rgb(195, 225, 236);"/>
				<path d="M638.38 206.93c2.66-5.66 6.89-10.72 11.58-14.86-2.83 6.92-6.66 13.65-11.04 19.76-.21-1.64-.42-3.26-.54-4.9zm-75.97-4.91l1.6 1.77c-8.85 14.56-25.32 35.89-10.24 51.54l.61.55c-11.88-4.46-9.68-19.6-5.46-28.89-4.66 10-12.48 21.95-7.9 33.08-4.44-3.31-2.79-9.62-2.04-14.29 5.32-15.76 13.64-30.36 23.43-43.76z" class="D" style="fill: rgb(66, 103, 128);"/>
				<path d="M562.41 202.02c5-6.26 8.97-14.67 16.48-18.05-3.67 7.47-10.44 12.81-14.88 19.82l-1.6-1.77zm-8.64 53.31c2.49-.12 4.92.43 7.01 1.82l-.02 2.65c-5.32.02-13.24 4.09-16.94.35 4.22.07 8.44-.24 12.62-.81l.16-2.44-2.22-1.02-.61-.55z" class="C" style="fill: rgb(132, 160, 177); fill-opacity: 1;"/>
			</g>
			<g>
				<title>n</title>
				<path d="M704.65 174.64c14.62-16.84 38.96-21.07 60.14-18.47 10.19 3.13 18.28 13.87 16.74 24.82 5.38-2.18 10.72-4.33 16.45-5.46l-4.02-1.14c13.47-1.04 28.61-5.04 41.17 1.5 6.41 8.43 3.27 21.08.54 30.62l-1.3-1.07c-3.15 12.82-10.93 24.23-14.88 36.92 12.19-1.47 22.23-18.64 36.13-9.95 8.38 3.58 6.33 15.6-.25 19.95-10.58 8.44-20.4 19.84-33.99 22.98.43.47.88.94 1.33 1.41-12.87 3.95-29.9 9.38-40.02-3.36-5.01-10.41-.66-21.78 2.68-31.95l1.44 1.26c-.67-6.6 4.62-11.68 4.56-18.21l1.22.96c2.58-5.25 4.87-10.75 4.86-16.71-6.4-1.22-12.01 2.41-16.86 6.07-24.02 11.93-30.05 40.8-47.95 58.84-5.82 5.14-14.9 9.53-22.21 4.86-7.76-5.67-4.45-16.33-2.15-23.99l1.39.98c1.29-9.29 8.91-15.99 11.71-24.8l1.29.64c4.52-14.5 14.69-26.79 17.67-41.62-11.79 3.61-24.53 6.53-36.76 3.77-5.1-4.89-3.66-14.12 1.07-18.85m24.18 1.33c4.85 1.56 9.49-1.42 14.31-1.77l.61-.47c10.49-.33 15.99 10.81 12.84 19.96l-1.16-.19c-7.66 23.81-22.59 44.73-32.29 67.53 6.17-4.11 8.43-12.14 12.71-17.97 7.96-11.04 14.1-23.64 24.77-32.48l3.34-2.02c-3.02-5.37-9.23-9.6-3.48-15.94 5.4-4.68 9.76-15.58 2.43-20.5-10.09-5.6-24.43-1.51-34.08 3.85m63.62 15.71l-.24 1.93c13.93-3.71 25.08 10.22 19.21 23.18l-.09-.79c-2.68 7.92-6.32 15.72-8.28 23.78-1.44 6.07-5.25 11.57-5.3 17.9l-1.72-1.43c-4.47 12.95 11.41 9.15 18.88 7.43l-2.83-1.34c1.96-.36 5.29.65 5.32-2.31-5.37.1-11.48-2.44-13.14-7.9-.86-11.07 4.23-21.02 7.55-31.2 5.79-10.48 12.04-21.61 13.04-33.72-11.23-3.13-22.06.44-32.4 4.47z" class="B" style="fill: rgb(195, 225, 236);"/>
				<path d="M792.45 191.68c10.34-4.03 21.17-7.6 32.4-4.47-1 12.11-7.25 23.24-13.04 33.72-.09-1.39-.29-2.76-.39-4.14 5.87-12.96-5.28-26.89-19.21-23.18l.24-1.93m6.84.35c9.22.88 15.77 8.87 16.09 17.91 3.73-6.81 7.28-14.18 7.87-22.01-7.99-.2-17.19-.79-23.96 4.1zm-42.7 1.66c2.17 1.06 3.44-1.05 4.6-2.56l-.71 1.49c-5.75 6.34.46 10.57 3.48 15.94-1.13.66-2.24 1.34-3.34 2.02.75-1.14 1.44-2.32 2.15-3.49-2.74-2.02-8.12-8.39-9.96-2.43-4.47 13.33-14.2 24.54-16.96 38.4-4.28 5.83-6.54 13.86-12.71 17.97 9.7-22.8 24.63-43.72 32.29-67.53l1.16.19m-22.48 47.63c-1.56 2.96 3.34.15 0 0z" class="D" style="fill: rgb(66, 103, 128);"/>
				<path d="M728.83 175.97c9.65-5.36 23.99-9.45 34.08-3.85 7.33 4.92 2.97 15.82-2.43 20.5l.71-1.49c2.15-5.05 7.05-11.9 2.42-16.83-5.86-2.84-14.17-4.34-19.86-.57l-.61.47c-4.82.35-9.46 3.33-14.31 1.77zm82.5 40.03l.09.79.39 4.14c-3.32 10.18-8.41 20.13-7.55 31.2-.53-4.11-.78-8.24-1.21-12.35 1.96-8.06 5.6-15.86 8.28-23.78z" class="C" style="fill: rgb(132, 160, 177); fill-opacity: 1;"/>
			</g>
			<g>
				<title>t</title>
				<path d="M974.77 105.81c7.07-12.45 32.44-5.28 28.05 9.89-7.36 16.19-18.24 31.03-25.31 47.41 11.48 1.72 23.9-2.02 34.83 1.59 12.88 7.38 3.02 24.9-9.51 24.86-.2.63-.38 1.26-.54 1.9l-7.03.65 1.44 1.72c-12.96 1.27-26.05 2.3-39.22 2.7-7.24 16.28-19.36 30.64-23.98 47.8 9.51 1.3 18.11-4.43 27.55-3.65l-4.01-1.28c11.12-3.04 35.08-7.87 33.2 10.54-9.13 19.69-33.35 23.76-51.47 31.58-10.96.49-22.75 2.69-33.24-1.17-13.64-6.85-12.81-24.51-7.65-36.62 7.97-14.76 17.55-28.77 24.11-44.19-17.51 3.41-24.41-20.94-14.18-31.71 9.66-7.98 23.41-2.71 34.85-4.21 10.74-19.25 19.53-39.69 32.11-57.81m-57.35 72.97c.04 1.87.05 3.74.03 5.61 10.39 2.27 20.82-2.12 31.27-.47l-.17-2.32c5.86 1.4 12.21-.13 18.11-1.09 3.18.1 6.74.89 9.49-1.2-3.37-1.07-6.93-1.12-10.4-.74-16.13.67-32.36-2.29-48.33.21m-7.25 86.08c4.68 4.33 12.44 4.12 18.05 1.6 1.4-.04 2.81-.21 4.18-.57 11.3.5 23.06-5.45 32.63-11.49-7.02-1.22-14.5 4.04-21.93 4.54l.88.23c-2.2.38-4.36.9-6.5 1.5-12.22 1.96-23.07-9.93-18-21.82-7.31 5.6-12.17 16.9-9.31 26.01z" class="B" style="fill: rgb(195, 225, 236);"/>
				<path d="M917.42 178.78c15.97-2.5 32.2.46 48.33-.21 1.45.21 2.91.48 4.39.76l-3.48 1.18c-5.9.96-12.25 2.49-18.11 1.09-8.9-4.43-19.51-2.69-29.07-1.97l.73 4.67c9.32-2.2 18.83-2.17 28.34-2.7l.17 2.32c-10.45-1.65-20.88 2.74-31.27.47.02-1.87.01-3.74-.03-5.61zm-7.25 86.08c-2.86-9.11 2-20.41 9.31-26.01-5.07 11.89 5.78 23.78 18 21.82-10.24 4.61-19.75-4.91-21.85-14.41-3.07 5.48-8.61 13.8-3.1 19.34 5.11 1.28 10.47.66 15.69.86-5.61 2.52-13.37 2.73-18.05-1.6z" class="D" style="fill: rgb(66, 103, 128);"/>
				<path d="M965.75 178.57c3.47-.38 7.03-.33 10.4.74-2.75 2.09-6.31 1.3-9.49 1.2 1.16-.37 2.31-.78 3.48-1.18-1.48-.28-2.94-.55-4.39-.76zm-22.65 80.37c7.43-.5 14.91-5.76 21.93-4.54-9.57 6.04-21.33 11.99-32.63 11.49 7.34-2.48 15.22-3.51 22.09-7.28-3.52-.23-7.03.15-10.51.56l-.88-.23z" class="C" style="fill: rgb(132, 160, 177); fill-opacity: 1;"/>
			</g>
		</g>
		<g>
			<title>flower-line</title>
			<g>
				<title>flower-left</title>
				<path d="M60.84 309.3c4.45-6.92 12.13-8.35 19.81-6.55l-2.07 1.86c-1.69-1.26-3.83-.7-5.6.02-5.11.39-9.46 3.43-10.57 8.6l-1.05.6c-.21-1.51-.36-3.02-.52-4.53zm6.4.35c2.28-1.94 5.36-2.15 8.17-2.7l-.9 1.45c-1.01 1.69-2.28 3.2-3.62 4.64l-.77-.28-2.88-3.11zm53.91 2.88c3.99.75-2.35 3.37 0 0zm-62.21 4.23c2.64 1.31 3.65 3.94 2.8 6.74l-3.04.72.24-7.46zm60.17.77c4 .71-2.3 3.39 0 0zm48.83 2.79c10.25-4.51 16.97 7.17 20.44 14.97-1.7 4.22-.25 8.15 3.11 11.08l-2.5 5.31c4.8-4.1 9.86.5 8.42 6.08l-5.83-2.36-2.96-1.16-5.08-8.52c.3-2.69.22-5.42-.34-8.07 7.3-7.69-7.53-7.81-9.92-14.34-.86-.37-1.73-.72-2.6-1.06-1.1-.35-2.05-1-2.74-1.93zm.22 7.33c.85-.95 1.76-1.83 2.71-2.66 5.18 2.73 8.02 7.7 11.35 12.22-2.15-.92-4.3-1.87-6.23-3.18-1.26-1.25-2.46-2.56-3.75-3.77-1.32-.94-2.7-1.78-4.08-2.61zm-75.46 2.42l1.21-1c6.01 10.59 13.35 20.4 18.94 31.22l3.24-.05 1.92-.03.38 1.75c-.28 1.06-.59 2.12-.91 3.17l-4.32-2.42.66 3.56c-.58-.85-1.19-1.66-1.83-2.45-1.34-1.35-2.79-2.58-4.15-3.9-3.71-5.27-5.69-11.46-8.62-17.14-2.06-4.3-4.55-8.37-6.52-12.71zm62.63 12.34l1.51-1.01 1.31 6.33-3.44 1.61-2.47-4.79 3.09-2.14zm11.98 13.14c-.29-3.79-1-7.76.53-11.39-.46 3.96.04 7.99 1.21 11.79-1.27 2.15-2.58 4.27-3.76 6.48-.74-1.17-1.51-2.33-2.06-3.6l-.64-1.48-.46-2.86 5.18 1.06zm-18.26-10.72c2.57 3.2 4.22 6.98 5.73 10.77 2.03 6.44 3.12 13.15 2.73 19.92l-8.87.83c-3.81-.35-7.16-2.46-10.1-4.76 5.94 1.46 11.59 4.74 17.93 3.59.55-5.15-5.36-5.43-8.7-7.63l4.53-.42c.8-6.31-1.06-12.45-3.49-18.19.05-1.38.13-2.75.24-4.11zm62.37 8.27l2.54.54-1.43 6.64c-2.01.26-4.01 0-5.94-.55l2.05-2.64 2.78-3.99zm11.5 4.98c3.04-.28 1.62 3.22 1.84 5.07-.75-1.64-1.39-3.33-1.84-5.07zm-14.13 7.85c2.78 2.34 6.97 6.17 1.71 8.42l-2.11-4.1.4-4.32zM64.93 395.84c3.17-3.96 7.43-7.9 12.92-6.67-3.36 3.67-7 7.1-10.97 10.1l-1.95-3.43zm95.96 1.14c.92-1.84 2.59-3.07 4.38-3.97l.78 3.73 5.71-1.86c-4.6 4.26-11.92 4.89-14.66 11.24 1.06-3.12 2.03-6.32 3.79-9.14zm-67.03 8.85l4.35-2.04c-.32 3.41-1.91 6.45-4.22 8.94l-2.23-1.48c.07-2.01.62-3.99 2.1-5.42zm9.05 1.35l3.78-3.62 1.37 2.15c-4.56 5.16-9.62 9.92-15.4 13.71 1.01-5.54 6.97-8.1 10.25-12.24zm100.57-3.04l6.43-.18c-.95 1.7-1.74 3.78-.23 5.44l-.18.65-.63 2.74-.88.06-2.89.08c-1.94 3.72-2.94 7.83-3.24 12l-2.16-4.24-.25-.94c-.52 3.45-1.35 6.86-2.7 10.1a122.87 122.87 0 0 1-1.04-7.36c1.18-3.2 2.44-6.53 5.18-8.73 3.63-2.08 3.3-6.04 2.59-9.62zm-8.05 9.53l3.96-6.13c1.08 1.98.22 4.17-.23 6.19l-3.73-.06zm-143.62 3.01c.91-2.71 2.21-5.37 4.39-7.29l-.63 3.96 2.26 1.77-.36 1.3-1.95 6.57-3.71-6.31zm133.85-2.1c2.58 3.39 5.42 7.42 2.75 11.67-.76 1.54-1.74 3.04-3.13 4.09l-3.09.57c.81-1.59 1.65-3.17 2.5-4.73l-1.82-2.64c.11-1.73.2-3.45.38-5.17.71-1.32 1.58-2.55 2.41-3.79zm-43.32 4.93l3.23 2.27-.42 3.47c.11 1.87-1.48 2.94-2.68 4.11-.88-2.48-1.49-5.04-2-7.62l1.87-2.23zm-30.19 6.04c1.99 3.06 2.31 6.98.97 10.37-1.79-3.2-1.47-6.9-.97-10.37zm-55.65 5.28c1.55-2.18 3.95-3.49 6.66-3.17-3.18.76-3.79 4.42-5.21 6.89 4.69-.92 9.44-1.48 14.12-2.41l1.38 2.65c-5.03 1.5-10.33 2.81-15.58 1.52l-.62-.46-2.9-2.26a84.57 84.57 0 0 1 2.15-2.76zm98.15 8.99c3.57-.67 7.13-1.41 10.58-2.56-2.05 1.8-4.44 3.15-7 4.09l2.87 2.56c-2.03.04-4.06-.01-6.08-.01l-1.9-1.89a85.43 85.43 0 0 1 1.53-2.19z" class="B" style="fill: rgb(195, 225, 236);"/>
				<path d="M80.65 302.75c1.49-1.52 3.15.44 3.36 2l-8.6 2.2c-2.81.55-5.89.76-8.17 2.7-1.44 1.41-3.07 2.6-4.83 3.58 1.11-5.17 5.46-8.21 10.57-8.6 1.73.68 4.09 1.62 5.6-.02l2.07-1.86zm-20.38 24.49c-5.67-4.52-2.5-12.76.57-17.94l.52 4.53c1.87 7.99 1.06 16.24 1.86 24.35l-.01.87c-2.56-3.41-2.99-7.7-2.94-11.81m-1.33-10.48c-.18 2.48-.23 4.97-.24 7.46l3.04-.72c.85-2.8-.16-5.43-2.8-6.74zm11.95-3.72c1.34-1.44 2.61-2.95 3.62-4.64 5.58-.1 12.6 3.59 10.06 10.16l-.31.9c-2.35-5.48-8.18-5.88-13.37-6.42zm50.27 3.72c4.12 1.51-2.78 3.93 0 0zm49.52 5.49l2.6 1.06-2.41 1.68c-.95.83-1.86 1.71-2.71 2.66a48.33 48.33 0 0 0-2.24 4.5l-2.27.6.66-3.06 1.71-.75c.18-3.07 1.53-5.79 4.66-6.69zm-76.77 6.82l2.07-1.57 3.69 5.9 2.34-1.86c-1.61 6.08 3.94 13.23 10.36 11.68l1.99-.44.19 2.23c-3.32 5.08 1.61 9.94 1.54 15.23l-3.24.05c-5.59-10.82-12.93-20.63-18.94-31.22zm82.08 4.96c1.93 1.31 4.08 2.26 6.23 3.18l.98.44c.56 2.65.64 5.38.34 8.07-2.37-4.12-8.04-6.2-7.55-11.69zm-28.29 9.29l1.45-3.68 3.09 4.91 2.47 4.79c2.87 2.41 6.04 4.64 7.88 8.01l.64 1.48-2.24-.32c.28 2.44.44 4.9.43 7.36l-.42-.63c-2.04-3.24-4.05-6.49-6.22-9.64-1.51-3.79-3.16-7.57-5.73-10.77-.11 1.36-.19 2.73-.24 4.11-.92-1.96-1.93-3.87-2.88-5.8l1.77.18zm43.79 3.05l.38-.83c5.25 2.78 6.65 8.72 9.02 13.66 1.53-3.91 1.67-8.17 3.17-12.07-.04 3.19.24 6.37.54 9.54.93-4.48 3.7-8.17 8.69-6.54l-1.42 2.28-3.17-1.76c-.55 1.74-1.19 3.46-1.92 5.15l1.86 1.29-2.05 2.64c-1.39 3.54.36 7.28 1.8 10.52.65 1.39 1.4 2.73 2.11 4.1a14.15 14.15 0 0 1-.13 5.76c-1.38-.7-2.75-1.4-4.09-2.17l-1.2-.8c-.26-.18-.78-.52-1.04-.69l2.2-1.8c-.79-3.5-2.12-6.83-3.68-10.05-.49-1.25.75-2.5.99-3.73-3.15.07-4.98 2.23-6.03 5l-3.32-2c-.95-2.8-1.85-5.62-2.62-8.47l5.83 2.36c1.44-5.58-3.62-10.18-8.42-6.08l2.5-5.31zm-22 21.2c3.54 2.6 8.44 2.97 11.27 6.58l1.03 1.12c-5.12-.46-10-2.92-12.3-7.7zm-68.34 32.69c4.26-2.05 8.02-5.36 12.76-6.25-2.68 2.97-4.74 6.43-7.22 9.55-1.22 1.24-2.51 2.41-3.78 3.62l-3.13-1.31 2.88-5.81-1.51.2zm105.2-.02c4.74-.9 6.71-7.77 12.13-5.77 6.34 5.75 1.1 15.44 4.65 22.6l-1.46 2.42c-1.31-7.27 1.4-15.25-2.12-22-1.46-2.08-4.05-1.67-6.25-1.82l-.26 3.2 5.47.33a97.67 97.67 0 0 1-4.01 6.06l-2.36-2.46-4.64.04.92-2.67a76.69 76.69 0 0 1-1.54.05l-.53.02zm-77.17 28.33c14.48-7.38 15-27.24 31.71-31.59-1.76 2.82-2.73 6.02-3.79 9.14-1.61 2.68-3.69 5.03-5.88 7.24l-.25-5.75c-2.48 2.82-4.74 5.81-7.16 8.69a19.57 19.57 0 0 0 .7 2.68c2.13-2.12 4.46-4.04 7.03-5.61-1.72 2.99-3.94 5.63-5.97 8.41a144.14 144.14 0 0 1-3.23-2.27l-1.87 2.23c-2.92 3.04-2.77 8.02 1.32 9.94-2.41.24-4.82.58-7.22.93l.2 5.91-5.34.93c1.31-.79 2.67-1.5 4.03-2.2l-1.89-4.69.73-1.56 2.32-.16-4.8-2-.64-.27zm61.54-17.81c.68-2.96 2.83-5.06 5.13-6.87l3.09 3.13.45.52-3.96 6.13 3.73.06 1.73.03c-2.74 2.2-4 5.53-5.18 8.73l-.24-.79-1.1-2.96.31-3.91c.06-1.15.06-2.31.06-3.45l-4.02-.62m3.37-3.58c-4.41 2.92 4.11 2.98 0 0zM57.25 435.85c-12.05-2.35-14.21-16.84-9.16-26.25l.28 2.37c-1.25 7.7-2.65 17.74 5.98 21.62l2.9 2.26zm150.74-23l.88-.06-1.76 9.04 3.17.96-3.6.46c-2.15-3.49-2.55-7.94 1.31-10.4zM55.52 422.99l1.95-6.57-.21 7.46-.76 6.95-4.65-4.57 3.67-3.27zm121.2 4.73c.73-3.96 2.43-7.94 6.53-9.35-.18 1.72-.27 3.44-.38 5.17l-4.51 4.38 2.79 6.14-3.52.7-2.13.45 1.19-4.97-3.9-1.23-.73-.22 4.66-1.07zm-97.28-.42l7.34-5.39 1.74 2.17c-2.47 2.27-4.64 4.86-6.46 7.69-1.11-.86-2.28-1.62-3.46-2.38l.32 3.57c-5.93 3.38-14.98 9.2-21.05 3.35 5.25 1.29 10.55-.02 15.58-1.52l-1.38-2.65c2.59-1.41 4.98-3.14 7.37-4.84z" class="D" style="fill: rgb(66, 103, 128);"/>
				<path d="M84.01 304.75c7.17 3.53 10.98 11.21 12.83 18.63 4.61 7.09 12.48 11.63 15.53 19.84-6.42 1.55-11.97-5.6-10.36-11.68l-2.34 1.86-3.69-5.9-2.07 1.57-1.21 1c1.97 4.34 4.46 8.41 6.52 12.71-3.92-5.29-8.03-10.7-9.42-17.29l4.69.76c-2.32-3.73-5.71-6.57-10.23-6.79.07-.22.23-.67.31-.9.71-.81 1.52-1.52 2.3-2.27 1.95 1.34 3.96 2.59 5.98 3.81 1.13-7.11-7.61-8.95-8.84-15.35zm32.47 16.67c1.46-4.89 4.37-14.59 11.01-11.66l-3.92 2.96c.02 1.4.08 2.81-.02 4.22-1.62 3.93-2.98 7.97-3.84 12.14-.31-2.83-1.09-5.66-3.23-7.66m4.67-8.89c-2.35 3.37 3.99.75 0 0m.01 4.23c-2.78 3.93 4.12 1.51 0 0m-2.05.77c-2.3 3.39 4 .71 0 0zm11.99-5.54l6.43 1.16c2.1.42 3.31 2.37 4.75 3.77l-3.99 2.84-7.19-7.77zm27.93 24.78c1.49-4.27 1.63-9.91 6.05-12.31-.21 1.75-.42 3.5-.77 5.23l-.66 3.06 2.27-.6c-1.57 4.09-2.39 8.4-3.33 12.66l-2.66-.29-1.41-2.06 4.29-1.15c-.08-1.21-.13-2.43-.16-3.64l-3.62-.9zM68.05 325.8c1.9 3 2.05 6.54 2.1 9.99-3.04-2.58-2.75-6.44-2.1-9.99zm46.31 16.98c-1.2-4.49.89-8.55 3.87-11.77-4.94 15.25 2.82 31.75 16.9 38.86-11.55-2.83-17.37-14.43-20.58-24.86l-.19-2.23zm-42.38-5.58c8.63 10.91 20.68 24.7 35.86 22.72 1.36 1.32 2.81 2.55 4.15 3.9-16.14-.26-31.4-11.69-39.86-24.98l-.15-1.64zm82.73 12.14l3.44-1.61c2.48 1.43 3.87 3.91 3.98 6.76l.46 2.86c-1.84-3.37-5.01-5.6-7.88-8.01zm2.8 26.18c.39-6.77-.7-13.48-2.73-19.92 2.17 3.15 4.18 6.4 6.22 9.64 1.29 7.65-3.49 16.6-12.36 11.11 2.96-.2 5.91-.57 8.87-.83zm50.88-5.27c-1.44-3.24-3.19-6.98-1.8-10.52 1.93.55 3.93.81 5.94.55-2.73 3.84-1.38 7.49 2.07 10.23-.78 5.39-1.33 10.94-2.03 16.4-5.64.35-8.5-4.67-7.49-9.77l1.2.8c.14 1.56.22 3.12.3 4.69l2.6 1.23 1.19-3.75a14.15 14.15 0 0 0 .13-5.76c5.26-2.25 1.07-6.08-1.71-8.42-.17 1.43-.3 2.87-.4 4.32zm-90-8.29l2.5 1.78c-5.88 12.38-21.37 7.35-30.89 2.83l.85.15c7.8.55 15.66 4.89 23.41 1.47l-.44-1.92-.66-3.56 4.32 2.42c.32-1.05.63-2.11.91-3.17zm75.81 1.91l3.32 2c.44 5 4.29 10.43.09 14.81-5.74.68-11.57-1.65-15.82-5.41l-1.03-1.12c5.6 2.19 14.56 8.22 18.74.89-4.84.21-8.66-2.89-12.78-4.88 1.4.1 2.8.15 4.21.22 1.8.08 3.59.22 5.38.35-.65-2.31-1.35-4.6-2.11-6.86zm-28.4 2.99c2.09 1.48 3.3 3.68 3.5 6.23-2.94-.88-4.17-3.28-3.5-6.23zm-30.63 24.82c6.96-1.19 14.26-.55 20.94-3.21l.01.57a71.68 71.68 0 0 0 .35 6.04c-11.89-5.07-26.03-.33-34.97 8.41-5.48 4.85-4.75 13.98-11.71 17.53.74-6.67 8.39-10.84 6.84-18.2 7.99.69 11.16-9.61 18.54-11.14zm38.21 1.8c6.66-5.46 17.75-3.67 25.91-2.74 7.29 5.13-2.54 10.06-7.63 10.23-14.24-5.4-30.65 5.73-32.25 20.67a55.97 55.97 0 0 0-4.1-.18c3.53-4.84 5.27-10.6 8.01-15.82 4.83-1.61 8.94-4.51 12.48-8.13 8.18 3.65 16.96-.69 25.13-2.32-7.45-7.2-18.59-2.36-27.55-1.71zm36.91-3.22l4.45.04-.11 2.42-4.33 1.18-.01-3.64zm9.26 7.23c3.52 6.75.81 14.73 2.12 22 .4 2.75-1.12 5.18-2.42 7.46a142.07 142.07 0 0 1 .36-4.15l-2.35 2.47c-.45-2.02-.58-4.09-.48-6.14l3.68 2.67c1.43-6.67-4.35-12.56-1.35-19.07-9.94 3.27-1.9 13.27-7.05 19.24-2.9 1.91-6.41 2.73-9.43 4.47l-.77-1.51c.3-4.17 1.3-8.28 3.24-12l2.89-.08c-3.86 2.46-3.46 6.91-1.31 10.4l3.6-.46c2.54-4.17 2.36-9.07 1.93-13.74l-2.71 1 .18-.65c.76-1.87 1.57-3.7 2.35-5.55l-2.12.11-6.43.18c.71 3.58 1.04 7.54-2.59 9.62l-1.73-.03c.45-2.02 1.31-4.21.23-6.19l-.45-.52c1.24-3.58 5.1-4.8 7.94-6.8l1.54-.05-.92 2.67 4.64-.04 2.36 2.46a97.67 97.67 0 0 0 4.01-6.06l1.04-1.71zm-125.69 8.34c1.53-2.75 4.02-5.21 7.29-5.57l1.51-.2-2.88 5.81 3.13 1.31c-3.28 4.14-9.24 6.7-10.25 12.24-.17 2.28-1.7 4.01-3.06 5.72l-1.08-1.06-1.74-2.17-7.34 5.39.11-2.2-1.71-1.31c-4.69 1.98-9.39 4.59-14.68 3.87-2.71-.32-5.11.99-6.66 3.17.32-2.31.6-4.63.76-6.95 4.49 3.67 11.17 3.96 15.71.22 6.11-4.67 16.14-4.31 18.79-12.85l2.23 1.48c2.31-2.49 3.9-5.53 4.22-8.94-1.47.65-2.93 1.31-4.35 2.04zm100.23 1.35c4.11 2.98-4.41 2.92 0 0zm-8.88 6.71c3.09 1.94 6.26 4.18 9.47.94l-.31 3.91c-1.65 2.75-3.84 5.12-5.96 7.51 2.67-4.25-.17-8.28-2.75-11.67l-.45-.69zM51.85 426.26c-.68-3.15-.61-6.42-.04-9.58l3.71 6.31c-1.17 1.16-2.42 2.21-3.67 3.27z"/>
				<path d="M196.75 429.85c1.35-3.24 2.18-6.65 2.7-10.1l.25.94c-1.99 10.02 9.6 9.11 16.16 9.07-6.57 8.92-24.6 4.36-20.39-8.06l.24.79a122.87 122.87 0 0 0 1.04 7.36m5.17 3.27c2.36.16 4.73.04 7.09-.18l-1.18-2.69c-2.05.71-5.39.13-5.91 2.87zm-90.76 11.97c-8.9-4.38-9.18-16.73-5.99-24.72 2.09 6.67-3.26 17.99 4.79 21.11 1.47-4.67-.87-9.67-.36-14.51 1.38-1.22 2.93-2.29 4.86-2.02.17 3.86.38 7.86 2.48 11.25 3.47-1.27 6.69-3.18 10.29-4.11-1.98 8.34-11.48 6.25-16.74 10.75 6.73 1.94 14.37.68 17.27-6.39l.74 2.11c1.07-1.98 2.11-3.97 3.07-6l1.89 4.69c-1.36.7-2.72 1.41-4.03 2.2-5 3.85-11.78 10.55-18.27 5.64m.99-19.54c-.5 3.47-.82 7.17.97 10.37 1.34-3.39 1.02-7.31-.97-10.37zm29.64 6.13c-4.09-1.92-4.24-6.9-1.32-9.94.51 2.58 1.12 5.14 2 7.62l-.68 2.32zm36.57-3.76l4.51-4.38 1.82 2.64-2.5 4.73 3.09-.57c-1.06 1.56-2.43 2.87-4.13 3.72l-2.79-6.14zm-22.94-1.5l3.57-.13c-1.45 11.87 8.9 10.63 13.8 2.72 1.3.39 2.6.81 3.9 1.23l-1.19 4.97c.53-.12 1.6-.34 2.13-.45-3.13 7.43-15.41 14.15-22.61 9.14l6.08.01c4.76-.03 8.32-3.38 11.71-6.27 1.12-.71 2.06-1.97 1.71-3.36l-.23-3.45c-3.19 1.89-6.22 4.05-9.06 6.43-3.45 1.15-7.01 1.89-10.58 2.56l.28-4.51 4.95 1.5c-.5-3.83-1.89-7.47-4.46-10.39zm-76.82 2.97l3.46 2.38.05 1.89-3.13.04-.06-.74-.32-3.57z"/>
				<path d="M72.98 304.63c1.77-.72 3.91-1.28 5.6-.02-1.51 1.64-3.87.7-5.6.02zm2.43 2.32l8.6-2.2c1.23 6.4 9.97 8.24 8.84 15.35-2.02-1.22-4.03-2.47-5.98-3.81-.78.75-1.59 1.46-2.3 2.27 2.54-6.57-4.48-10.26-10.06-10.16l.9-1.45zm48.14 9.99c2.67-2.79 5.14-5.8 6.57-9.44 2.83 1.36 5.39 3.22 7.41 5.65-2.13-.47-4.28-.79-6.43-1.16l7.19 7.77 3.99-2.84c5.24 8.2 6.72 17.84 13.05 25.49a106.38 106.38 0 0 0-3.09 2.14c-.94-1.69-2.01-3.31-3.09-4.91l-1.45 3.68-1.77-.18c-1.19-2.42-2.23-4.9-3.27-7.38l2.26-1.66c-5.82-4.69-9.53-11.36-15.13-16.29-6.62 11.07-9.94 25.97-1.81 37.24 5.2 6.04 12.62 9.42 19.79 12.5 3.34 2.2 9.25 2.48 8.7 7.63-6.34 1.15-11.99-2.13-17.93-3.59-1.27-.29-2.41-.93-3.41-1.72-14.08-7.11-21.84-23.61-16.9-38.86-1.54-3.06-4.17-5.92-1.75-9.59 2.14 2 2.92 4.83 3.23 7.66.86-4.17 2.22-8.21 3.84-12.14zm-61.14-3.71c1.76-.98 3.39-2.17 4.83-3.58l2.88 3.11c-2.94 3.75-3.39 8.56-2.07 13.04-.65 3.55-.94 7.41 2.1 9.99l1.98 3.05c8.46 13.29 23.72 24.72 39.86 24.98.64.79 1.25 1.6 1.83 2.45l.44 1.92c-7.75 3.42-15.61-.92-23.41-1.47-11.12-6.49-22.09-15.88-27.63-28.54-.8-8.11.01-16.36-1.86-24.35l1.05-.6zm108.46 11.76l2.41-1.68c2.39 6.53 17.22 6.65 9.92 14.34l-.98-.44c-3.33-4.52-6.17-9.49-11.35-12.22zm-2.71 2.66l4.08 2.61c-2.65 4.22-2.56 9.36-4.4 13.9-1.53 3.63-.82 7.6-.53 11.39-1.73-.38-3.45-.73-5.18-1.06-.11-2.85-1.5-5.33-3.98-6.76a139.37 139.37 0 0 1-1.31-6.33l1.68 1.06 1.41 2.06 2.66.29c.94-4.26 1.76-8.57 3.33-12.66a48.33 48.33 0 0 1 2.24-4.5zm35.9 19.48c4.67-6.39 15.94-4.43 19.47 2.38 7.36 9.82 3.35 23.12 1.87 34.26-1.29-.06-2.57-.09-3.86-.11-5.08-7.85 1.75-15.9-.73-24.3l-1.37 1.11c-.45-3.13-1.73-6.73-5.48-6.83l-2.54-.54.45-.69 1.42-2.28c-4.99-1.63-7.76 2.06-8.69 6.54-.3-3.17-.58-6.35-.54-9.54m18.86 10.95c.45 1.74 1.09 3.43 1.84 5.07-.22-1.85 1.2-5.35-1.84-5.07zm-34.3-3.84l2.96 1.16 2.62 8.47 2.11 6.86-5.38-.35c.77-5.48-.07-11.09-2.31-16.14zm-19.57 1.71c3.94 6.71 10.49 11.45 17.67 14.21 4.12 1.99 7.94 5.09 12.78 4.88-4.18 7.33-13.14 1.3-18.74-.89-2.83-3.61-7.73-3.98-11.27-6.58-1.57-1.47-4.06-2.78-4.2-5.14 1.18-2.21 2.49-4.33 3.76-6.48zm33.51 8.65c1.56 3.22 2.89 6.55 3.68 10.05l-2.2 1.8c-1.77-3.7-2.35-7.82-1.48-11.85zM48.37 411.97c11.61-18.51 30.23-39.22 54.61-36.48 7.48-1.22 16.42 2.36 17.43 10.61l-3.41.28-1.61-2.67c-9.03.54-18.02-2.62-27.14-.83-2.28 3.54-6.34 5.62-10.4 6.29-5.49-1.23-9.75 2.71-12.92 6.67l1.95 3.43c-3.17 3.77-5.69 8.5-10.68 10.12-2.18 1.92-3.48 4.58-4.39 7.29-.57 3.16-.64 6.43.04 9.58 1.46 1.61 3.06 3.08 4.65 4.57a84.57 84.57 0 0 0-2.15 2.76c-8.63-3.88-7.23-13.92-5.98-21.62zm157.91-34.03l4.09 2.17-1.19 3.75-2.6-1.23-.3-4.69zm-92.37 16.07c13.34-5.77 26.69-13.28 41.91-11.22 1.62 2.37 4.33 3.15 7.02 3.6a160.7 160.7 0 0 1-.01 4.39c-2.35-.09-5.02.27-6.71-1.74l-.01-.57c-6.68 2.66-13.98 2.02-20.94 3.21-7.38 1.53-10.55 11.83-18.54 11.14 1.55 7.36-6.1 11.53-6.84 18.2-.17 1.98-.18 3.96-.19 5.95-.51 4.84 1.83 9.84.36 14.51-8.05-3.12-2.7-14.44-4.79-21.11-.12-5 6.04-9.45 2.89-14.66l-1.37-2.15c2.48-3.12 4.54-6.58 7.22-9.55zm59.47-.53c8.96-.65 20.1-5.49 27.55 1.71-8.17 1.63-16.95 5.97-25.13 2.32-3.54 3.62-7.65 6.52-12.48 8.13-2.74 5.22-4.48 10.98-8.01 15.82-.78 1.46-.92 3.57.11 4.96 2.57 2.92 3.96 6.56 4.46 10.39l-4.95-1.5c-.07 1.5-.17 3-.28 4.51a85.43 85.43 0 0 0-1.53 2.19c-5.54-4.76-1.36-13.2-3.02-19.54l-4.95 2.78c.15-1.16.24-2.32.42-3.47 2.03-2.78 4.25-5.42 5.97-8.41-2.57 1.57-4.9 3.49-7.03 5.61a19.57 19.57 0 0 1-.7-2.68c2.42-2.88 4.68-5.87 7.16-8.69l.25 5.75c2.19-2.21 4.27-4.56 5.88-7.24 2.74-6.35 10.06-6.98 14.66-11.24l1.62-1.4zm39.92 2.19c2.2.15 4.79-.26 6.25 1.82l-1.04 1.71-5.47-.33.26-3.2zm-1.24 26.3c5.15-5.97-2.89-15.97 7.05-19.24-3 6.51 2.78 12.4 1.35 19.07l-3.68-2.67c-.1 2.05.03 4.12.48 6.14.5 1.51-.11 3.03-.45 4.51l-.95-.02c-6.56.04-18.15.95-16.16-9.07.69 1.42 1.43 2.83 2.16 4.24l.77 1.51c3.02-1.74 6.53-2.56 9.43-4.47zm-2.15-18.01l2.12-.11-2.35 5.55c-1.51-1.66-.72-3.74.23-5.44zm-146.75 23.7c5.29.72 9.99-1.89 14.68-3.87l1.71 1.31-.11 2.2c-2.39 1.7-4.78 3.43-7.37 4.84-4.68.93-9.43 1.49-14.12 2.41 1.42-2.47 2.03-6.13 5.21-6.89zm66.66 1.18l4.8 2-2.32.16-.73 1.56-3.07 6-.74-2.11c-2.9 7.07-10.54 8.33-17.27 6.39 5.26-4.5 14.76-2.41 16.74-10.75.73-1.19 1.7-2.2 2.59-3.25zm72.1 4.28c.52-2.74 3.86-2.16 5.91-2.87l1.18 2.69c-2.36.22-4.73.34-7.09.18zm-36.69 4.14c2.84-2.38 5.87-4.54 9.06-6.43l.23 3.45c-1.54.14-2.45 2.03-1.71 3.36-3.39 2.89-6.95 6.24-11.71 6.27l-2.87-2.56c2.56-.94 4.95-2.29 7-4.09z" class="E" style="fill: rgb(251, 251, 252);"/>
			</g>
			<g>
				<title>line</title>
				<path d="M839.59 332.32c3.52-4.14 9.28-1.3 13.56-.13-1.25.5-2.48 1.06-3.74 1.49-3.31-.16-6.58-.76-9.82-1.36zm-52.38.79l3.56.03.01 1.81-3.6-.04.03-1.8zm11.99.89l4.67-1.34-.04 2.62-4.63-1.28zm64.38-.81c3.36-2.36.76 3.98 0 0zm-117.68 5.94c-.24-3.56 4.54-2.49 5.41-.01l-5.41.01zM636.88 351.9c6.01-3.05 12.47-4.7 18.88-1.58-5.65 3.39-12.66 1.33-18.88 1.58zm-110.26.77c1.32-.1 2.64-.04 3.96.17-4.68 2.91-11.45.37-14.98 5.16 11.54.55 23.05-1.63 34.5-2.83 9.71 2.56 19.86.96 29.77 1.97l-.96 1.69c-8.7-.63-17.23 2.13-25.96 1.09-16.35-3.6-32.29 6.91-48.17.72-1.59-.58-3.22-1-4.86-1.36 4.92-.14 9.88-.42 14.66-1.67l-.62-.6c-1.52-.8-3.14-1.42-4.89-1.65 5.99.18 11.68-1.93 17.55-2.69m11.27 6c3.79.11 7.8.55 11.33-1.2-3.56.17-8.99-2.12-11.33 1.2m-23.16.67c4.18 2.46 9.49 1.62 14.02.65-4.3-2.41-9.4-1.25-14.02-.65m-6.01.38c-.59 4.1 4.69 2.63 6.9 1.5-2.23-.79-4.56-1.27-6.9-1.5zm97.56-7.48c6.32-1.07 12.69-.05 18.79 1.7-4.17 1.21-8.55.73-12.82.63-2.19-.14-4.7-.23-5.97-2.33zm-132 10.89c1.62-.91 3.5-.61 5.26-.47 6.35.72 12.76-.59 19.09.51-11.46 2.61-23.94 4.28-35.85 3.29 3.92-.77 7.88-1.55 11.5-3.33zm-141.37 10.43c27.29-.65 54.87-8.74 81.95-7.59-22.37 5.1-45.52 5.74-68.1 9.65l-1.69.08a81.79 81.79 0 0 0-7.65.73l-5.13-.51.62-2.36zm94.83-5.67l2.55 2.61c-4.74.96-9.51 1.7-14.28 2.46-2.15-.1-4.27-.34-6.39-.58 2.03-1.54 4.41-2.45 6.95-2.77 1.46-.19 2.93-.24 4.41-.29l3.83-.17 2.93-1.26zm-71.95 9.78c8.69-.85 18.03.99 26.13-3.06l.49 3.63c-7.16 2.8-15.37-.98-21.98 4.07-1.34.35-2.71.44-4.07.58l-.97-2.99c-2.6.77-5.13 1.75-7.63 2.82l-2.82-.09c1.96-3.17 5.44-4.55 9.05-4.76l1.8-.2zm-55.14-.16c9.12.59 17.95-2.96 27.1-1.79l-.7 2.29c-6.87-.27-13.68.79-20.41 2.01-4.26.78-8.79-.45-12.85 1.25 1.52.5 3.04.98 4.59 1.43-2.63.9-5.43.85-8.15.51-10.31-1.22-20.67 1.63-30.88 2.69-5.69 1.28-11.59 1.61-17.4 1.95 2.84-5.92 10.62-2.7 15.81-3.82l-1.44-1.92c14.97 1.31 29.06-7.15 44.33-4.6z" class="B" style="fill: rgb(195, 225, 236);"/>
				<path d="M908.41 324.35c15.97-5.15 34.1-1.88 50.88-2.27-16.66.7-33.32 2.12-50 2.35l-.88-.08zM490.9 356.39c11.81-2.11 23.86-3.83 35.72-3.72-5.87.76-11.56 2.87-17.55 2.69 1.75.23 3.37.85 4.89 1.65-7.88-1.46-15.38.84-23.01 2.07l-.05-2.69m13.41-1.33c.14 3.34 2.95-1.56 0 0zm83.25-1.95c4.8-1.06 9.73-1.24 14.61-.67l-4.55 3.09c-1.84-.32-3.69-.6-5.53-.86-1.53-.48-3.04-1.02-4.53-1.56zm-108.94 2.07c2.83-1.14 6.2-1.73 8.65.54l-2.66 2.24c-2.12-.66-4.18-1.49-5.99-2.78zm59.27 3.49c2.34-3.32 7.77-1.03 11.33-1.2-3.53 1.75-7.54 1.31-11.33 1.2zm-23.16.67c4.62-.6 9.72-1.76 14.02.65-4.53.97-9.84 1.81-14.02-.65zm-90.66 5.96l3.67 2.59-2.93 1.26-.74-3.85zm-117.43 14.72c6.73-1.22 13.54-2.28 20.41-2.01l4.85.07 2.47 2.7c.66 1.1 1.24 2.25 1.83 3.4 3.89.19 7.99.39 11.56-1.46 2.5-1.07 5.03-2.05 7.63-2.82l.97 2.99c-3.5 4.33-11.91.06-17.25 2.22-5.16 1.73-16.91 1.73-11.31-6.39-3.45.06-7.21-.77-10.32.94 2.55.35 5.13.5 7.71.62-.3 2.27-2.99 2.17-4.66 2.88.45 1.26.88 2.54 1.29 3.83-1.21-.71-3.11-.8-3.7-2.22-.48-1.07-.9-2.15-1.33-3.22l-2.66-.27c-2.52-.27-5.02-.71-7.49-1.26m22.53.15c-1.49 1.32-1.96 3.04-1.29 4.93 2.05-.88 3.84-2.21 5.17-4l-3.88-.93zm-69.82 5.73c10.21-1.06 20.57-3.91 30.88-2.69-3.38.42-6.71 1.21-9.99 2.15 1.84.79 3.68 1.67 5.7 1.95-6.42 1.24-13.51-1.64-20.45-.19l-.02 3.54-3.17.14 1.54-3.69-4.49-1.21z" class="D" style="fill: rgb(66, 103, 128);"/>
				<path d="M784.85 331.04c40.98-4.32 82.25-7.61 123.56-6.69l.88.08c-41.1 1.02-82.07 4.87-123.54 6.91l-.9-.3zm98.15 1.3c33.09-3.45 66.45-.81 99.52-3.91l.34 2.22-99.87 3.02c-9.06.73-18.31 2.78-27.1-.57-8.3 3.37-17.82 3.93-26.66 2.93 6.41-2.93 13.66.22 20.18-2.35 1.26-.43 2.49-.99 3.74-1.49 9.67-3.53 19.88 1.28 29.85.15m-19.42.85c.76 3.98 3.36-2.36 0 0zm-157.81 4.83c19.88-1.82 40.32-5.85 60.63-5.28-1.99.64-3.92 1.41-5.85 2.19 7.86 1 15.98-.68 23.68 1.27-6.55 1.14-13.29.63-19.78 2.22 4.81 1.38 9.84.95 14.79.97-7.59 3.4-16.1 1.72-24.12 2.63-2.67.09-5.35.1-8.01.14l.05-.99c4.19.03 8.39-.03 12.58-.22l1.85-2.6-8.73.38c2.56-.73 4.96-1.82 6.87-3.71-18.12-1.16-35.81 3.96-53.96 3zm-30.88 6.5c12.52-3.66 26.26 1.53 39.35 1-9.23.72-18.99 3.68-27.93.08-3.71-1.07-7.6-.99-11.42-1.08zm-132.14 6.41c15.55-1.37 31.09-4.09 46.8-3.27a113.96 113.96 0 0 1 1.48.87c-15.76 2.38-31.53 2.13-47.4 2.84l-.88-.44zm7.35 4.24c27.59-1.84 55.11-5.36 82.74-7.16l-2.15 4.15c-1.21.12-2.4.26-3.59.42-.68.43-1.13 1.48-2.03 1.36-6.1-1.75-12.47-2.77-18.79-1.7 1.27 2.1 3.78 2.19 5.97 2.33-4.55.39-9.18 2.58-13.71 1.21l-.92-.25 4.55-3.09c-4.88-.57-9.81-.39-14.61.67 1.49.54 3 1.08 4.53 1.56-1.44.25-2.86.53-4.28.83 3.55.57 7.15.67 10.73.28-6.53 1.09-12.94 3.38-19.63 3.05l.96-1.69c-9.91-1.01-20.06.59-29.77-1.97zm-45.79-.11c2.95-1.56.14 3.34 0 0zm-19.7 2.9l2.66-2.24 3.63.67.05 2.69c-2.16-.13-4.24-.68-6.34-1.12zm-14.74.77l6.07-1.5-1.27 3.45-5.58.16.78-2.11zm34.91 1.91c15.88 6.19 31.82-4.32 48.17-.72-4.86 4.35-15.04-.42-21.7 3.08-33.58 2.27-67.16 7.22-100.96 7.5-.84-.88-1.68-1.77-2.55-2.61-1.19-.93-2.43-1.76-3.67-2.59l.74 3.85-3.83.17 1.82-2.14c-2.54.1-5.09-.12-7.45-1.12 6.62-5.89 17.83-3.89 26.41-4.77l-.08 3.56c-4.54-1.82-9.21-.95-12.9 2.23 4.93.74 9.91.3 14.81-.47.4-1.57.84-3.13 1.31-4.68.68 1.34 1.39 2.66 1.93 4.07 9.15-1.17 18.36-1.28 27.45-2.87-3.62 1.78-7.58 2.56-11.5 3.33 11.91.99 24.39-.68 35.85-3.29-6.33-1.1-12.74.21-19.09-.51 8.43-.32 16.81-2.57 25.24-2.02zm-56.51-.32l17.84.01c-6 .81-11.7 3.58-17.89 2.43l.05-2.44zm-92.48 17.35c18.59-4.4 40.91-6 60.78-8.06-2.54.32-4.92 1.23-6.95 2.77 2.12.24 4.24.48 6.39.58-19.09.62-36.63 8.73-55.58 9.35 6.61-5.05 14.82-1.27 21.98-4.07l-.49-3.63c-8.1 4.05-17.44 2.21-26.13 3.06zm-55.14-.16c10.14-4.46 21.72-.55 32.26-3.95l-.62 2.36 5.13.51c-1.83.6-3.66 1.19-5.52 1.65-1.62.01-3.24-.05-4.85-.07l.7-2.29c-9.15-1.17-17.98 2.38-27.1 1.79zm44.42-1.81l1.69-.08 7.23 2.25c-3.61.21-7.09 1.59-9.05 4.76l2.82.09c-3.57 1.85-7.67 1.65-11.56 1.46-.59-1.15-1.17-2.3-1.83-3.4 3.83-.3 7.58-1.23 11.11-2.77l-.41-2.31zm-15.9 4.47l3.88.93c-1.33 1.79-3.12 3.12-5.17 4-.67-1.89-.2-3.61 1.29-4.93zm-15.04 1.11l2.66.27 1.33 3.22-5.05 1.12 1.06-4.61zm-15.75 1.42c2.35-.82 6.27-1.94 7.27 1.3-6.26 3.2-13.59-.54-19.71 3.31-2.02-.28-3.86-1.16-5.7-1.95 3.28-.94 6.61-1.73 9.99-2.15 2.72.34 5.52.39 8.15-.51zm8.78-.34c4.64-1.02-1.02 4.61 0 0zm-71.25 17.33c6.1-9.77 21.63-5.77 31.82-6.42l-.03 1.47c-11.08-1.64-20.9 5.4-31.79 4.95z" class="C" style="fill: rgb(132, 160, 177); fill-opacity: 1;"/>
				<path d="M959.29 322.08c12.59 2.22 26.33-1.89 38.32 2.88-3.04 4.51-10.47.79-15.09 3.47-33.07 3.1-66.43.46-99.52 3.91-9.97 1.13-20.18-3.68-29.85-.15-4.28-1.17-10.04-4.01-13.56.13 3.24.6 6.51 1.2 9.82 1.36-6.52 2.57-13.77-.58-20.18 2.35-16.55 1.79-33.45.72-49.99 3.36-4.95-.02-9.98.41-14.79-.97 6.49-1.59 13.23-1.08 19.78-2.22-7.7-1.95-15.82-.27-23.68-1.27 1.93-.78 3.86-1.55 5.85-2.19 6.42-.83 13.17 1.07 19.35-1.4l123.54-6.91c16.68-.23 33.34-1.65 50-2.35m-172.08 11.03l-.03 1.8 3.6.04-.01-1.81-3.56-.03m11.99.89c1.54.38 3.08.83 4.63 1.28l.04-2.62c-1.57.42-3.13.88-4.67 1.34zm-93.43 4.02c18.15.96 35.84-4.16 53.96-3-1.91 1.89-4.31 2.98-6.87 3.71 2.9-.18 5.81-.27 8.73-.38l-1.85 2.6c-4.19.19-8.39.25-12.58.22l-.05.99 8.01-.14c-13.6 2.02-27.56.1-40.88 3.5-13.09.53-26.83-4.66-39.35-1 3.82.09 7.71.01 11.42 1.08-10.08 1.37-21.81-1.29-30.55 4.72-6.41-3.12-12.87-1.47-18.88 1.58-2.04.44-4.13.26-6.19.26l2.15-4.15c-27.63 1.8-55.15 5.32-82.74 7.16-11.45 1.2-22.96 3.38-34.5 2.83 3.53-4.79 10.3-2.25 14.98-5.16 4.25-1.09 8.73-.71 13.05-1.47 15.87-.71 31.64-.46 47.4-2.84l-1.48-.87c19.19-2.86 38.81-3.57 58.29-4.15 6.37-5.23 16.41-.23 24.13-2.77 10.91-3.94 22.53-1.48 33.8-2.72m40.13 1.11l5.41-.01c-.87-2.48-5.65-3.55-5.41.01zM587.81 355.5l4.28-.83 5.53.86.92.25c-3.58.39-7.18.29-10.73-.28zm-79.09 4.22c2.34.23 4.67.71 6.9 1.5-2.21 1.13-7.49 2.6-6.9-1.5z" class="E" style="fill: rgb(251, 251, 252);"/>
			</g>
			<g>
				<title>flower-right</title>
				<path d="M1148.68 232.63l3.09-3.49c3.28 1.47 6.06 3.76 8.06 6.77l.31-3.86c3.57 5.48 3.08 12.27 2.31 18.46a121.73 121.73 0 0 0-3.78 1.96c5.11-6.56.25-12.89-3.45-18.73-1.98-1.03-4.37-.81-6.54-1.11zm-17.22 4.37l1.4 1.41-.12 5.07-4.32 8.82c-3.76-5.08 2.88-8.29 2.85-13.25l.19-2.05zm34.86-.13c1.66 3.93 1.54 8.25-.06 12.18.19-4.06.2-8.12.06-12.18zm-74.1 14.25c.22-2.2 1.33-4.11 2.74-5.78l4.9 1.73 2.17 2.09c1.75 2.55 3.23 5.4 3.48 8.54l-2.69-.13c-1.04-5.21-5.02-10.6-10.6-6.45zm27.81 14.57c1.05-5.22 2.87-10.23 4.91-15.14l3.61 3.67c-.71 1.14-1.39 2.29-2 3.48-.05 2.34.14 4.68.37 7.02l-4.24-1.72-.32 2.9-2.33-.21zM1084 258.4c1.67-2.45 3.74-4.59 5.85-6.67l1.94 2.2c-3.1 4.89-6.71 9.45-9.65 14.44-3.11-3.34-.17-6.98 1.86-9.97zm70.65 6.29c.86-2.33 1.99-4.55 2.98-6.83l3.62 6.5c-1.45 3.94-3.47 7.64-5.85 11.1-.16-3.61.19-7.24-.75-10.77zm-78.46 1.51l1.98-3.57c1.13 2.98 1.99 6.07 2.61 9.21l-4.39-1.42c.84 2.91 1.83 5.78 3.23 8.47 2.26 2.84-.37 5.97-1.84 8.46-.67-2.43-.8-4.96-.66-7.46l-1.81-.88-1.53 9.17c.33-3.52.31-7.06.38-10.6l-4.33 1.42.76-5.97 2.72.82c.96-2.55 1.75-5.17 2.88-7.65zm-34.44 20.66l3.17-.46-.06 4.62c.46 2.46-1.31 3.96-3.61 4.04l.5-8.2zm76.64 33.59l2.47 1.77c9.85 6.83 10.58 18.07 14.28 28.44l1.68-1.2c1.21 9.66-3.63 23.86-15.9 18.55l-.76-2.23 4.32-2.68 2.14.69 3.15 1.04c.79-1.18 1.6-2.35 2.44-3.5l-1.89-.08c-7.34-1.7-15.32-4.97-20.84-9.86l-.35-2.45c3.57 5.21 10.08 7.87 16.29 7.39l2.05-.65c-.56 1.24-1.17 2.46-1.75 3.68l3.27.9c.27-3.27.53-6.55.42-9.83 1.22 3.02 1.58 6.28 1.67 9.52l3.67-4.08c-3.71-7.25-4.5-15.38-6.46-23.13-3.61-3.3-8.29-5.42-11.55-9.22l1.65-3.07zm-35.45 3.44c7.2 2.69 8.84 11.22 14.81 15.44 2.49 2.3 6.77 4.47 5.51 8.56l-1.04 1.61.54 1.43c-3.44-.13-5.76-2.6-7.45-5.33-1.21.54-2.05 1.63-3.24 2.18-1.85-1.37-3.73-2.69-5.43-4.21l-1.35-2.85 2.53-.88 5.45 3.96c.04-8.25-7.49-12.88-10.33-19.91zm-11.08 2.46l2.73.08 1.32 4.56c-1.74-1.18-3.53-2.49-4.05-4.64zm116.39 1.31l1.3-.69 2.97 7.7-2.49 5.02c-.64-4.01-1.4-7.99-1.78-12.03zm-54.45 1.71c4.73-1.8 9.36.02 13.22 2.89l-6.12 1.4c-2.46-1.28-4.88-2.65-7.1-4.29zm-96.76 8.63c2.63-4.82 7.04-8.73 12.95-7.41 7.96 1.32 18.48-2.97 24.46 3.98-9.32-1.95-18.7-3.44-28.29-2.89.8 1.2 1.62 2.4 2.38 3.64l-2.62.44-3.28-3.28c-1.24 1.93-2.18 4.02-2.81 6.22l6.77-.04.28.97a240.71 240.71 0 0 0-7.15.41l2.51 4.24c.62 1.18 1.18 2.39 1.75 3.62-5.85-1.7-8.31-8.48-13.09-11.99l-2.16-2.24 4.19-1.05c1.31 1.83 2.72 3.59 4.11 5.38zm116.57-4.96l6.08-.07 2.12 2.38.13 2.31c-2.88-1.35-5.68-2.88-8.33-4.62zm-122.67 9.91c5.1-.36 8.05 4.85 9.4 9.03 1.45 4.83 1.91 11.95-4.13 13.68.36-2.76.8-5.51 1.28-8.25l1.02-6.8c-2.91-2.05-5.64-4.35-8.09-6.92l.52-.74zm160.8.02l1.2 4.19c-1.16 2.39-3.11 4.7-5.54 5.81-5.39.47-11.01 2.79-16.18.17 3.92-1.11 8.08-1.37 11.91-2.83 2.91-.96 5.63-2.6 7.22-5.3l1.39-2.04zM1059 352.11l3.11-1.11c3.73 2.54 7.32 5.34 10.12 8.93-5.44-.03-9.67-4.18-13.23-7.82zm-13.47.39c2.41-.28 4.84-.42 7.28-.34-.72 1.9-1.26 3.87-1.62 5.87-2.06-1.29-4.19-2.54-5.87-4.31l.21-1.22zm37.67-.35l4.07 3.53c.95.49 1.94.93 2.96 1.33 1.04 5.92 2.81 13.03-.86 18.34-6.73 4.62-15.6 1.05-21.13-3.86 2.06-1.84 3.93-4.23 6.72-4.98 2.12-.52 4.26-1.01 6.37-1.65 1.12.78 2.3 1.47 3.5 2.18.1-2.55.16-5.1-.08-7.63-.27-2.47-.88-4.88-1.55-7.26m3.31 16.71c-1.95 1.16-3.71 2.59-4.63 4.7l5.13.23-.08-.78c3.21-2.54 2.26-7.01 2.1-10.55-1.54 1.78-2.84 3.95-2.52 6.4m-11.78 3.34c1.51 4.08 3.98-2.77 0 0z" class="B" style="fill: rgb(195, 225, 236);"/>
				<path d="M1149.58 227.68c4.24-1.3 8.32.7 10.56 4.37l-.31 3.86c-2-3.01-4.78-5.3-8.06-6.77l-2.19-1.46zm-21.03 26.54c1.48-2.34 3.2-4.52 4.98-6.64 1.33 5.79-3.56 10.12-4.49 15.55l-2.49-5.43c.61-1.19 1.29-2.34 2-3.48zm-50.37-3.19l4.01-.3-.03 3.52-3.98-.26v-2.96zm-1.99 15.17c-.42-3.99 1.13-7.75 4.25-10.25l3.56 2.45c-2.03 2.99-4.97 6.63-1.86 9.97 2.67 3.53-1.97 6.88-2.52 10.52-1.4-2.69-2.39-5.56-3.23-8.47l4.39 1.42c-.62-3.14-1.48-6.23-2.61-9.21-.69 1.18-1.36 2.36-1.98 3.57zm-27.95-.7l2.88 2.6c-1.88 2.16-3.48 5.09-.81 7.38l.43.64c-3.85 3.5-4.54 8.56-4.09 13.5l-1.79 1.4.06-4.62-3.17.46c-1.21-6.17 7.62-10.8 3.87-16.9-1.4 2.28-2.88 4.51-4.44 6.69l-2.9-.32c2.77-2.64 3.86-6.22 2.98-9.96 2.35.07 4.75-.04 6.98-.87zm27.07 13.51l1.81.88c-.14 2.5-.01 5.03.66 7.46 2.58 4.76-1.41 8.93-5.29 11.22l-.13-.9c.18-3.2.85-6.34 1.42-9.49.57-3.05 1.06-6.11 1.53-9.17zm-60.61 4.85c3.87-.91 7.93-1.1 11.87-.48 3.83 4.52.5 11.37 4.46 16.16l.9 8.97-.03 4.94-1.37-5.34-.94 3.92c-.71-1.42-1.41-2.84-2.01-4.3-.41-5.48 1.38-11.22-1.09-16.42-1.09-1.18-2.24-2.3-3.44-3.36l1.55-.17-1.5-1.95c1.32-.15 2.59-.59 3.25-1.86-3.64-.2-7.29-.04-10.92-.28l-.73.17zm2.5 12.73c1.65-1.93 3.5-3.7 5.59-5.14l.07 1.02c.04 3.6.24 7.22.86 10.78l-2.48.11c-.32 3.36-.75 6.71-1.36 10.03l-.57-1.87c1.21-4.99 2.64-11.26-2.11-14.93zm102.45 12.05l1.72-1.62 3.93 4.28.07 2.71-2.87-.46-2.85-4.91zm58.12 4.65c3.35 2.25 6.63 4.59 9.78 7.12l-.14 5.05c7.27 2.59 9.82 16.13 5.66 20.78.63-3.84.84-7.86-.55-11.57-.91-2.6-1.98-5.14-2.97-7.7l-1.3.69-2 1c-1.98-5.53-3.94-11.36-8.48-15.37zm-49.27 6.96c3.49 1.4 7.19 2.22 10.72 3.52 4.62 3.35 9.52 6.29 14.39 9.27 2.65 1.74 5.45 3.27 8.33 4.62l-.13-2.31c3.64 4.04 10.68 1.93 12.63 8.49-6.26 2.34-11.79-2.64-17.21-5.03-3.47-2.09-6.76-4.45-10.21-6.55-3.86-2.87-8.49-4.69-13.22-2.89-1.32.18-2.58-.45-3.83-.68.63-1.39 1.61-2.56 2.74-3.58-1.24-1.76-2.61-3.42-4.21-4.86zm-46.21 9.73c2.59 1.6 5.06 3.37 7.47 5.25-3.01 3.46-8.25 4.29-11.9 1.34l4.99-1.72-.56-4.87zm-57.23.72c2.79-.21 5.64.03 7.87 1.92l-4.19 1.05 2.16 2.24-.84 4.42c-3.77-1.7-3.63-6.28-5-9.63zm-8.41 8.45c7.14-3.02 7.39 8.78 14.8 3.05l-.51.75-.52.74-1.59 2.37c1.89 1.21 3.78 2.43 5.57 3.8-3.46-1.06-6.84-2.37-10.17-3.77-.03 2.52-.08 5.04.1 7.56-1.25-4.25-1.43-8.71-1.84-13.1a134.41 134.41 0 0 1-5.84-1.4zm171.91 2.87l1.79 2.99c-1.59 2.7-4.31 4.34-7.22 5.3l.72-1.56c1.23-2.46 3.11-4.51 4.71-6.73zm-140.21 3.59l4.74-1.08c1.74 2.7 3.77 5.19 5.91 7.58 3.56 3.64 7.79 7.79 13.23 7.82 3.85-.38 7.26 1.53 9.1 4.93-2.11.64-4.25 1.13-6.37 1.65.62-1.09 1.25-2.17 1.91-3.24-9.93 5.14-16.59-6.72-24.06-11.11-2.44-.08-4.87.06-7.28.34l-.21 1.22c-.22 1.27-.48 2.53-.75 3.79-.68 2.64-1.12 5.34-1.37 8.05-3.71 1.36-8.36 2.35-10.55-1.85 1.44-2.01 2.62-4.23 3.07-6.68l1.77.38c-.48 2.74-.92 5.49-1.28 8.25 6.04-1.73 5.58-8.85 4.13-13.68 2.5-1.42 5.26-2.25 8.1-2.74l-.09-3.63zm58.79.7c6.45 2.65 12.15 6.74 18.28 10.02-6.21.48-12.72-2.18-16.29-7.39l.35 2.45-3.97-1.86 1.63-3.22zm20.33 9.37l1.37-6.94.57 1.69c.11 3.28-.15 6.56-.42 9.83l-3.27-.9 1.75-3.68zm-36.52-5.31l3.06-.04-1.18 4.95c-1.2-1.39-1.64-3.14-1.88-4.91zm39.37 10.88l1.89.08-2.44 3.5-3.15-1.04 3.7-2.54z" class="D" style="fill: rgb(66, 103, 128);"/>
				<path d="M1130.11 233.63c8.37-8.28 19.5-15.33 31.62-9.24 6.05 7.75 8.84 18.85 5.93 28.46-6.5 15.45-12.92 32.6-27.65 42.13-8.3 4.62-19.74 9.03-27.37.87-1.43-5.5 5.75-4.45 7.99-7.94 22.95 4.42 34.93-24.08 38.6-42.85-2.5-3.28-4.01-7.16-4.01-11.32 3.7 5.84 8.56 12.17 3.45 18.73-.42 1.78-.72 3.59-1.04 5.39-.99 2.28-2.12 4.5-2.98 6.83-6.08 17.75-22.56 28.96-41.32 28.75 14.06 14.27 35.41-3.86 42.07-17.98 2.38-3.46 4.4-7.16 5.85-11.1 2-4.99 3.46-10.17 5.01-15.31 1.6-3.93 1.72-8.25.06-12.18-1.37-19.66-29.59-14.01-33.46 1.54l-1.4-1.41c-1.02-.83-1.04-2.22-1.35-3.37zm2.63 9.85c5.79-5.3 7.3-15.67 16.84-15.8l2.19 1.46-3.09 3.49c-8.79-.13-9.99 10.01-15.15 14.95-1.78 2.12-3.5 4.3-4.98 6.64l-3.61-3.67c-2.04 4.91-3.86 9.92-4.91 15.14l2.33.21c.09-.97.2-1.94.32-2.9l4.24 1.72c-.23-2.34-.42-4.68-.37-7.02l2.49 5.43c-4.42 13.64-15.65 22.83-23.88 34.03-8.8 6.43-17.82 15.74-29.7 14.38-4.2-4.25 3.22-8.53 3.71-13.08l2.96 1.68c14.62-4.94 28.13-21.3 22.38-37.21.1-1.79.72-3.48 1-5.23-.25-3.14-1.73-5.99-3.48-8.54l2.59.43c-.63-4.96-4.89-7.34-9.61-6.71l4.85 4.19c-1.63-.64-3.28-1.18-4.9-1.73-1.41 1.67-2.52 3.58-2.74 5.78-.24.92-.35 1.86-.43 2.81l-1.94-2.2c-2.11 2.08-4.18 4.22-5.85 6.67l-3.56-2.45 4.35-.46c-4.22-11.7 9.67-27.06 20.72-17.89 7.07 8.59 11.63 20.41 9.37 31.67-1.17-10.66-2.82-21.69-9.74-30.39-5.76-5.43-18.8-1.09-17.4 7.65 9.41-11.84 21.97.45 20.77 12.24-2.14 7.06-2.27 14.42-1.62 21.72l2.2-1.65c.2-2.04.42-4.07.7-6.09 1.34 3.67 1.07 7.59-1.24 10.8l-3.01-1.53c-4.23 9.6-12.73 15.3-21.98 19.58l-1.65 4.37c-2.65.47-6.23.01-7.55 2.94 21.59 2.04 36.99-19.01 44.59-36.5-.28 1.61-.48 3.23-.66 4.85 2.67-2.43 3.75-5.84 3.79-9.37-.95.93-1.88 1.87-2.77 2.84-.23-1.58-.57-3.13-.81-4.7 3.33-9.19 4.14-21.1 12.77-26.98.03 4.96-6.61 8.17-2.85 13.25 1.52-2.9 2.91-5.87 4.32-8.82zm-84.5 22.02c-4.98-3.83 1.26-8.5 4.59-10.65-2.44 2.51-4.08 5.67-4.31 9.2 4.67-4.86 16.36-8.16 17.13 1.53-5.09-4.38-11.72-4.14-14.53 2.52-.98-.86-1.95-1.71-2.88-2.6z"/>
				<path d="M1054.95 267.81c4.1-6.32 10.04.57 12.99 4.37-2.75 7.67.14 16.39-4.3 23.52-3.35 12.58-20.31 12.27-26.25 22.74 12.92-.54 23.69-8.93 31.18-18.88l2.85 4.92.94-6.81.13.9c.72 2.43.13 4.89-.52 7.27l-5.05-2.27c-5.87 8.69-15.7 13.86-25.55 16.71-3.12 1.71-7.46-2.76-4.59-5.4 5.08-6.63 14.58-6.77 19.8-13.28 10.38-7.83 10.54-22.78 5.45-33.68-1.76-2.36-4.82-.45-7.08-.11m11.11 4.52c-1.56 2.96 3.34.15 0 0zm-28.38 3.94l.6.06 2.9.32c1.18 8.82-7.49 17.1-3.92 25.93 1.25 4.02-1.63 9.38-5.36 10.87a162.71 162.71 0 0 1 .03-4.94c2.13-4.32 4.86-9.44 2.1-14.14-.58-5.99 3.16-11.98 3.65-18.1zm-29.31 31.46c-5.18-10.09 4.93-20.14 14.68-19.78 1.2 1.06 2.35 2.18 3.44 3.36-1.25.03-2.48.05-3.7.14-2.09 1.44-3.94 3.21-5.59 5.14-3.57 4.63.74 10.23 2.11 14.93l.57 1.87c.61-3.32 1.04-6.67 1.36-10.03l2.48-.11c-.62-3.56-.82-7.18-.86-10.78 2.21 5.42 2.63 11.37.17 16.8l4.55-1.54c.6 1.46 1.3 2.88 2.01 4.3a126.34 126.34 0 0 0-3.08 3.5l-3.05-1.73c1.43 4.33.67 8.97-4.44 10.18-7.1-1.67-6.89-11.07-10.65-16.25m6.06-13.39c8.83 1.4 2.04-8.29 0 0m-3.67-.29a37.18 37.18 0 0 1 .8 8.29l-2.91-3.22c.27 3.68.98 7.32 2.25 10.8l2.92-1.66c-.65 4.48-1.32 11.5 4.09 13.2 1.59-9.33-5.31-17.25-3.75-26.58l-3.4-.83zm114.54 17.25c7.98-4.92 18.1-5.08 26.95-2.76-3.71.5-7.46.72-11.18.43-3.79-.48-7.6-.09-11.3.67.78 1.63 1.61 3.26 2.65 4.76-1.97-.32-3.97-.42-5.93-.51 2.3 5.15 8.8 6.13 12.73 9.88-3.53-1.3-7.23-2.12-10.72-3.52-3.02-1.81-5.9-3.96-9.41-4.71-.08-2.54-.05-5.08.14-7.6l.42.7 2.85 4.91 2.87.46-.07-2.71zm-50.98 13.08c-1.16-10.97 13.92-11.25 21.63-10.03 8.09 2.4 20.68-1.16 24.91 7.87a80.29 80.29 0 0 0-2.47-1.77c-6.37-4.42-14.63-1.71-21.73-3.86-7.17-.95-19.21-3.12-21.05 6.61 18.73-5.43 49.51-1.67 52.1 22.1-3.91-16.87-23.89-25.79-38.98-20.3 2.64 5 5.75 9.73 9.02 14.33-5.97-4.22-7.61-12.75-14.81-15.44 2.84 7.03 10.37 11.66 10.33 19.91l-5.45-3.96-2.53.88 1.35 2.85c.46 4.02.71 8.07.63 12.11-1.44-1.09-2.77-2.31-4.07-3.53.67 2.38 1.28 4.79 1.55 7.26-2.01-14.51-16.58-21.56-30.29-20.03 1.2 3.05 2.46 6.1 4.27 8.86-3.15-2.67-5.55-6.18-6.08-10.35 12.43-1.17 22.66 4.06 32.53 10.42-.81-5.69-5.54-9.38-9.48-13.02l2.16 1.28c3.65 2.95 8.89 2.12 11.9-1.34-2.41-1.88-4.88-3.65-7.47-5.25l-1.53-4.85-6.44-.75zm-48.4 2.37c.52-5.2 4.74-3.29 3.96 1.17l-3.96-1.17zm114.98 6.91c5.99 1.51 11.42 4.54 16.62 7.8l-.29-2.65c5.42 2.39 10.95 7.37 17.21 5.03 3.35-.62 6.75-.98 10.13-1.53-1.62 3.54-5.6 2.43-8.68 2.2a55.95 55.95 0 0 0-.75 2.52c-4.14.83-8.36.06-11.32-3.11l-3.22 2.1c1.58 1.88 3.13 3.79 4.89 5.51-3.29-1.1-6.63-2.87-7.64-6.46-2.79-7.48-13.68-4.65-16.95-11.41zm-94.98 2.1l2.62-.44c1.73 2.96 2.95 6.18 4.55 9.21l-4.74 1.08c-1.51-1.77-2.97-3.59-4.53-5.3-.4 1.37-.93 2.7-1.58 3.97-.8-1.44-1.67-2.84-2.51-4.24l7.15-.41-.28-.97-.68-2.9zm144.11 3.93l2.49-5.02c1.39 3.71 1.18 7.73.55 11.57l-.13.92-1.2-4.19-1.39 2.04-1.79-2.99 1.47-2.33zm-161.2 6.37l1.59-2.37c2.45 2.57 5.18 4.87 8.09 6.92l-1.02 6.8-1.77-.38c-.25-2.43-.62-4.84-1.32-7.17-1.79-1.37-3.68-2.59-5.57-3.8zm142.14 3.69c4.31-.01 8.6-.5 12.88-1l-.72 1.56c-3.83 1.46-7.99 1.72-11.91 2.83 5.17 2.62 10.79.3 16.18-.17-4.52 3.81-11.04 2.45-16.37 1.55l-.01-.86-.05-3.91zm-59.02 12.03c4.2-1.65 8.51-.08 12.53 1.32l-4.32 2.68.76 2.23c-3.31-1.49-7.86-2.19-8.97-6.23zm-25.44 7.08c-.32-2.45.98-4.62 2.52-6.4.16 3.54 1.11 8.01-2.1 10.55l-.42-4.15zm-11.78 3.34c3.98-2.77 1.51 4.08 0 0z"/>
				<path d="M1132.86 238.41c3.87-15.55 32.09-21.2 33.46-1.54.14 4.06.13 8.12-.06 12.18-1.55 5.14-3.01 10.32-5.01 15.31-1.26-2.14-2.51-4.28-3.62-6.5.32-1.8.62-3.61 1.04-5.39a121.73 121.73 0 0 1 3.78-1.96c.77-6.19 1.26-12.98-2.31-18.46-2.24-3.67-6.32-5.67-10.56-4.37-9.54.13-11.05 10.5-16.84 15.8.04-1.69.02-3.38.12-5.07zm-45.12 8.12c-1.4-8.74 11.64-13.08 17.4-7.65 6.92 8.7 8.57 19.73 9.74 30.39 1.01 3.76 3.01-1.77 3.62-3.24.24 1.57.58 3.12.81 4.7l-.36 1.68c-7.6 17.49-23 38.54-44.59 36.5 1.32-2.93 4.9-2.47 7.55-2.94l1.65-4.37c9.25-4.28 17.75-9.98 21.98-19.58l3.01 1.53c2.31-3.21 2.58-7.13 1.24-10.8-.28 2.02-.5 4.05-.7 6.09l-2.2 1.65c-.65-7.3-.52-14.66 1.62-21.72 1.2-11.79-11.36-24.08-20.77-12.24zm-34.91 8.32c11.63-4.17 17.41 8.87 17.76 18.18-.21 1.99-.5 3.98-.76 5.97l4.33-1.42c-.07 3.54-.05 7.08-.38 10.6-.57 3.15-1.24 6.29-1.42 9.49l-.94 6.81-2.85-4.92c-7.49 9.95-18.26 18.34-31.18 18.88 5.94-10.47 22.9-10.16 26.25-22.74 4.44-7.13 1.55-15.85 4.3-23.52-2.95-3.8-8.89-10.69-12.99-4.37-1.56 2.55-2.95 5.2-4.64 7.67-2.67-2.29-1.07-5.22.81-7.38 2.81-6.66 9.44-6.9 14.53-2.52-.77-9.69-12.46-6.39-17.13-1.53.23-3.53 1.87-6.69 4.31-9.2zm101.82 9.84c.94 3.53.59 7.16.75 10.77-6.66 14.12-28.01 32.25-42.07 17.98 18.76.21 35.24-11 41.32-28.75zm-139.22 19c3.63.24 7.28.08 10.92.28-.66 1.27-1.93 1.71-3.25 1.86-3.46.23-6.79 1.12-10.1 2.07l2.43-4.21zm-1 10.65c2.04-8.29 8.83 1.4 0 0zm8.36-2.89l3.7-.14c2.47 5.2.68 10.94 1.09 16.42l-4.55 1.54c2.46-5.43 2.04-11.38-.17-16.8l-.07-1.02zm-12.03 2.6l3.4.83c-1.56 9.33 5.34 17.25 3.75 26.58-5.41-1.7-4.74-8.72-4.09-13.2l-2.92 1.66c-1.27-3.48-1.98-7.12-2.25-10.8l2.91 3.22a37.18 37.18 0 0 0-.8-8.29zm23.27.32c2.76 4.7.03 9.82-2.1 14.14-.25-2.99-.59-5.98-.9-8.97.81-1.82 1.91-3.5 3-5.17zm87.34 12.65c14.26-10.93 33.87-5.25 49.2.21l-.93 3.32c2.89.12 6.1.36 8.13 2.74 4.54 4.01 6.5 9.84 8.48 15.37l2-1c.38 4.04 1.14 8.02 1.78 12.03-.48.79-.97 1.56-1.47 2.33-1.6 2.22-3.48 4.27-4.71 6.73-4.28.5-8.57.99-12.88 1l.05 3.91c-1.87-.67-3.76-1.26-5.53-2.13-1.76-1.72-3.31-3.63-4.89-5.51 1.05-.71 2.13-1.41 3.22-2.1 2.96 3.17 7.18 3.94 11.32 3.11a55.95 55.95 0 0 1 .75-2.52c3.08.23 7.06 1.34 8.68-2.2 1.57-22.17-24.38-34.52-43.5-33.34 3.72.29 7.47.07 11.18-.43-8.85-2.32-18.97-2.16-26.95 2.76l-3.93-4.28zm5.12 6.87l5.93.51c8.85 6.61 17.02 14.13 27.27 18.57a87.84 87.84 0 0 0-6.08.07c-4.87-2.98-9.77-5.92-14.39-9.27-3.93-3.75-10.43-4.73-12.73-9.88zm-50.88 9.31c1.84-9.73 13.88-7.56 21.05-6.61 7.1 2.15 15.36-.56 21.73 3.86-.57 1.02-1.11 2.05-1.65 3.07 3.26 3.8 7.94 5.92 11.55 9.22 1.96 7.75 2.75 15.88 6.46 23.13l-3.67 4.08c-.09-3.24-.45-6.5-1.67-9.52l-.57-1.69-1.13-3.44c-2.59-23.77-33.37-27.53-52.1-22.1zm-29.45 8.48c9.59-.55 18.97.94 28.29 2.89l1.25.72c3.94 3.64 8.67 7.33 9.48 13.02-9.87-6.36-20.1-11.59-32.53-10.42.53 4.17 2.93 7.68 6.08 10.35 1.04 1 2.2 1.89 3.38 2.76l-3.11 1.11c-2.14-2.39-4.17-4.88-5.91-7.58-1.6-3.03-2.82-6.25-4.55-9.21-.76-1.24-1.58-2.44-2.38-3.64zm100.86.58c3.45 2.1 6.74 4.46 10.21 6.55l.29 2.65c-5.2-3.26-10.63-6.29-16.62-7.8l6.12-1.4zm-107.19 6.44c.63-2.2 1.57-4.29 2.81-6.22l3.28 3.28.68 2.9c-2.27-.02-4.52.03-6.77.04zm-23.18.45l5.84 1.4c.41 4.39.59 8.85 1.84 13.1 1.89 4 5.49 6.76 8.32 10.06 2.19 4.2 6.84 3.21 10.55 1.85.25-2.71.69-5.41 1.37-8.05l1.4-1.31c6.54 7.55-.76 18.19-10.03 17.09-15.51-2.27-21.82-20.1-19.29-34.14zm86.61 8.74a9.02 9.02 0 0 1 3.88-1.58l-1.63 3.22 3.97 1.86c5.52 4.89 13.5 8.16 20.84 9.86-1.27.8-2.5 1.67-3.7 2.54l-2.14-.69c-4.02-1.4-8.33-2.97-12.53-1.32-3.77-2.77-7.52-5.63-10.56-9.23l1.76-.64c-.09-.24-.29-.73-.39-.98l-.54-1.43 1.04-1.61zm-52.07 10.14c.36-2 .9-3.97 1.62-5.87 7.47 4.39 14.13 16.25 24.06 11.11-.66 1.07-1.29 2.15-1.91 3.24-2.79.75-4.66 3.14-6.72 4.98-6.18-3.89-8.43-13.5-17.16-12.89l.11-.57z" class="E" style="fill: rgb(251, 251, 252);"/>
			</g>
		</g>
	</g>
</svg>
